<svg viewBox="0 0 1112.5999755859375 400" xmlns="http://www.w3.org/2000/svg"><g><g><g><g><g><line x1="53.1875" y1="376" x2="48.1875" y2="376" style="visibility: inherit;" fill="rgb(0, 0, 0)" stroke="rgb(204, 204, 204)" stroke-width="1px"></line><line x1="53.1875" y1="334.22222222222223" x2="48.1875" y2="334.22222222222223" style="visibility: inherit;" fill="rgb(0, 0, 0)" stroke="rgb(204, 204, 204)" stroke-width="1px"></line><line x1="53.1875" y1="292.44444444444434" x2="48.1875" y2="292.44444444444434" style="visibility: inherit;" fill="rgb(0, 0, 0)" stroke="rgb(204, 204, 204)" stroke-width="1px"></line><line x1="53.1875" y1="250.66666666666652" x2="48.1875" y2="250.66666666666652" style="visibility: inherit;" fill="rgb(0, 0, 0)" stroke="rgb(204, 204, 204)" stroke-width="1px"></line><line x1="53.1875" y1="208.88888888888889" x2="48.1875" y2="208.88888888888889" style="visibility: inherit;" fill="rgb(0, 0, 0)" stroke="rgb(204, 204, 204)" stroke-width="1px"></line><line x1="53.1875" y1="167.11111111111111" x2="48.1875" y2="167.11111111111111" style="visibility: inherit;" fill="rgb(0, 0, 0)" stroke="rgb(204, 204, 204)" stroke-width="1px"></line><line x1="53.1875" y1="125.33333333333326" x2="48.1875" y2="125.33333333333326" style="visibility: inherit;" fill="rgb(0, 0, 0)" stroke="rgb(204, 204, 204)" stroke-width="1px"></line><line x1="53.1875" y1="83.55555555555547" x2="48.1875" y2="83.55555555555547" style="visibility: inherit;" fill="rgb(0, 0, 0)" stroke="rgb(204, 204, 204)" stroke-width="1px"></line><line x1="53.1875" y1="41.77777777777763" x2="48.1875" y2="41.77777777777763" style="visibility: inherit;" fill="rgb(0, 0, 0)" stroke="rgb(204, 204, 204)" stroke-width="1px"></line><line x1="53.1875" y1="0" x2="48.1875" y2="0" style="visibility: inherit;" fill="rgb(0, 0, 0)" stroke="rgb(204, 204, 204)" stroke-width="1px"></line></g><g transform="translate(43.1875, 0)"><text x="0" y="376" dx="0em" dy="0.3em" style="text-anchor: end; visibility: hidden; font-family: Roboto, sans-serif; font-size: 12px; font-weight: 200;" fill="rgb(33, 33, 33)" stroke="none" stroke-width="1px">1.2</text><text x="0" y="334.22222222222223" dx="0em" dy="0.3em" style="text-anchor: end; visibility: inherit; font-family: Roboto, sans-serif; font-size: 12px; font-weight: 200;" fill="rgb(33, 33, 33)" stroke="none" stroke-width="1px">1.25</text><text x="0" y="292.44444444444434" dx="0em" dy="0.3em" style="text-anchor: end; visibility: inherit; font-family: Roboto, sans-serif; font-size: 12px; font-weight: 200;" fill="rgb(33, 33, 33)" stroke="none" stroke-width="1px">1.3</text><text x="0" y="250.66666666666652" dx="0em" dy="0.3em" style="text-anchor: end; visibility: inherit; font-family: Roboto, sans-serif; font-size: 12px; font-weight: 200;" fill="rgb(33, 33, 33)" stroke="none" stroke-width="1px">1.35</text><text x="0" y="208.88888888888889" dx="0em" dy="0.3em" style="text-anchor: end; visibility: inherit; font-family: Roboto, sans-serif; font-size: 12px; font-weight: 200;" fill="rgb(33, 33, 33)" stroke="none" stroke-width="1px">1.4</text><text x="0" y="167.11111111111111" dx="0em" dy="0.3em" style="text-anchor: end; visibility: inherit; font-family: Roboto, sans-serif; font-size: 12px; font-weight: 200;" fill="rgb(33, 33, 33)" stroke="none" stroke-width="1px">1.45</text><text x="0" y="125.33333333333326" dx="0em" dy="0.3em" style="text-anchor: end; visibility: inherit; font-family: Roboto, sans-serif; font-size: 12px; font-weight: 200;" fill="rgb(33, 33, 33)" stroke="none" stroke-width="1px">1.5</text><text x="0" y="83.55555555555547" dx="0em" dy="0.3em" style="text-anchor: end; visibility: inherit; font-family: Roboto, sans-serif; font-size: 12px; font-weight: 200;" fill="rgb(33, 33, 33)" stroke="none" stroke-width="1px">1.55</text><text x="0" y="41.77777777777763" dx="0em" dy="0.3em" style="text-anchor: end; visibility: inherit; font-family: Roboto, sans-serif; font-size: 12px; font-weight: 200;" fill="rgb(33, 33, 33)" stroke="none" stroke-width="1px">1.6</text><text x="0" y="0" dx="0em" dy="0.3em" style="text-anchor: end; visibility: hidden; font-family: Roboto, sans-serif; font-size: 12px; font-weight: 200;" fill="rgb(33, 33, 33)" stroke="none" stroke-width="1px">1.65</text></g><line x1="53.1875" y1="0" x2="53.1875" y2="376" fill="rgb(0, 0, 0)" stroke="rgb(204, 204, 204)" stroke-width="1px"></line></g></g><g transform="translate(53, 0)" clip-path="url(#clip_0)"><clipPath id="clip_0"><rect width="1059" height="376"></rect></clipPath><g><g><g><line x1="0" y1="0" x2="0" y2="376" fill="rgb(0, 0, 0)" stroke="rgb(66, 66, 66)" stroke-width="1px" opacity="0.25"></line><line x1="88.28437499999998" y1="0" x2="88.28437499999998" y2="376" fill="rgb(0, 0, 0)" stroke="rgb(66, 66, 66)" stroke-width="1px" opacity="0.25"></line><line x1="176.56874999999997" y1="0" x2="176.56874999999997" y2="376" fill="rgb(0, 0, 0)" stroke="rgb(66, 66, 66)" stroke-width="1px" opacity="0.25"></line><line x1="264.853125" y1="0" x2="264.853125" y2="376" fill="rgb(0, 0, 0)" stroke="rgb(66, 66, 66)" stroke-width="1px" opacity="0.25"></line><line x1="353.13749999999993" y1="0" x2="353.13749999999993" y2="376" fill="rgb(0, 0, 0)" stroke="rgb(66, 66, 66)" stroke-width="1px" opacity="0.25"></line><line x1="441.421875" y1="0" x2="441.421875" y2="376" fill="rgb(0, 0, 0)" stroke="rgb(66, 66, 66)" stroke-width="1px" opacity="0.25"></line><line x1="529.70625" y1="0" x2="529.70625" y2="376" fill="rgb(0, 0, 0)" stroke="rgb(66, 66, 66)" stroke-width="1px" opacity="0.25"></line><line x1="617.990625" y1="0" x2="617.990625" y2="376" fill="rgb(0, 0, 0)" stroke="rgb(66, 66, 66)" stroke-width="1px" opacity="0.25"></line><line x1="706.2749999999999" y1="0" x2="706.2749999999999" y2="376" fill="rgb(0, 0, 0)" stroke="rgb(66, 66, 66)" stroke-width="1px" opacity="0.25"></line><line x1="794.5593749999999" y1="0" x2="794.5593749999999" y2="376" fill="rgb(0, 0, 0)" stroke="rgb(66, 66, 66)" stroke-width="1px" opacity="0.25"></line><line x1="882.84375" y1="0" x2="882.84375" y2="376" fill="rgb(0, 0, 0)" stroke="rgb(66, 66, 66)" stroke-width="1px" opacity="0.25"></line><line x1="971.1281249999998" y1="0" x2="971.1281249999998" y2="376" fill="rgb(0, 0, 0)" stroke="rgb(66, 66, 66)" stroke-width="1px" opacity="0.25"></line><line x1="1059.4125" y1="0" x2="1059.4125" y2="376" fill="rgb(0, 0, 0)" stroke="rgb(66, 66, 66)" stroke-width="1px" opacity="0.25"></line></g><g><line x1="0" y1="376" x2="1059.4125" y2="376" fill="rgb(0, 0, 0)" stroke="rgb(66, 66, 66)" stroke-width="1px" opacity="0.25"></line><line x1="0" y1="334.22222222222223" x2="1059.4125" y2="334.22222222222223" fill="rgb(0, 0, 0)" stroke="rgb(66, 66, 66)" stroke-width="1px" opacity="0.25"></line><line x1="0" y1="292.44444444444434" x2="1059.4125" y2="292.44444444444434" fill="rgb(0, 0, 0)" stroke="rgb(66, 66, 66)" stroke-width="1px" opacity="0.25"></line><line x1="0" y1="250.66666666666652" x2="1059.4125" y2="250.66666666666652" fill="rgb(0, 0, 0)" stroke="rgb(66, 66, 66)" stroke-width="1px" opacity="0.25"></line><line x1="0" y1="208.88888888888889" x2="1059.4125" y2="208.88888888888889" fill="rgb(0, 0, 0)" stroke="rgb(66, 66, 66)" stroke-width="1px" opacity="0.25"></line><line x1="0" y1="167.11111111111111" x2="1059.4125" y2="167.11111111111111" fill="rgb(0, 0, 0)" stroke="rgb(66, 66, 66)" stroke-width="1px" opacity="0.25"></line><line x1="0" y1="125.33333333333326" x2="1059.4125" y2="125.33333333333326" fill="rgb(0, 0, 0)" stroke="rgb(66, 66, 66)" stroke-width="1px" opacity="0.25"></line><line x1="0" y1="83.55555555555547" x2="1059.4125" y2="83.55555555555547" fill="rgb(0, 0, 0)" stroke="rgb(66, 66, 66)" stroke-width="1px" opacity="0.25"></line><line x1="0" y1="41.77777777777763" x2="1059.4125" y2="41.77777777777763" fill="rgb(0, 0, 0)" stroke="rgb(66, 66, 66)" stroke-width="1px" opacity="0.25"></line><line x1="0" y1="0" x2="1059.4125" y2="0" fill="rgb(0, 0, 0)" stroke="rgb(66, 66, 66)" stroke-width="1px" opacity="0.25"></line></g></g></g><g><g><line x1="0" y1="1378.6666666666667" x2="1059.4125" y2="1378.6666666666667" fill="rgb(0, 0, 0)" stroke="rgb(153, 153, 153)" stroke-width="1.5px"></line></g></g><g><g><line x1="88.28437499999998" y1="0" x2="88.28437499999998" y2="376" fill="rgb(0, 0, 0)" stroke="rgb(153, 153, 153)" stroke-width="1.5px"></line></g></g><g><g><g><g><g><path stroke="rgb(255, 112, 67)" stroke-width="2px" d="M89.1230765625,-89.6385179095799L89.2325491875,297.371398752779L89.32083356249998,-117.19108947118113L89.4285405,144.0567470538479L90.8216679375,236.8121539714698L91.353139875,283.66617151500765L92.35958174999999,267.2520518398468L92.504368125,219.87129524152084L92.6756398125,309.4063512640649L94.01756231249999,375.5152857000997L96.21760893749999,209.68865381720113L97.35118031249999,239.66661340154008L98.71605674999999,56.99049326926143L100.11448125,164.56150292430854L100.13566949999999,211.3355857899609L100.5859198125,197.54154522241242L101.4634665,209.20852356419422L102.05497181249999,132.63674590571918L102.116770875,6.48924162453062L103.2909530625,-22.017696598297388L104.63640693749998,99.64397375622794L105.00366993749998,125.86564745943612L106.64752499999999,34.68246315595676L107.54096287499999,88.95531327737689L107.64866981249999,111.3533994115871L108.64804893749998,52.63299598598686L109.419654375,-161.65541734858093L111.02289862499998,88.39840802256025L111.30011156249999,68.1960112403252L113.52487781249998,145.74029328597405L114.18524493749999,133.78793892278938L114.38123624999999,254.8898366007199L116.7419604375,240.6364207781291L118.05033487499999,191.04347813343685L118.862551125,141.6556523089689L119.26159649999998,182.70782628434995L122.77178324999998,262.89906977985555L122.96424318749999,207.65643088057953L123.70936331249999,85.00570698364334L124.55159624999999,233.0118534335147L124.62045806249998,232.90449060009624L125.10955349999999,157.3424422291362L125.50683318749998,223.19214612145916L125.61983718749998,67.42559191693795L125.92883249999998,109.66088375115842L127.7139425625,97.66340104560203L127.76338181249999,141.7824722554135L129.4019398125,69.81603011877168L129.534366375,138.85947806395416L129.65090175,154.15021154412165L130.07996381249998,108.48187565138355L130.134700125,65.1076600722865L130.92219674999998,90.63476561940777L131.23119206249999,179.55331708790067L131.9462955,128.1253672600994L132.3117928125,164.58507058257612L132.87504712499998,91.38773770272589L135.601268625,38.708314347434005L139.4381075625,141.88257748243475L139.4840154375,184.62768525628076L140.954833125,167.22603962734675L142.08663881249998,177.19053337656015L142.33736643749998,196.01995543582106L142.5033410625,287.4599062042013L143.7393223125,363.34332907815224L143.80465274999997,249.60672105257714L144.6751366875,187.26023522757504L145.55621474999998,101.0607906591145L146.87341762499997,147.94849832124982L147.855139875,57.9253569612285L147.876328125,-29.414937088725225L147.939892875,196.400958909688L148.03524,89.55443609071294L148.10057043749998,171.96142684540004L148.16590087499998,208.47046945630677L148.9586945625,250.86002503451533L149.246501625,187.98205692473462L149.37716249999997,163.9210577157675L150.93803025,161.21919855361412L151.767903375,-33.95323733755815L151.916221125,121.44081055427938L152.961508125,250.54097152136973L153.01447875,160.7870839300744L153.35172506249998,327.3108199143869L153.9732470625,231.84965672320905L154.479999375,231.59838079879103L154.96556343749998,231.7589835506179L155.16332043749998,194.4229780888126L156.65356068749998,584.6331131226493L156.86544318749998,490.83373851974835L157.6705966875,320.86165210843086L158.38746581249998,137.01961272501936L160.31383087499998,54.18117749286751L161.1578295,-29.586174011007017L162.68161781249998,35.66181335462628L163.2713574375,227.83667371969858L165.33897749999997,198.2336487562875L165.466107,110.16188199601409L165.63208162499998,137.00480453804897L165.964030875,220.91103668062016L166.3295281875,205.20967352882556L166.41957825,65.63770037787471L166.5131596875,207.89328306852175L167.41719168749998,45.022862541308164L167.6785134375,93.67618582041197L168.3989139375,232.30093176134443L168.63728174999997,99.87384552870344L168.90390056249998,134.22579759228728L170.09750531249998,171.55467784193925L170.236994625,203.9638417257798L172.58712468749997,36.44169631829119L172.9861700625,170.38388307960327L173.358730125,155.8244531794677L175.28509518749996,302.62258328463366L176.6693941875,209.27286654657215L178.01661375,216.8682704379258L178.57280531249998,227.22991205116688L178.73701425,294.8139844892721L179.7452218125,230.5596090570073L181.7016035625,140.50798070520034L182.03002143749998,114.00208151394042L182.6939199375,171.63544877137417L183.3896008125,217.25468082288313L185.05817549999998,243.0192966325645L187.759677375,124.32402525194526L188.084563875,122.62809418084373L188.61250443749998,210.7323125428487L191.965545,182.49700590000393L192.0132185625,258.4668496106947L192.04323524999998,163.45594510034684L194.54344874999998,66.62430032979364L194.55404287499996,94.31415471502017L195.06609224999997,113.18147344695919L198.00419625,114.95160308266117L198.72459675,208.71027679778462L200.7092295,198.11779341157006L202.210063875,73.35804041326162L204.19116524999998,99.20774315257943L206.21111175,133.05646080582721L206.62428262499998,127.90604326545173L207.36410568749997,-5.342892731050302L210.445230375,287.1746018857839L210.921966,294.4280007758387L211.3881075,226.18397162164453L211.73418225,272.2226632464242L212.70001331249998,218.07566032578416L212.90836443749998,190.70174775118875L213.04255668749997,58.38663448648802L213.64289043749997,179.0060639777544L214.40566743749997,127.52393562786357L215.24966606249998,-25.795000907624484L215.33971612499997,9.764319238953771L215.37856125,80.36032968898861L215.4368289375,78.47702172018573L216.69223275,119.22641282052298L217.197219375,271.08301803465326L221.57259299999998,228.53571102152978L222.86331056249998,170.385450626861L224.07810356249996,172.84893293308286L224.09046337499998,287.45471803621683L226.37702868749997,321.86966309712074L227.63419818749998,262.2493548922351L227.72777962499998,68.59483218718565L227.78428162499998,184.35110758460962L230.2297588125,203.64664596216986L230.62350712499997,232.6825074679812L231.29976543749999,226.99451967176086L231.33331349999997,247.21882467062372L235.30964174999997,137.28368432874146L237.32605687499998,256.5357043716589L237.66506887499997,148.52441978825135L238.52672437499996,98.88481161551802L240.1599853125,274.352125847349L241.51250193749996,192.71646654844847L241.662585375,30.25405290270187L241.91507868749997,-83.65563354565117L242.59486837499998,-3.7065820316875637L243.90853987499997,190.67599584934675L244.85671406249998,211.16855595144818L246.04502174999996,140.53956028799115L246.07327274999997,202.25157176442877L247.15034212499998,192.11917002127666L247.61648362499997,240.68201803110364L249.49340943749996,278.50437259573476L250.06549218749998,242.04800675649685L250.106103,206.86356069316662L250.94127318749997,284.51465673382535L252.8888265,201.73339663361105L253.32671699999997,264.4137362359175L254.08596262499998,425.16412096993037L255.6450646875,369.1127890560251L256.12709737499995,216.72145625696572L256.69211737499995,189.90085928884733L256.87398318749996,366.60532609305665L258.323612625,322.27619953495713L261.2987960625,195.77348322330707L262.1604515625,186.866679011404L263.186316,254.32875391427507L264.65007093749995,86.82886330369733L266.36985056249995,216.5412677028131L266.7477076875,50.55226594530986L267.21208349999995,111.44458435966641L268.25030775,327.47191113826085L268.2856215,255.97458175511358L269.94007068749994,317.9951913205921L269.994807,173.27141000584265L270.09191981249995,174.63887766718824L270.153718875,119.83618931868325L270.17137575,175.65243024566956L271.82405924999995,135.19517027169638L272.40497043749997,226.3539901160344L272.50738031249995,224.9695989307317L273.4996966875,150.28945402667907L273.54913593749995,413.634053733146L273.847537125,363.31778626413893L274.44963656249996,255.74086961411496L275.04997031249997,271.2101589755001L275.92045425,234.20562860198842L276.44839481249994,260.2420088208068L278.69258362499994,239.3105922553747L280.01508356249997,238.20499616811196L282.90727968749997,299.56134439411807L283.2498230625,351.5692095227557L283.64357137499996,378.43851837587124L284.84777025,365.5796230697935L285.5099030625,344.2154372465527L287.6357908125,291.30711082476523L288.3773795624999,251.5716830801455L289.11720262499995,192.59146718451305L289.53920193749997,152.83485823632637L290.0900964375,173.13981146007913L291.5097091875,261.2439386881136L292.2336410625,301.7402922493264L292.2548293125,361.8003978837755L292.89047681249997,294.540115235799L294.29419837499995,383.86412397139475L294.3612945,362.3578483316758L294.488424,251.35573496607367L294.9545655,214.94097682084424L295.99278975,179.86528392779314L296.328270375,585.4906724276327L296.533090125,382.91058591100654L296.97274631249996,223.30723106320542L302.27334018749997,105.42225096431213L302.27510587499995,260.04948332327047L302.52053643749997,281.2097177649584L302.64590024999995,275.5610259036581L303.40867725,301.70761468770263L304.061981625,219.60320955969178L304.7982733125,170.26948765259016L304.8194615625,196.49908594957276L305.58576993749995,208.93916968904705L306.6416510625,144.53626724854104L307.5792311249999,113.78738365370349L309.50912756249994,165.39970748171868L313.48545581249994,199.6582428646823L313.65319612499997,166.82383942269394L316.3176185625,222.69099046188472L316.62131681249997,146.30962398090668L316.7766973125,165.32768638263028L316.94620331249996,152.50554330744274L317.9508795,174.63138062449374L320.7918706875,190.31543539645187L321.1379454375,124.09408827101996L324.6410694375,134.92741328297865L325.55216418749995,71.92147601205062L325.57511812499996,159.11075388658142L325.7252015625,111.83252034545794L326.436773625,114.98856334795404L327.739851,242.8485782756995L328.788669375,322.74424930103163L329.6079483749999,224.75856638563192L329.61677681249995,212.12166120046538L330.28244099999995,406.9549941466302L331.18294162499996,405.65151669061476L333.60899624999996,320.1068493454235L334.1722505625,381.09758942496234L334.42827524999996,354.50590167743826L334.50949687499997,426.19180394591615L335.4382485,278.86192735859777L335.508876,163.93068044944687L335.56184662499993,233.3726543837633L335.57950349999993,172.72536078482617L335.71369574999994,139.2165936274712L336.8066563125,154.90777176214883L337.228655625,155.02657088063984L337.6400608125,153.49443306115296L338.817774375,186.42094504719532L339.35984043749994,142.26148511235573L339.361606125,159.0171578588631L340.339797,133.397594655639L340.58875893749996,117.27482761315328L341.10787106249995,132.84514864308716L342.4003543124999,82.17828177889682L342.94418606249997,142.49060638965804L343.048361625,222.6481066452096L343.2584784375,140.12848292430027L346.6274101875,305.6350908701672L347.3054341875,272.85373145623663L348.70915575,240.07768466774166L349.94160562499997,164.14364008395668L350.6743659375,171.7113320606279L350.79619837499996,255.10267390407415L350.80326112499995,257.4683260085687L352.1540120625,322.24541041362653L352.5795427499999,186.28244081469055L352.9379773125,243.01724976035277L354.47765681249996,245.463356007199L354.66305399999993,147.07932755559966L354.97911206249995,193.99652875720966L355.00383168749994,176.5750000790329L355.06739643749995,246.2379250555576L355.13978962499993,175.92512078989907L355.30576425,199.38790175860734L355.39228293749994,192.61963155131247L355.8637215,115.5699143067641L357.59409524999995,128.43296759990045L358.02315731249996,258.00625052386164L362.30141812499994,232.96110776331884L362.9988646875,72.4345807482147L363.2389981875,181.01685959394837L363.26548349999996,187.77791615106307L364.88461893749997,199.85522235366943L365.6120821875,164.4506822403266L365.7286175625,66.88184478934568L366.2583238125,164.1806386864871L366.59910149999996,147.66043823169468L369.7508536875,321.3391793852788L370.40592375,295.7967008549086L371.15280956249995,297.9045718231665L371.2410939375,186.17048882822064L371.5447921875,186.958008900231L372.04624743749997,125.08582065996276L372.84257249999996,184.47441126669156L372.89201175,177.0431175919918L373.2045384375,137.3915550644724L374.2392313125,224.8294646277676L374.69124731249997,186.16357199226383L375.35691149999997,224.7343289049936L375.720643125,255.10642443718007L376.6158466875,179.84062061282884L378.95714831249995,65.52848854472633L380.4420915,106.43049763394308L380.67869362499994,164.6979307418243L381.03712818749995,162.3161071457239L381.91644056249993,153.0291367402337L383.56912406249995,180.22760218167278L383.8551654374999,288.55587656236736L384.29305593749996,320.6250949478371L384.98697112499997,380.6512922524479L387.25764524999994,343.2605478598781L387.6655190625,297.0356103321377L388.22877337499995,168.51226094076466L388.38768525,175.0572377154462L388.7849649374999,213.5651903058628L389.327031,181.628810601432L390.5930289375,114.60331921133658L391.31342943749996,132.2770700926115L391.38229125,228.44150637170182L391.399948125,233.31190326692297L393.7006389375,221.67174652015822L393.914287125,151.3047390945493L394.05730781249997,199.5495581038107L394.7318004375,169.6485965905307L395.06551537499996,205.582944236328L396.2467603125,220.38309546703547L396.65816549999994,157.9660992778342L400.0765364999999,203.1068727692829L402.184767375,241.08827137342954L402.91752768749996,222.21985599897081L403.745635125,193.05869769090816L403.816262625,160.79095320655867L404.69027793749996,98.33824769840358L406.04985731249997,16.84217387945869L406.66608224999993,5.050866393647411L407.962096875,41.55764436825224L408.06627243749995,117.51473120645463L408.6930915,103.17411124584551L408.9985554375,107.48907368110109L409.7948805,46.70450072721531L411.11561474999996,46.73018639824316L411.3080746874999,92.73260494197314L411.31690312499995,107.44300975609093L411.80246718749993,232.94053085636725L411.8854545,118.7112072467304L412.2650773125,161.76773522585924L412.4628343125,146.73279876219732L414.488077875,194.00013474912603L415.04073806249994,155.2531161617045L416.71284412499995,145.40386215578985L417.1136551875,142.4301363717074L417.91880868749996,-20.16393644005087L418.6286150625,169.3454606999886L418.7168994375,106.32518159170533L419.6597765625,84.14075477479315L420.13474649999995,95.92877473038145L420.21596812499996,147.2359269476039L422.45839125,130.3718630058561L422.5696295625,83.67105515431662L423.648464625,30.222318117275293L424.36356806249995,162.33118919664557L424.54719956249994,247.70152198288525L427.67776349999997,233.65474904585085L431.92600762499995,165.61995429269058L433.119612375,50.93092100768913L433.3014781874999,175.390163729288L433.68816374999994,203.01064717420476L435.64277981249995,247.94044219178417L435.7310641875,202.55628581610125L438.24716887499994,107.37905194620352L439.39486574999995,104.12671892135715L439.4019285,95.65375674208293L440.16470549999997,64.86545995074012L440.82683831249994,64.85309639823258L441.79620074999997,138.41370194836887L443.897368875,111.70275913288849L444.5753928749999,156.04319699042102L444.81376068749995,144.43362388272914L446.6659668749999,412.3915521643814L449.815953375,266.9985107731838L451.01485518749996,239.15733586793579L452.2119913125,229.56087253584388L453.87173756249996,129.75697657190776L454.858756875,162.51916091873053L456.86987493749996,259.76279982136623L457.1982928125,251.98973403100328L459.0593274375,255.12229399119315L459.417762,244.07277401163205L461.27173387499994,208.86044754906902L462.0751216875,223.15564892088014L464.55238124999994,123.39126109053817L464.6883391875,188.84090086005213L465.90842925,162.22423469599005L466.29334912499996,242.04650523409782L466.35514818749994,217.19195970648516L467.2203350625,223.90827342588761L467.4269205,214.40698713360342L468.49163006249995,275.14029908490375L469.59165337499996,79.78664272812313L469.71525149999997,208.11324014669376L469.7664564374999,188.5048208512541L472.97117925,284.54077601498426L473.5944669375,330.91097666991715L473.63507774999994,336.1284353332762L475.87926656249994,252.43197571683848L476.36659631249995,173.8114137219323L476.49196012499993,98.45285402471741L477.2052978749999,224.74615462131922L478.21527112499996,195.74775567291073L478.97981381249997,211.18621952516565L480.17694993749996,339.066438712441L480.34645593749997,289.598728753452L482.982627375,206.42267702393528L485.292146625,176.54438295454116L485.92602843749995,226.60426784781154L487.76764049999997,181.3099858728036L487.940677875,88.5325569398062L487.961866125,118.33361192267282L489.82290075,160.01138948433297L490.80109162499997,163.7773189540002L490.804623,78.85020484896266L491.1648232499999,192.81630560116363L491.89228649999995,187.8362782473084L491.89758356249996,149.36052227200693L492.62681249999997,145.97597692385952L493.14062756249996,179.28832154656823L493.41254343749995,119.96290958104437L493.64031712499997,190.78876768059274L494.82332775,123.24696208540638L496.20056399999993,35.92555304470086L498.03158193749994,140.79067525129983L498.2328703124999,70.62591424501824L498.26465268749996,204.69538073423973L498.69371474999997,169.50487204270303L500.52120131249995,319.8136807566819L500.5476866249999,319.78126417910664L500.8072426874999,170.28992685598828L501.1197693749999,168.8918850211993L501.34577737499995,207.14900633824047L502.26570056249994,295.5886756196219L503.07615112499997,262.9715689853257L503.32687875,227.70694787448537L503.60232599999995,353.2229671798236L503.76830062499994,178.35418063070225L506.58810356249995,159.92170112066293L508.60275299999995,117.03881863924884L509.60566349999993,134.9199756182281L509.95703531249995,138.8332299455897L510.88225556249995,166.8108381680917L512.2171153124999,162.75250021530812L514.75440825,127.07304401346208L514.9274456249999,156.2224991986046L515.6955196875,-42.57851694676601L516.1846151249999,-13.83124713095043L518.3564107499999,111.08955009518189L520.7030094375,90.27709007636918L522.1402790625,164.02261831719738L522.7335500625,143.58776142678764L524.3032462499999,157.3377149411962L525.3061567499999,152.0680871352906L525.6363403124999,163.6048467947921L526.6922214374999,281.23273856868286L526.94471475,279.653265170832L527.8717006874999,401.68926906275857L529.1359329375,296.66928958706933L529.7503921875,191.0653448093704L530.1353120624999,127.36571208039203L531.2423981249999,206.77187424937452L532.0369575,178.90248205287983L532.7008559999999,103.53116988222705L532.8791904374999,114.96036181431889L532.9021443749999,97.38915077728484L533.3559260625,119.31359232726493L533.83795875,195.81527263811245L534.272317875,241.24526404673463L535.3582156875,286.0593315508705L535.780215,284.01741316663333L537.2898778125,209.3874727412886L537.5158858125,238.3398102371125L537.8319438749999,174.71808088510588L537.9890900624999,187.27895288083556L539.3522008125,197.95808472085153L540.2933122499999,175.6244563080427L541.5910925625,175.08054316280948L541.9707153749999,120.13648897684142L543.9429883125,180.85852878920818L544.199013,212.86418699601828L544.4515063125,122.97169738505664L544.8364261874999,121.22930105093418L545.52681,200.45979217163043L545.7951945,147.6778480948618L545.8146170625,164.2753111857474L546.8987491874999,139.20284252063905L547.4266897499999,256.38076719858145L547.73745075,379.6611120084663L548.3024707499999,253.7784977172325L549.047590875,175.26186520477515L551.470114125,191.72409028714466L551.8002976874999,288.1854809192485L551.826783,301.46640533214804L551.9521468124999,256.46234611541286L552.402397125,144.3367958935314L553.1916594375,281.7528787920866L554.3340592499999,94.38338417629367L554.8019664374999,185.2625610572627L556.1227006875,129.31858416718083L556.6735951874999,64.5216979178431L557.254506375,112.48843005984217L557.4187153124999,70.84815413236797L558.1779609375,237.59829660675376L559.1208380625,218.21359561270674L560.86004025,287.02197806667994L561.1478473125,221.66334264919846L561.1513786875,267.78192282584706L561.308524875,348.97204354061455L562.7034179999999,226.38932234968325L562.7546229374999,201.1852071115244L563.7363451875,183.32134223023925L565.623865125,167.4965830752312L566.068818375,180.09202400963522L566.542022625,146.9157799304122L566.8792689375,91.95641664124429L567.1141053749999,-138.5555180979357L568.6820358749999,-8.348326359006814L569.1605371874999,13.282455871878872L569.8791719999999,68.4364894465215L570.2093555624999,42.631731789114966L571.7013615,106.07777462848193L574.5600095625,105.52186517585217L574.565306625,-43.38261182439335L574.7789548125,68.88338948224111L576.9701729999999,70.20537819889326L578.156715,75.400279396007L580.46623425,110.00406619039289L580.699305,122.85312093439632L580.9977061875,134.5993452643596L581.7463576874999,189.98538586548432L581.762248875,199.84458557066873L581.797562625,245.03319109392024L582.4844150624999,260.7134998614303L583.478497125,188.6800474469689L583.7698355625,154.1847032050519L584.2748221875,159.9257138229876L584.9334236249999,136.7273928120217L585.3907366875,177.1539829555506L585.6838408125,163.52312758664416L586.614358125,199.66887889166736L587.3577125625,182.29691873175597L589.2222785624999,148.13978810021882L590.2763939999999,56.14817492311953L591.3057898124999,23.532289929728833L592.455252375,-61.35075747119908L595.2768209999999,-1.2058241945624406L595.2909464999999,8.965346900363176L595.7200085625,107.64977987008977L598.1460631875,147.494725472781L598.458589875,147.8353154065527L599.0147814375,162.97136339757733L599.2125384375,135.423927420328L600.309030375,247.90975823306698L601.7763166875,281.7986600138963L605.6625948749999,100.79762845598316L607.0910360624999,130.1119731375006L607.400031375,259.33179535982237L609.8843536874999,208.21220113082404L610.175692125,83.81766796853354L612.485211375,157.012603785406L615.080772,136.53589021313817L615.190244625,214.6933307994323L616.5233386874999,259.6764360000044L617.0830616249999,284.2547585590955L619.2530915624999,212.15350159948724L619.463208375,148.62559908794748L619.7457183749999,118.53765769766858L619.8075174374999,89.64640714572788L621.221833125,-0.8268260209944298L622.2847769999998,78.11116214565003L622.3960153124999,135.46766249056915L623.4059885624999,185.7068020909669L625.0957515,212.65572272729048L625.5477675,195.02478044491377L627.3575971875,55.52013373596958L629.4799535625,118.84426475764066L630.8289388125,26.180434281830298L632.8435882499999,132.7678905604176L633.6275535,192.24686036706652L633.899469375,75.43775940193483L635.2025467499999,235.85289730647133L635.2325634375,235.99435726680366L635.5009479374999,286.0177293028448L635.5503871875,175.18801439241636L635.8364285625,168.53342088588371L636.1683778124999,193.39333100103974L638.5432275,272.85666408727747L640.2170992499999,170.0340061156695L640.5137347499999,172.5458709274311L642.2458741875,108.65544580135874L642.5460410625,109.62738545499063L642.61843425,93.93078782681381L643.2258307499999,203.33774820878367L644.0892519375,148.7214840354047L644.7761043749999,92.40602630584564L645.5176931249999,26.356923312532846L646.5894654374999,75.01350447173206L647.64711225,87.33192843444975L649.2397623749999,177.6865202401945L649.7853598125,168.36966225262367L650.496931875,192.74784054411973L651.2367549375,170.00110809437558L651.7364445,263.04287100625646L652.3085272499999,254.33532326428977L653.2019651249999,131.65557746958717L653.3290946249999,150.18099432246407L653.8040645625,180.41995591422506L653.9965245,109.21421516637338L654.6180465,145.09033092545346L654.8211005625,163.71917946483154L654.9429329999999,209.10891297268148L654.99237225,229.3295754176148L655.7480865,186.77641498933838L657.5226024374999,174.4646632161508L658.6173286874999,108.05775961995724L658.6897218749999,152.89217072558765L659.5337205,182.97251930004455L660.9056596874999,71.78949421213376L661.5854493749999,40.38003994497765L662.2440508125,120.54602255639621L664.5694612499999,251.06119711131166L665.0938704375,274.24225432500094L667.4987368124999,260.8521953141845L668.3904089999999,364.49144888881455L668.3921746874998,365.36978880079084L669.2856125625,254.49367503828702L670.4509663125,140.20227581697168L671.046003,155.41790259277627L671.54745825,58.233070521594435L672.6739668749999,220.24801848076282L673.8552118125,172.84451726521547L674.4043406249999,227.8423494650319L674.4520141874999,249.26300855597236L674.718633,265.0488002439894L674.9499380624999,182.6531581167712L675.7656856875,81.15499199734133L675.9175348124999,130.17464260508888L676.7138598749999,202.3815862697047L676.8339266249999,211.92047838671428L677.6072977499999,150.155261139559L678.8061995625,134.41511831974893L678.8167936875,80.68665033755246L678.8679986249999,128.7873737067633L680.8967735624999,107.40555325915993L682.2333989999998,77.95799938171125L682.2492901875,148.93301580876854L682.8354984375,201.39523395086454L686.3386224375,228.5893083053602L686.3880616874999,295.46001317196396L686.6599775625,109.09289090556547L687.8165028749999,158.78846210274688L691.729266375,166.61383942120756L691.810488,89.32565126828442L691.8334419375,99.41594434983774L694.0317228749999,118.85971438279758L694.180040625,181.41570961112387L696.5707815,197.8747124623666L696.6237521249999,116.21584038974623L696.9557013749999,243.05834758372845L697.940955,320.8227696450722L698.1404776874999,512.7913738163945L701.1756944999998,345.6777026060802L703.0702771875,399.8585389152647L703.7006276249999,584.0957207816132L704.3768859374999,303.40205951025473L705.1361315624999,194.72953204539965L710.7969256874999,509.3447197477341L710.9258208749999,469.5920432416712L711.9357941249999,356.3268078067105L713.7827032499999,178.00873828916934L718.0962778124999,108.94076339993386L720.2680734375,91.91567619995367L720.5488177499999,209.5410796769491L720.6883070625,180.473005282298L720.7483404374999,158.32968244862124L721.4298958124999,174.04636157963273L721.8271755,93.15975851000829L722.8424458125,136.12613261251533L723.5628463124999,72.48436605703832L724.521614625,96.0788420531142L724.7264343749999,244.43399278612202L725.3002828125,71.87539404406887L725.912976375,-45.358177778474044L727.1913341249999,46.95398812186951L727.3378861875,76.4806258375315L728.0971318124999,72.39373506740608L728.7857499375,187.3622743995475L729.338410125,186.29333815047076L731.5861303125,115.65132112080535L732.3559700625,81.98442348438634L732.4054093125,100.4591769042169L733.4100854999999,124.010793618116L736.0603824374999,80.90426059469766L738.6170979374999,65.64375637580726L739.332201375,84.93659630052773L739.989037125,156.38860488182485L741.0696378749999,150.71643522727186L741.5922813749999,93.68634730850927L743.0683961249999,153.27752917639242L743.576914125,69.5928301007791L743.8011564374999,116.01806310495542L743.91239475,129.09972302193597L744.6398579999999,250.2925198347545L748.3478017499999,217.5802838328187L749.3365867499999,188.96649034092377L750.1629284999999,-31.806696710701868L750.50900325,-81.9246684577363L750.8727348749999,61.05149894027814L751.388315625,153.86814674643685L751.8809424374999,152.6243509452688L753.0445305,247.33746050205696L753.8885291249999,202.07815701276846L754.1463194999999,150.54640084014792L754.1886959999999,225.3522065861742L754.4482520624999,161.28638566502926L754.6053982499999,161.18710900725316L755.583589125,179.09004792930844L756.1238894999999,174.76776082003082L757.9866898124999,243.44960200796902L758.7777178125,187.6339518786094L758.9436924375,209.36966539121735L759.5758085625,89.13374466251891L759.9201176249999,75.72745053964458L760.3897904999999,97.73539712228948L762.1643064374999,225.48099080972358L763.1460286875,263.6361323954479L763.89997725,183.03505383369878L764.387307,151.81077958076398L764.7563356874999,206.06345613821534L766.001145375,236.92913118482807L766.0205679375,360.3951143445775L767.7403475625,231.40304388072659L767.93987025,85.01005905548679L768.97103175,152.77383599752812L769.4071565625,129.21472969232113L770.0516325,147.2502457269052L770.3200169999999,151.20750776736045L770.6466691874999,179.3305298475909L772.4882812499999,92.44558624622815L772.7478373125,57.11273104732456L772.859075625,-21.422656781761496L773.3411083125,96.78204334142492L773.5423966875,418.64929132942626L774.2398432499999,371.1656680051209L774.8525368124999,330.6579124946958L775.4458078125,216.4747954433235L776.2244759999999,349.08815307369264L779.0601701249999,325.4927159273319L780.86470275,360.8403050867268L782.5403401874999,298.136554233948L782.9199629999999,165.7219580395007L784.5991318125,256.29081405167346L785.5790883749999,311.25621891331735L786.038167125,232.13390695969838L786.8027098125,142.82457211500085L787.5690181874999,77.45793398351873L787.7773693125,181.26481335506352L789.01511625,186.02281962653623L790.1645788124999,233.67123131313969L790.6236575625,224.11604716462L790.914996,157.86014936946432L791.3758404374998,130.05976705765954L791.3934973124999,46.90804193625584L793.2933770625,154.62279859111547L794.9107468124998,174.7417225031935L795.4475158125,181.45654591917946L795.6805865625,158.24057370358017L800.0524288124999,79.58076661255599L800.3720182499999,102.0137284204959L800.5786036874999,-141.10764497352716L800.7145616249999,-47.02411508063325L801.978793875,1.651676106784901L802.9975955624999,40.72818353407958L804.729735,230.76358248372892L804.8851155,112.89663232579501L807.833813625,162.701814709062L808.5965906249999,138.42715843264187L809.6577688125,123.73614396366506L812.1632793749999,197.05141046538438L814.3032926249999,180.39988941752264L814.437484875,221.64366544169187L815.8835829374999,206.00954555136494L816.9535895624999,232.1948245869497L817.7711028749999,53.860984514539396L818.5921475624999,96.17072804460692L819.2154352499999,160.32298414257352L821.0747041875,185.98329413409004L821.2865866874998,299.98079848837494L822.1694304375,132.80090907213724L822.9975378749999,199.8774850388226L824.8638695624999,141.90527655931803L825.5736759375,173.4417672132599L825.9903781874999,165.75794701957923L826.0045036875,97.15845982144815L826.8926445,79.18596486991962L828.4393867499999,61.10891931501814L829.6418199374999,33.93476110778248L830.8001109374999,110.67042307770124L832.518124875,126.33271225455265L832.5781582499999,147.71049432321774L833.8441561875,118.93313846540421L834.1796368124999,208.1148433724826L834.276749625,295.263237552895L834.2997035625,303.41148375759417L835.99652925,242.47549811045928L836.4997501874999,279.89896073829163L838.7580644999999,142.19075939789036L838.7668929375,274.7333707727402L839.7945230624998,207.45784523789536L841.3483280625,186.55920472167605L841.4842859999999,106.2242830394399L842.3335816874999,-172.22877144423978L844.3040889374998,-10.794239162526148L844.45770375,106.98472071011221L845.0138953124999,37.12275483003861L847.6659579374999,202.7968771140606L847.76307075,132.4341063574122L847.8760747499999,79.93770397422367L848.3934211874999,132.4472706864005L848.82248325,152.23169723714395L850.8406640624999,274.4683335278333L851.1902701875,252.73086533072984L851.4021526874999,482.0060774870122L851.5398763124999,291.8740908959616L853.9076632499999,274.31987079734256L854.1972359999999,144.23605310042154L855.7757606249999,143.02934887414173L856.2012913125,143.7845548879074L856.2171824999999,85.54576870612769L857.2818920624999,65.23003419459664L857.470820625,135.17660439940767L857.5449795,177.523009419701L858.4966850625,132.3901733479469L860.5907904374999,92.70170875187794L862.2010974374999,102.13933868021736L862.41121425,92.48514587170469L863.113957875,94.17566919484359L864.8337375,103.45273784096212L867.0938174999999,118.91355859813183L868.5240243749998,125.7845266926249L869.1614375624999,148.43720720616727L869.230299375,110.54873755883489L869.6664241875,115.89565844920062L869.8429929375,141.3485763710613L869.8747753124999,71.94806895902984L870.5810503125,34.588750026133994L871.8717678749999,31.517118898601332L871.9671149999999,62.14927687301487L873.79636725,89.17285707161709L874.6368345,172.18070636265335L874.7569012499999,154.94787931618134L875.7792343124999,170.6932372739535L878.4365939999999,80.20421428955655L880.0098215625,212.8609534258932L880.1175284999999,128.99807077379756L880.4441806874999,222.8531902019087L881.0745311249999,139.5952491498996L881.470045125,77.92610361862893L881.8408395,165.34456275847106L883.6082926874999,-45.91228056052072L887.3444874374999,-31.546354425769294L888.2714733749999,20.682307821155085L888.5310294374999,76.12706183027997L888.5557490625,79.13680364005167L889.1719739999999,101.8766392044303L889.9418137499999,130.85938399466346L890.6110093125,265.51244673523126L892.8657922499999,270.34069693653805L895.9398541874999,275.6449244824524L896.8968568124999,231.37644511373358L897.7638093749999,75.33542703867202L897.8573908124998,117.81669608322936L899.6230783125,188.82591022128094L900.468842625,159.93262973736927L901.1486323124999,27.97997579164028L902.2751409374998,91.49291982828277L902.8348638749999,126.04491198540273L903.438729,152.0125133940412L904.8636388124999,134.28527140312403L906.3556447499999,102.93402905281191L906.3874271249999,103.87985170360547L908.4885952499999,168.29167343264504L911.5732513124999,115.81180147712168L912.6609148125,79.99842867815663L912.7915756875,126.91098974948298L912.969910125,139.00658377888905L914.4160081874999,146.2571669896099L915.6502237499999,196.249767824788L915.6873031874999,198.04986239029378L916.4288919374999,162.15199435881811L917.0874933749999,102.52354677398225L918.0409646249999,75.90078611831717L919.1621761875,41.880437830386896L921.5741053124999,90.74654154073428L921.9731506874999,224.13477506956866L922.5593589375,144.8553143689981L922.8348061874999,59.44246379501004L923.0219690624999,244.29480193965787L923.217960375,279.6847882682869L927.836998875,239.69293388083975L929.327239125,224.27501207139667L929.5285274999999,109.23712587483668L929.9240414999999,25.147753938801756L930.3372123749999,104.75842961886912L930.7344920624998,139.27935078076158L930.7521489374999,148.0290654109483L931.4654866874998,46.69710453655355L933.1464211875,30.729904160734247L933.5860773749998,92.1545065901363L933.6302195625,63.10907239619326L934.1193149999999,137.15747750211492L934.3364945625,176.2454086407546L935.4541747499999,184.63849952473066L936.5330098124999,66.46975997281356L937.2887240624999,140.35924110196066L937.837852875,158.24566839300152L938.0991746249999,129.43482558956603L938.1238942499999,120.9183877582535L938.261617875,160.45957689865867L944.0654326875,252.34653793471392L944.5386369374999,128.8859419665575L944.5898418749998,120.88476783021669L944.7840675,79.10358866443875L947.3390173124999,83.90448463990668L948.0011501249999,50.882921768101916L950.7061833749999,325.9841588666608L951.4212868124999,223.28690340105106L953.951517,166.31162330961934L954.2905289999999,85.32861556020744L954.3823447499999,137.75441895635026L955.4629454999999,82.70393650293336L957.4846576874999,131.88065708812078L957.8183726249999,142.94169313525083L960.8959659374999,170.44505128154108L961.0372209374999,117.4394206682844L961.8670940624999,188.637634300656L963.90293175,43.53959843656766L964.8458088749999,147.40018847139154L966.9805250624999,184.18812638849892L968.772697875,116.30644594893057L969.1558520624999,119.66866405102071L969.3977512499999,248.5377218681124L969.5725543125,191.5347496166356L971.1281249999998,199.35752782987726" style="fill: none;" fill="none"></path></g></g></g></g><g opacity="0.2"><g><g><g><path stroke="rgb(255, 112, 67)" stroke-width="2px" d="M88.58101049999999,-518.4436492919923L89.1230765625,167.64456091986756L89.2325491875,668.9009187486437L89.4285405,485.14192242092554L90.8216679375,365.12627368503144L91.353139875,350.6681662665473L92.35958174999999,243.3201077779134L92.504368125,149.99388249715162L92.6756398125,442.35547468397345L96.21760893749999,-38.14887279934361L97.35118031249999,284.5356695387098L98.71605674999999,-216.66580539279522L100.11448125,325.7915717230902L100.13566949999999,281.46372138129334L100.5859198125,176.85632154676645L101.4634665,226.7060288323296L102.05497181249999,17.790744357638815L102.116770875,-182.7204844156902L103.2909530625,-64.776540544298L104.63640693749998,282.13247595893006L105.00366993749998,165.19764031304248L106.64752499999999,-102.09123314751525L107.54096287499999,170.36420271131723L107.64866981249999,144.95043309529615L108.64804893749998,-35.4474589029949L111.02289862499998,463.47891574435755L111.30011156249999,37.8924272325303L113.52487781249998,262.0566906399197L114.18524493749999,115.85940975613059L114.38123624999999,436.54266866048175L116.7419604375,219.25629806518546L118.05033487499999,116.65406629774301L118.862551125,67.57391484578443L119.26159649999998,244.28608661227747L122.77178324999998,383.1859342787L122.96424318749999,124.79247283935543L123.70936331249999,-98.97037845187727L124.55159624999999,455.02107281155054L124.62045806249998,232.74344635009763L125.10955349999999,43.999369727240605L125.50683318749998,321.9667019314236L125.61983718749998,-166.22423934936532L125.92883249999998,173.0138214959038L127.7139425625,79.66717698838968L127.76338181249999,207.96107906765403L129.4019398125,-38.133633083767435L129.534366375,242.42464998033307L129.65090175,177.08631176418723L130.07996381249998,39.97937181260843L130.134700125,0.04633670383022093L130.92219674999998,128.9254239400227L131.23119206249999,312.9311442905002L131.9462955,50.98344251844609L132.3117928125,219.27462556627057L132.87504712499998,-18.408261617024795L135.601268625,-40.31082068549272L139.4381075625,296.6439721849229L139.4840154375,248.74534691704642L140.954833125,141.12357118394632L142.08663881249998,192.13727400037973L142.33736643749998,224.2640885247124L142.5033410625,424.6198323567708L143.7393223125,477.16846338907874L143.80465274999997,79.00180901421434L144.6751366875,93.74050649007154L145.55621474999998,-28.23837619357648L146.87341762499997,218.28005981445304L147.855139875,-77.10935507880328L148.03524,-70.71534813774963L148.10057043749998,295.5719129774305L148.16590087499998,263.23403337266706L148.9586945625,314.4443584018283L149.246501625,93.66510476006395L149.37716249999997,127.82955890231655L150.93803025,157.16640981038404L151.767903375,-326.71189117431646L151.916221125,354.5318823920356L152.961508125,444.1912129720052L153.01447875,26.156252543131455L153.35172506249998,577.0964238908556L153.9732470625,88.657911936442L154.479999375,231.22146691216358L154.96556343749998,231.99988767835825L155.16332043749998,138.41896989610453L156.65356068749998,1169.9483156734043L156.86544318749998,350.1346766153971L157.6705966875,65.90352249145499L158.38746581249998,-138.74344635009774L161.1578295,-155.23720126681866L162.68161781249998,133.53379440307614L163.2713574375,516.0989642673068L165.33897749999997,153.82911131117075L165.466107,-21.945768144395664L165.63208162499998,177.2691883511013L165.964030875,346.770384894477L166.3295281875,181.65762880113385L166.41957825,-143.72025934855154L167.41719168749998,-199.2827682495118L167.6785134375,166.65617073906787L168.3989139375,440.238050672743L168.63728174999997,-98.76678382025835L168.90390056249998,185.7537256876627L170.09750531249998,227.54799821641706L170.236994625,252.57758755154074L172.58712468749997,-214.8415217929417L172.9861700625,371.2971632215711L173.358730125,133.98530832926426L175.28509518749996,522.8197784423828L176.6693941875,69.2482914394802L178.01661375,228.26137627495655L178.57280531249998,242.77237447102863L178.73701425,396.19009314643006L179.7452218125,134.17804590860996L181.7016035625,5.430538177490151L182.03002143749998,74.2432327270507L182.6939199375,258.08549965752496L183.3896008125,285.6835289001464L185.05817549999998,281.66622034708655L187.759677375,-53.71888181898341L188.084563875,120.08419757419155L188.61250443749998,342.8886400858561L191.965545,140.1440459357367L192.0132185625,372.42161517673065L192.04323524999998,20.939588334825224L194.54344874999998,-78.62316682603628L194.55404287499996,135.8489362928602L195.06609224999997,141.48245154486756L198.00419625,117.60679753621412L198.72459675,349.3482873704698L200.7092295,182.22906833224818L202.210063875,-113.78158908420149L204.19116524999998,137.9822972615559L206.21111175,183.82953728569873L206.62428262499998,120.18041695488817L207.36410568749997,-205.21629672580303L210.445230375,725.9508438110352L210.921966,305.3080991109212L211.3881075,123.81792789035366L211.73418225,341.2807006835937L212.70001331249998,136.8551559448242L212.90836443749998,149.64087888929575L213.04255668749997,-140.08603541056326L213.64289043749997,359.93520821465387L214.40566743749997,50.30074310302726L215.24966606249998,-255.77340571085622L215.33971612499997,63.103299458821546L215.37856125,186.25434536404074L215.4368289375,75.6520597669813L216.69223275,180.35049947102857L217.197219375,498.86792585584845L221.57259299999998,164.71475050184458L222.86331056249998,83.16006003485779L224.07810356249996,176.5441563924153L224.09046337499998,459.36339569091797L226.37702868749997,373.4920806884765L227.63419818749998,172.81889258490662L227.72777962499998,-221.88695187038854L227.78428162499998,357.9855206807454L230.2297588125,232.58995352851014L230.62350712499997,276.23629972669806L231.29976543749999,218.46253797743051L231.33331349999997,277.5552821689181L235.30964174999997,-27.619026184082117L237.66506887499997,-13.492507086859911L238.52672437499996,24.42539935641811L240.1599853125,537.5530971950955L241.51250193749996,70.26297760009757L241.662585375,-213.43956756591805L241.91507868749997,-254.52016321818044L242.59486837499998,116.21699523925773L243.90853987499997,482.24986267089844L244.85671406249998,241.90739610460065L246.04502174999996,34.59606679280592L246.07327274999997,294.81958897908527L247.15034212499998,176.92056740654834L247.61648362499997,313.5262900458441L249.49340943749996,335.2379044426812L250.06549218749998,187.3634579976399L250.106103,154.0868915981716L250.94127318749997,400.9913007948133L252.8888265,77.56150648328989L253.32671699999997,358.43424563937714L254.08596262499998,666.28969807095L255.6450646875,285.03579118516706L256.12709737499995,-11.865542941623357L256.69211737499995,149.6699638366699L256.87398318749996,631.6620262993706L258.323612625,255.78250969780814L261.2987960625,6.019408755832174L262.1604515625,173.5064726935492L263.186316,355.5218662685818L264.65007093749995,-164.42097261216918L266.7477076875,-198.43123669094518L267.21208349999995,202.7830619812011L268.25030775,651.5129013061523L268.2856215,148.7285876803927L269.94007068749994,411.02610566880963L269.994807,-43.81426196628156L270.09191981249995,176.69007915920676L270.153718875,37.63215679592551L270.17137575,259.37679163614905L271.82405924999995,74.5092803107367L272.40497043749997,363.0922198825412L272.50738031249995,222.89301215277771L273.4996966875,38.26923667059998L273.54913593749995,808.6509532928467L273.847537125,287.84338506062824L274.44963656249996,94.37549463907872L275.04997031249997,294.41409301757807L275.92045425,178.69883304172083L276.44839481249994,299.29657914903424L278.69258362499994,207.91346740722648L280.01508356249997,236.54660203721784L282.90727968749997,391.5958667331271L283.64357137499996,418.7424816555447L284.84777025,346.29128011067706L285.5099030625,312.1691585116916L287.6357908125,211.94462119208436L288.3773795624999,191.96854146321613L289.11720262499995,104.12114334106437L289.53920193749997,93.19994481404615L290.0900964375,203.5972412957085L291.5097091875,393.40012953016486L292.2336410625,362.4848225911458L292.2548293125,451.8905563354492L292.89047681249997,193.64969126383457L294.29419837499995,517.8501370747883L294.3612945,330.0984348720974L294.488424,84.85256491767029L294.9545655,160.31883960300013L295.99278975,127.25174458821607L296.328270375,1193.9287551773918L296.533090125,79.04045613606763L296.97274631249996,-16.09780120849618L302.27510587499995,491.99033186170783L302.52053643749997,312.9500694274902L302.64590024999995,267.08798811170783L303.40867725,340.9274978637695L304.061981625,96.4466018676757L304.7982733125,96.26890479193787L304.8194615625,235.8434833950466L305.58576993749995,227.5992952982584L306.6416510625,47.93191358778203L307.5792311249999,67.66405826144741L309.50912756249994,242.81819322374128L313.48545581249994,251.04604593912754L313.65319612499997,117.57223425971131L316.3176185625,306.49171702067054L316.62131681249997,31.73757425944005L316.7766973125,193.85477998521588L316.94620331249996,133.27232869466138L317.9508795,207.82013660007044L320.7918706875,213.84151755438904L321.1379454375,24.7620675828721L324.6410694375,151.17740080091684L325.55216418749995,-22.587429894341426L325.57511812499996,289.89467069837775L325.7252015625,40.91517003377272L326.436773625,119.72262785169809L327.739851,434.6386006673177L328.788669375,442.5877558390299L329.6079483749999,77.78004201253248L329.61677681249995,193.16630342271588L330.28244099999995,699.2049935658773L331.18294162499996,403.6963005065918L333.60899624999996,191.78984832763663L334.1722505625,472.5836995442708L334.42827524999996,314.6183700561523L334.50949687499997,533.7206573486328L335.4382485,57.867112477620374L335.508876,-8.466189914279607L335.56184662499993,337.5356152852376L335.57950349999993,81.75442038642029L335.71369574999994,88.95344289143873L336.8066563125,178.44453896416553L337.228655625,155.20476955837668L337.6400608125,151.1962263319227L338.817774375,235.81071302625864L339.35984043749994,76.02229521009653L339.361606125,184.1506669786241L340.339797,94.96824985080288L340.58875893749996,93.09067704942484L341.10787106249995,156.20063018798825L342.4003543124999,6.177981482611697L342.94418606249997,232.95909330579966L343.048361625,342.8843570285373L343.2584784375,16.349047342936142L346.6274101875,553.8950027889675L347.3054341875,223.68169233534067L348.70915575,190.91361448499887L349.94160562499997,50.242573208279026L350.6743659375,183.06287002563474L350.79619837499996,380.1896866692437L350.80326112499995,261.0168041653103L352.1540120625,419.411037021213L352.5795427499999,-17.6620135837132L352.9379773125,328.1194631788465L354.47765681249996,249.13251537746848L354.66305399999993,-0.4967151217991379L354.97911206249995,264.3723305596246L355.00383168749994,150.44270706176755L355.06739643749995,350.73231252034503L355.13978962499993,70.45591439141161L355.30576425,234.5820732116699L355.39228293749994,182.46722624036997L355.8637215,-0.004661560058677239L357.59409524999995,147.72754753960498L358.02315731249996,452.36617490980353L362.30141812499994,195.39339362250428L362.9988646875,-168.35520977444128L363.2389981875,343.89027786254877L363.26548349999996,197.91950098673496L364.88461893749997,217.97118165757917L365.6120821875,111.34387207031241L365.7286175625,-79.47141138712576L366.2583238125,310.1288295321994L366.59910149999996,122.88013754950623L369.7508536875,581.8572911156548L370.40592375,257.4829830593533L371.15280956249995,301.06637827555335L371.2410939375,18.569364335801787L371.5447921875,188.13928900824646L372.04624743749997,32.27753829956046L372.84257249999996,273.5572971767849L372.89201175,165.89617707994245L373.2045384375,77.91421127319327L374.2392313125,355.9863289727105L374.69124731249997,128.16473303900818L375.35691149999997,282.5904642740885L375.720643125,300.66456773546L376.6158466875,66.94191487630201L378.95714831249995,-105.93970955742736L380.4420915,167.78351126776795L380.67869362499994,252.09908040364581L381.03712818749995,158.74337175157328L381.91644056249993,139.09868113199863L383.56912406249995,221.02530034383136L383.8551654374999,451.04828813340924L384.29305593749996,368.72892252604163L384.98697112499997,470.6905882093641L387.25764524999994,287.1744312710232L387.6655190625,227.69820404052732L388.22877337499995,-24.27276314629455L388.38768525,184.87470287746848L388.7849649374999,271.3271191914876L389.327031,133.72424104478617L390.5930289375,14.065082126193502L391.31342943749996,158.78769641452357L391.38229125,372.68816079033746L391.399948125,240.61749860975473L393.7006389375,204.2115114000108L393.914287125,45.754227956136L394.05730781249997,271.9167866177029L394.7318004375,124.79715432061083L395.06551537499996,259.4844657050238L396.2467603125,242.58332231309674L396.65816549999994,64.34060499403203L400.0765364999999,270.8180330064561L402.184767375,298.0603692796495L402.91752768749996,193.91723293728293L403.745635125,149.31696022881397L403.816262625,112.38933648003466L404.69027793749996,4.659189436170702L406.04985731249997,-105.40193684895839L406.66608224999993,-12.63609483506949L407.962096875,96.31781133015943L408.06627243749995,231.45036146375864L408.6930915,81.66318130493156L408.9985554375,113.96151733398429L409.7948805,-44.47235870361337L411.11561474999996,46.76871490478507L411.3080746874999,161.73623275756833L411.31690312499995,129.5086169772677L411.80246718749993,421.1868125067816L411.8854545,-52.632778167724695L412.2650773125,226.35252719455286L412.4628343125,124.18039406670458L414.488077875,264.9011387295193L415.04073806249994,97.13258828057177L416.71284412499995,130.62998114691834L417.1136551875,137.9695476955837L417.91880868749996,-264.0550456576878L418.6286150625,453.6095564100477L418.7168994375,11.79476292928053L419.6597765625,50.86411454942483L420.13474649999995,113.61080466376404L420.21596812499996,224.19665527343747L422.45839125,105.07576709323452L422.5696295625,13.619843377007317L423.648464625,-49.95078743828674L424.36356806249995,360.49449581570093L424.54719956249994,375.75702116224494L427.67776349999997,212.5845896402994L431.92600762499995,63.567762162950224L433.119612375,-121.10262891981348L433.3014781874999,362.07902781168616L433.68816374999994,244.4413723415798L435.64277981249995,315.33513471815314L435.7310641875,134.480051252577L438.24716887499994,-35.38679885864266L439.39486574999995,99.24821938408739L439.4019285,82.9443134731716L440.16470549999997,18.683014763726067L440.82683831249994,64.83455106947149L441.79620074999997,248.7546102735731L443.897368875,71.63634490966788L444.5753928749999,222.5538537767198L444.81376068749995,127.01926422119136L446.6659668749999,814.3284445868599L449.815953375,48.908948686387724L451.01485518749996,197.39557351006397L452.2119913125,215.16617753770612L453.87173756249996,-19.948867373996404L454.858756875,211.66243743896476L456.86987493749996,405.62825817532007L457.1982928125,240.33013534545896L459.0593274375,259.82113393147785L459.417762,227.49849404229053L461.27173387499994,156.04195785522458L462.0751216875,244.598450978597L464.55238124999994,-26.255320654975144L464.6883391875,287.0153605143229L465.90842925,122.29923544989686L466.29334912499996,361.7799110412597L466.35514818749994,179.91014141506614L467.2203350625,233.98274400499128L467.4269205,200.15505769517682L468.49163006249995,366.2402670118543L469.59165337499996,-213.24384180704763L469.71525149999997,400.6031362745496L469.7664564374999,159.09219190809458L472.97117925,428.5947087605794L473.5944669375,400.46627765231653L473.63507774999994,343.9546233283149L475.87926656249994,126.88728629218201L476.36659631249995,55.8805707295735L476.49196012499993,-14.584985521104647L477.2052978749999,414.18610551622174L478.21527112499996,152.25015725029834L478.97981381249997,234.34391530354816L480.17694993749996,530.886767493354L480.34645593749997,215.39716381496848L482.982627375,81.6585994296603L485.292146625,131.72694185045023L485.92602843749995,301.694095187717L487.76764049999997,113.36856291029184L487.940677875,-50.63358645968977L487.961866125,163.03519439697263L489.82290075,222.52805582682285L490.80109162499997,169.42621315850147L490.804623,-48.540466308593835L491.1648232499999,363.76545672946503L491.89228649999995,180.36623721652552L491.89758356249996,91.64688830905483L492.62681249999997,140.8991589016384L493.14062756249996,229.25683848063144L493.41254343749995,30.974791632758183L493.64031712499997,297.02755482991535L494.82332775,21.934253692626868L496.20056399999993,-95.05656051635751L498.03158193749994,298.0883585611979L498.2328703124999,-34.62122726440438L498.26465268749996,405.79958046807184L498.69371474999997,116.71910900539817L500.52120131249995,545.2768938276503L500.5476866249999,319.7326393127441L500.8072426874999,-53.94707912868931L501.1197693749999,166.79482226901575L501.34577737499995,264.53468831380206L502.26570056249994,428.24817954169373L503.07615112499997,214.04590903388123L503.32687875,174.81001620822474L503.60232599999995,541.4969961378309L503.76830062499994,-83.94899919297964L506.58810356249995,132.27298185560434L508.60275299999995,52.71449491712773L509.60566349999993,161.741711086697L509.95703531249995,144.70311143663187L510.88225556249995,208.77725050184458L512.2171153124999,156.66499328613278L514.75440825,73.55385971069327L514.9274456249999,199.94668197631827L515.6955196875,-340.78004116482214L516.1846151249999,29.289657592773352L518.3564107499999,298.4707459343804L520.7030094375,59.0584000481499L522.1402790625,274.6409106784396L522.7335500625,112.93547609117289L524.3032462499999,177.96264521280918L525.3061567499999,144.16364542643223L525.6363403124999,180.909986284044L526.6922214374999,457.6745762295193L526.94471475,277.28405507405597L527.8717006874999,584.7432749006483L529.1359329375,139.13932037353513L529.7503921875,32.65942764282218L530.1353120624999,31.816262986924833L531.2423981249999,325.88111750284827L532.0369575,137.09839375813795L532.7008559999999,-9.525798373752263L532.8791904374999,132.10414971245655L532.9021443749999,71.03233422173388L533.3559260625,152.2002546522352L533.83795875,310.5677931043836L534.272317875,309.3902511596679L535.3582156875,353.28043280707465L535.780215,280.9545355902777L537.2898778125,97.4425621032714L537.5158858125,281.76831648084845L537.8319438749999,79.2854868570963L537.9890900624999,206.12026087443027L539.3522008125,213.97678248087558L540.2933122499999,142.12401368882914L541.5910925625,174.2646734449598L541.9707153749999,37.72040769788945L543.9429883125,271.9415885077582L544.199013,260.8726743062337L544.4515063125,-11.86703703138567L544.8364261874999,118.61570654975037L545.52681,319.3055288526746L545.7951945,68.50493197970913L545.8146170625,189.1715058220757L546.8987491874999,101.59413952297629L547.4266897499999,432.14765421549475L547.73745075,564.5816292232937L548.3024707499999,64.95457628038187L549.047590875,57.48691643608935L551.470114125,216.41742791069873L551.8002976874999,432.8775668674044L551.826783,321.3877919514974L551.9521468124999,188.95625729031028L552.402397125,-23.85152943929042L554.3340592499999,-186.6708577473959L554.8019664374999,321.58132637871637L556.1227006875,45.40261883205832L556.6735951874999,-32.67363145616324L557.254506375,184.43852827284067L557.4187153124999,8.387740241156619L558.1779609375,487.72351031833216L559.1208380625,189.13654412163623L560.86004025,390.23455174763996L561.1478473125,123.62538952297629L561.1513786875,336.95979309082026L561.308524875,470.75722461276575L562.7034179999999,42.51524056328662L562.7546229374999,163.37903425428598L563.7363451875,156.52554490831156L565.623865125,143.75944434271912L566.068818375,198.98518541124128L566.542022625,97.15141381157763L566.8792689375,9.51737170749233L567.1141053749999,-484.32342020670586L567.7691754374999,88.53320524427622L568.6820358749999,50.70922724405919L569.1605371874999,45.7286292182074L569.8791719999999,151.1675398084852L570.2093555624999,3.9245953030055496L571.7013615,201.24683888753253L574.5600095625,104.68800099690748L574.565306625,-266.73932732476135L574.7789548125,237.28239144219287L576.9701729999999,72.18836127387146L578.156715,83.19263119167746L580.46623425,161.90974638197153L580.699305,142.1267030504014L580.9977061875,152.21868175930442L581.7463576874999,273.0644467671712L581.762248875,214.63338512844504L581.797562625,312.8160993787977L582.4844150624999,284.23396301269526L583.478497125,80.62986882527662L583.7698355625,102.44168684217661L584.2748221875,168.53722974989145L584.9334236249999,101.92991129557286L585.3907366875,237.79386817084412L585.6838408125,143.07684453328443L586.614358125,253.88750584920246L587.3577125625,156.23897849188904L589.2222785624999,96.90409215291334L590.2763939999999,-81.83924484252938L594.5140439999999,-42.123251173231374L595.2768209999999,57.002731747097386L595.2909464999999,24.222103542751686L595.7200085625,255.67642932467982L598.1460631875,207.26214387681745L598.458589875,148.3462003072102L599.0147814375,185.6754353841145L599.2125384375,94.10277345445414L600.309030375,416.63850445217554L601.7763166875,332.63201268513996L605.6625948749999,-170.7039188808866L607.0910360624999,174.08349015977643L607.400031375,453.16152869330506L609.8843536874999,131.5328097873263L610.175692125,-102.77413177490243L612.485211375,266.805007510715L615.080772,105.82081985473624L615.190244625,331.92949167887366L616.5233386874999,327.1510938008626L617.0830616249999,321.1222423977322L619.2530915624999,104.00161616007482L619.463208375,53.33374532063795L619.7457183749999,73.40574561225037L619.8075174374999,46.30953131781678L621.221833125,-136.53667577107754L622.2847769999998,196.51814439561628L622.3960153124999,221.5024130079481L623.4059885624999,261.06551149156354L625.0957515,253.07910368177622L625.5477675,168.5783670213487L627.3575971875,-153.7368363274469L629.4799535625,213.83046129014753L630.8289388125,-112.81531143188485L632.8435882499999,292.6490749782986L633.6275535,281.46531507703986L633.899469375,-99.77589204576284L635.2025467499999,476.4756041632758L635.2325634375,236.20654720730246L635.5009479374999,361.05278735690644L635.5503871875,8.943442026774033L635.8364285625,158.551530626085L636.1683778124999,230.6831961737738L638.5432275,392.0516637166341L640.2170992499999,15.800019158257317L640.5137347499999,176.31366814507373L642.2458741875,12.819808112250369L642.5460410625,111.08529493543833L642.61843425,70.38589138454856L643.2258307499999,367.4481887817382L644.0892519375,66.79708777533631L644.7761043749999,7.932839711507092L645.5176931249999,-72.71673117743609L646.5894654374999,147.99837621053052L647.64711225,105.8095643785264L649.2397623749999,313.21840794881183L649.7853598125,154.3943752712673L650.496931875,229.31510798136387L651.2367549375,135.88100941975904L651.7364445,402.6055153740777L652.3085272499999,241.27400165133997L653.2019651249999,-52.364041222466426L653.3290946249999,177.96911960177943L653.8040645625,225.77839830186628L653.9965245,2.4056040445962985L654.6180465,198.9045045640733L654.8211005625,191.66245227389857L654.9429329999999,277.19351323445636L654.99237225,259.6605690850152L655.7480865,122.94667434692379L657.5226024374999,155.99703555636927L658.6173286874999,8.447404225667249L658.6897218749999,220.14378738403312L659.5337205,228.09304216172956L660.9056596874999,-94.98504341973205L661.5854493749999,-6.7341414557563954L662.2440508125,240.79499647352426L664.5694612499999,446.8339589436849L665.0938704375,309.0138401455349L667.4987368124999,240.76710679796003L668.3904089999999,519.9503292507595L668.3921746874998,366.68729866875543L669.2856125625,88.17950439453116L670.4509663125,-31.234823015001133L671.046003,178.24134275648325L671.54745825,-87.54417758517805L672.6739668749999,463.27044041951496L673.8552118125,101.73926544189445L674.4043406249999,310.3390977647569L674.4520141874999,281.39399719238276L674.718633,288.72748777601447L674.9499380624999,59.05969492594396L675.7656856875,-71.09225718180349L675.9175348124999,203.70411851671003L676.7138598749999,310.69200176662866L676.8339266249999,226.22881656222864L677.6072977499999,57.5074352688259L678.8061995625,110.80490409003357L678.8167936875,0.09394836425772901L678.8679986249999,200.9384587605794L680.8967735624999,75.33282258775492L682.2333989999998,33.786668565538115L682.2492901875,255.39554044935434L682.8354984375,280.0885611640082L686.3386224375,269.3804198371039L686.3880616874999,395.7660704718695L686.6599775625,-170.45779249403225L687.8165028749999,233.33181889851886L691.729266375,178.35190539889857L691.810488,-26.60663096110037L691.8334419375,114.55138397216788L694.0317228749999,148.02536943223734L694.180040625,275.2497024536132L696.5707815,222.5632167392306L696.6237521249999,-6.27246771918413L698.1404776874999,800.7442800733778L701.1756944999998,95.00719579060865L703.0702771875,481.1297933790418L704.3768859374999,-117.63843239678283L705.1361315624999,31.72074084811733L710.7969256874999,981.2675013012357L710.9169924375,312.55353800455725L710.9258208749999,528.037737528483L711.9357941249999,186.42895465426966L713.7827032499999,-89.46836598714198L718.0962778124999,5.3388010660806735L720.2680734375,66.37804539998365L720.5488177499999,385.97918489244245L720.6883070625,136.87089369032114L720.7483404374999,125.11469819810648L721.4298958124999,197.62138027615012L721.8271755,-28.17014609442827L722.8424458125,200.57569376627598L723.5628463124999,-22.978283776177364L724.521614625,131.47055604722757L724.7264343749999,466.9667188856336L725.912976375,-221.20853551228848L727.1913341249999,185.4222369723849L727.3378861875,120.77058241102426L728.0971318124999,66.26339891221781L728.7857499375,359.81508339775934L729.338410125,184.68993377685544L731.5861303125,9.688295576307421L732.3559700625,31.484077029757955L732.4054093125,128.17130703396262L733.4100854999999,159.33821868896482L736.0603824374999,16.244461059570227L738.6170979374999,42.75300004747171L739.332201375,113.87585618760843L739.989037125,263.5666177537706L741.0696378749999,142.20818074544263L741.5922813749999,8.141215430365603L743.0683961249999,242.66430197821717L743.576914125,-55.93421851264116L743.8011564374999,185.65591261121958L743.91239475,148.72221289740662L744.6398579999999,432.0817150539822L748.3478017499999,168.5119298299153L749.3365867499999,146.04580010308155L750.1629284999999,-362.96647728814037L750.50900325,-157.10162607828786L750.8727348749999,275.5157500372992L751.388315625,293.09311845567487L751.8809424374999,150.75865724351664L753.0445305,389.40712483723956L753.8885291249999,134.18920177883567L754.1463194999999,73.2487665812174L754.1886959999999,337.5609152052137L754.4482520624999,65.18765428331156L754.6053982499999,161.03819402058912L755.583589125,205.94445631239145L756.1238894999999,168.28433015611432L757.9866898124999,346.4723637898763L758.7777178125,103.91047668457023L758.9436924375,241.97323566012903L759.5758085625,-91.22013643052847L759.9201176249999,55.61800935533304L760.3897904999999,130.74731699625644L762.1643064374999,417.0993813408746L763.1460286875,320.86884477403424L763.89997725,62.133435991075224L764.387307,104.9743682013617L764.7563356874999,287.44247097439234L766.001145375,283.22764375474713L766.0205679375,545.5940890842014L767.7403475625,37.914938184949996L767.93987025,-134.57941818237313L768.97103175,254.41950141059021L769.4071565625,93.87607023451059L770.0516325,174.30351977878138L770.3200169999999,157.14340082804355L770.6466691874999,221.51506296793613L772.4882812499999,-37.881829155816035L772.7478373125,4.113448248969119L772.859075625,-139.2257385253907L773.3411083125,274.0890935262044L773.5423966875,901.4501633114286L774.2398432499999,299.94023301866315L774.8525368124999,269.89627922905817L775.4458078125,45.20011986626513L776.2244759999999,548.0081895192463L779.0601701249999,290.0995602077908L780.86470275,413.86168882581916L782.5403401874999,204.08092795477967L782.9199629999999,-32.899936252170235L785.5790883749999,393.70432620578333L786.038167125,113.45043902926967L786.8027098125,8.860569847954583L787.5690181874999,-20.592023213704483L787.7773693125,336.9751324123806L789.01511625,193.1598290337456L790.1645788124999,305.1438488430447L790.6236575625,209.78327094184021L790.914996,58.47630267673061L791.3758404374998,88.35919358995218L791.3934973124999,-77.8195457458497L793.2933770625,316.1949335734049L794.9107468124998,204.92010837131068L795.4475158125,191.52878104315857L795.6805865625,123.41661538018114L800.0524288124999,-38.4089440239801L800.3720182499999,135.66317113240552L800.5786036874999,-505.78970506456176L800.7145616249999,94.10117975870763L801.978793875,74.66536288791225L802.9975955624999,99.34294467502163L804.729735,515.8166809082031L804.8851155,-63.90379291110578L807.833813625,237.40958828396262L808.5965906249999,102.01517401801209L809.6577688125,101.69962226019959L812.1632793749999,307.02431021796326L814.3032926249999,155.4226078457302L814.437484875,283.5093294779459L815.8835829374999,182.55836571587452L816.9535895624999,271.47274314032654L817.7711028749999,-213.6397755940756L818.5921475624999,159.63534333970804L819.2154352499999,256.55136828952357L821.0747041875,224.47375912136496L821.2865866874998,470.9770550198025L822.1694304375,-117.96892505221906L822.9975378749999,300.4923489888509L824.8638695624999,54.94696384006069L825.5736759375,220.74650319417316L825.9903781874999,154.2322167290581L826.0045036875,-5.740770975748809L826.8926445,52.22722244262687L828.4393867499999,33.99335098266593L829.6418199374999,-6.826476203070849L830.8001109374999,225.77391603257917L832.518124875,149.8261460198296L832.5781582499999,179.77716742621521L833.8441561875,75.76710467868374L834.1796368124999,341.88740073310004L834.276749625,425.98582882351343L834.2997035625,315.63385306464295L835.99652925,151.07151963975687L836.4997501874999,336.0341546800401L838.7580644999999,-64.37154261271169L838.7668929375,473.5472878350152L839.7945230624998,106.54455693562818L841.3483280625,155.21124394734693L841.4842859999999,-14.27809948391392L842.3335816874999,-589.9083531697592L843.0928273124999,68.60593244764532L844.3040889374998,86.85673692491312L844.45770375,283.65316051907007L845.0138953124999,-67.67019399007167L847.6659579374999,451.3080605400933L847.76307075,26.889950222439186L847.8760747499999,1.1931003994410965L848.3934211874999,211.21162075466574L848.82248325,181.9083370632595L850.8406640624999,457.8232879638672L851.1902701875,220.1246630350748L851.4021526874999,825.9188957214355L851.5398763124999,6.676111009385772L853.9076632499999,247.98854064941403L854.1972359999999,-50.889673444959975L855.7757606249999,141.21929253472217L856.2012913125,144.9173639085557L856.2171824999999,-1.8124105665419208L857.2818920624999,34.75643242730029L857.470820625,240.09645970662433L857.5449795,241.042616950141L858.4966850625,64.69091924031568L860.5907904374999,33.16901185777444L862.2010974374999,116.2957835727267L862.41121425,78.00385665893546L863.113957875,96.7114541795518L864.8337375,117.3683408101399L867.0938174999999,142.1047897338867L868.5240243749998,136.0909788343641L869.1614375624999,182.41622797648105L869.230299375,53.71603308783631L869.6664241875,123.91603978474927L869.8429929375,179.52795325385193L869.8747753124999,-32.15269215901698L870.5810503125,-21.450228373209747L871.8717678749999,26.909672207302467L871.9671149999999,108.09751383463536L873.79636725,129.70822736952036L874.6368345,296.69248029920783L874.7569012499999,129.09863874647348L875.7792343124999,194.3112742106119L878.4365939999999,-55.52932018703892L880.0098215625,411.8460621303982L880.1175284999999,3.2037467956542134L880.4441806874999,363.6358693440755L881.0745311249999,14.708337571885771L881.470045125,-14.577614678276975L881.8408395,296.47225146823456L883.6082926874999,-362.79754553900835L883.6665603749999,43.19863722059453L886.2462298124999,-226.13265694512268L886.8218439374999,-105.41349114312072L887.3444874374999,71.33463838365336L888.2714733749999,99.02530119154184L888.5310294374999,159.29419284396693L888.5557490625,83.65141635470913L889.1719739999999,135.98639255099818L889.9418137499999,174.33350118001295L890.6110093125,467.49204084608283L892.8657922499999,277.5830722384982L895.9398541874999,283.60126580132373L896.8968568124999,164.97372606065534L897.7638093749999,-158.72610007392046L897.8573908124998,181.53859965006504L899.6230783125,295.3397314283582L900.468842625,116.59270901150168L901.1486323124999,-169.9490051269532L902.2751409374998,186.76233588324646L902.8348638749999,177.87290022108286L903.438729,190.96391550699863L904.8636388124999,107.69440841674796L906.3556447499999,55.907165527343665L906.3874271249999,105.29858567979593L908.4885952499999,264.9094060262044L911.5732513124999,37.091993543836715L912.6609148125,26.278369479709127L912.7915756875,197.27983135647239L912.969910125,157.14997482299802L914.4160081874999,157.13304180569114L915.6502237499999,271.2386690775553L915.6873031874999,200.75000423855246L916.4288919374999,108.30519231160474L917.0874933749999,13.080875396728432L918.0409646249999,35.96664513481982L919.1621761875,-9.150084601508349L921.5741053124999,164.04569710625537L921.9731506874999,424.21712536282007L922.5593589375,25.93612331814231L922.8348061874999,-68.67681206597229L923.0219690624999,521.5733091566298L923.217960375,332.7697677612304L927.836998875,179.705152299669L929.327239125,201.14812935723194L929.5285274999999,-63.31970342000331L929.9240414999999,-100.98630396525076L930.3372123749999,224.17444313897022L930.7344920624998,191.0607325236002L930.7521489374999,161.15363735622824L931.4654866874998,-105.30083677503809L933.1464211875,6.779103597005139L933.5860773749998,184.29141023423932L933.6302195625,19.5409211052788L934.1193149999999,248.23008516099713L934.3364945625,234.87730534871417L935.4541747499999,197.2281358506944L936.5330098124999,-110.7833493550619L937.2887240624999,251.19346279568137L937.837852875,185.07530932956263L938.0991746249999,86.21856138441294L938.1238942499999,108.14373101128466L938.261617875,219.77136060926645L944.0654326875,390.17697948879663L944.5386369374999,-56.304951985677135L944.5898418749998,108.88300662570522L944.7840675,16.4318199157714L947.3390173124999,91.10582860310865L948.0011501249999,1.3505774603949003L950.7061833749999,738.6360145144993L951.4212868124999,69.24102020263663L953.951517,80.84870317247172L954.2905289999999,-36.14589606391069L954.3823447499999,216.39312405056418L955.4629454999999,0.12821282280809942L957.4846576874999,205.64573796590167L957.8183726249999,159.53324720594614L960.8959659374999,211.70008850097648L961.0372209374999,37.93097474839944L961.8670940624999,295.43495474921326L963.90293175,-174.107455359565L964.8458088749999,303.1910735236273L966.9805250624999,239.37003326416013L968.772697875,14.483925289577815L969.1558520624999,124.71199120415575L969.3977512499999,441.84130859375L969.5725543125,106.03029123942052L971.1281249999998,211.09169514973956" style="fill: none;" fill="none"></path></g></g></g></g></g></g><g transform="translate(53, 376)" clip-path="url(#clip_1)"><clipPath id="clip_1"><rect width="1059" height="24"></rect></clipPath><g><g><line x1="0" y1="0" x2="0" y2="5" style="visibility: inherit;" fill="rgb(0, 0, 0)" stroke="rgb(204, 204, 204)" stroke-width="1px"></line><line x1="88.28437499999998" y1="0" x2="88.28437499999998" y2="5" style="visibility: inherit;" fill="rgb(0, 0, 0)" stroke="rgb(204, 204, 204)" stroke-width="1px"></line><line x1="176.56874999999997" y1="0" x2="176.56874999999997" y2="5" style="visibility: inherit;" fill="rgb(0, 0, 0)" stroke="rgb(204, 204, 204)" stroke-width="1px"></line><line x1="264.853125" y1="0" x2="264.853125" y2="5" style="visibility: inherit;" fill="rgb(0, 0, 0)" stroke="rgb(204, 204, 204)" stroke-width="1px"></line><line x1="353.13749999999993" y1="0" x2="353.13749999999993" y2="5" style="visibility: inherit;" fill="rgb(0, 0, 0)" stroke="rgb(204, 204, 204)" stroke-width="1px"></line><line x1="441.421875" y1="0" x2="441.421875" y2="5" style="visibility: inherit;" fill="rgb(0, 0, 0)" stroke="rgb(204, 204, 204)" stroke-width="1px"></line><line x1="529.70625" y1="0" x2="529.70625" y2="5" style="visibility: inherit;" fill="rgb(0, 0, 0)" stroke="rgb(204, 204, 204)" stroke-width="1px"></line><line x1="617.990625" y1="0" x2="617.990625" y2="5" style="visibility: inherit;" fill="rgb(0, 0, 0)" stroke="rgb(204, 204, 204)" stroke-width="1px"></line><line x1="706.2749999999999" y1="0" x2="706.2749999999999" y2="5" style="visibility: inherit;" fill="rgb(0, 0, 0)" stroke="rgb(204, 204, 204)" stroke-width="1px"></line><line x1="794.5593749999999" y1="0" x2="794.5593749999999" y2="5" style="visibility: inherit;" fill="rgb(0, 0, 0)" stroke="rgb(204, 204, 204)" stroke-width="1px"></line><line x1="882.84375" y1="0" x2="882.84375" y2="5" style="visibility: inherit;" fill="rgb(0, 0, 0)" stroke="rgb(204, 204, 204)" stroke-width="1px"></line><line x1="971.1281249999998" y1="0" x2="971.1281249999998" y2="5" style="visibility: inherit;" fill="rgb(0, 0, 0)" stroke="rgb(204, 204, 204)" stroke-width="1px"></line><line x1="1059.4125" y1="0" x2="1059.4125" y2="5" style="visibility: inherit;" fill="rgb(0, 0, 0)" stroke="rgb(204, 204, 204)" stroke-width="1px"></line></g><g transform="translate(0, 8)"><text x="0" y="0" dx="0em" dy="0.95em" style="text-anchor: middle; visibility: hidden; font-family: Roboto, sans-serif; font-size: 12px; font-weight: 200;" fill="rgb(33, 33, 33)" stroke="none" stroke-width="1px">-50k</text><text x="88.28437499999998" y="0" dx="0em" dy="0.95em" style="text-anchor: middle; visibility: inherit; font-family: Roboto, sans-serif; font-size: 12px; font-weight: 200;" fill="rgb(33, 33, 33)" stroke="none" stroke-width="1px">0</text><text x="176.56874999999997" y="0" dx="0em" dy="0.95em" style="text-anchor: middle; visibility: inherit; font-family: Roboto, sans-serif; font-size: 12px; font-weight: 200;" fill="rgb(33, 33, 33)" stroke="none" stroke-width="1px">50k</text><text x="264.853125" y="0" dx="0em" dy="0.95em" style="text-anchor: middle; visibility: inherit; font-family: Roboto, sans-serif; font-size: 12px; font-weight: 200;" fill="rgb(33, 33, 33)" stroke="none" stroke-width="1px">100k</text><text x="353.13749999999993" y="0" dx="0em" dy="0.95em" style="text-anchor: middle; visibility: inherit; font-family: Roboto, sans-serif; font-size: 12px; font-weight: 200;" fill="rgb(33, 33, 33)" stroke="none" stroke-width="1px">150k</text><text x="441.421875" y="0" dx="0em" dy="0.95em" style="text-anchor: middle; visibility: inherit; font-family: Roboto, sans-serif; font-size: 12px; font-weight: 200;" fill="rgb(33, 33, 33)" stroke="none" stroke-width="1px">200k</text><text x="529.70625" y="0" dx="0em" dy="0.95em" style="text-anchor: middle; visibility: inherit; font-family: Roboto, sans-serif; font-size: 12px; font-weight: 200;" fill="rgb(33, 33, 33)" stroke="none" stroke-width="1px">250k</text><text x="617.990625" y="0" dx="0em" dy="0.95em" style="text-anchor: middle; visibility: inherit; font-family: Roboto, sans-serif; font-size: 12px; font-weight: 200;" fill="rgb(33, 33, 33)" stroke="none" stroke-width="1px">300k</text><text x="706.2749999999999" y="0" dx="0em" dy="0.95em" style="text-anchor: middle; visibility: inherit; font-family: Roboto, sans-serif; font-size: 12px; font-weight: 200;" fill="rgb(33, 33, 33)" stroke="none" stroke-width="1px">350k</text><text x="794.5593749999999" y="0" dx="0em" dy="0.95em" style="text-anchor: middle; visibility: inherit; font-family: Roboto, sans-serif; font-size: 12px; font-weight: 200;" fill="rgb(33, 33, 33)" stroke="none" stroke-width="1px">400k</text><text x="882.84375" y="0" dx="0em" dy="0.95em" style="text-anchor: middle; visibility: inherit; font-family: Roboto, sans-serif; font-size: 12px; font-weight: 200;" fill="rgb(33, 33, 33)" stroke="none" stroke-width="1px">450k</text><text x="971.1281249999998" y="0" dx="0em" dy="0.95em" style="text-anchor: middle; visibility: inherit; font-family: Roboto, sans-serif; font-size: 12px; font-weight: 200;" fill="rgb(33, 33, 33)" stroke="none" stroke-width="1px">500k</text><text x="1059.4125" y="0" dx="0em" dy="0.95em" style="text-anchor: middle; visibility: hidden; font-family: Roboto, sans-serif; font-size: 12px; font-weight: 200;" fill="rgb(33, 33, 33)" stroke="none" stroke-width="1px">550k</text></g><line x1="0" y1="0" x2="1059.4125" y2="0" fill="rgb(0, 0, 0)" stroke="rgb(204, 204, 204)" stroke-width="1px"></line></g></g></g></g></svg>