<svg viewBox="0 0 1081.4000244140625 400" xmlns="http://www.w3.org/2000/svg"><g><g><g><g><g><line x1="63.984375" y1="376" x2="58.984375" y2="376" style="visibility: inherit;" fill="rgb(0, 0, 0)" stroke="rgb(204, 204, 204)" stroke-width="1px"></line><line x1="63.984375" y1="347.07692307692304" x2="58.984375" y2="347.07692307692304" style="visibility: inherit;" fill="rgb(0, 0, 0)" stroke="rgb(204, 204, 204)" stroke-width="1px"></line><line x1="63.984375" y1="318.15384615384613" x2="58.984375" y2="318.15384615384613" style="visibility: inherit;" fill="rgb(0, 0, 0)" stroke="rgb(204, 204, 204)" stroke-width="1px"></line><line x1="63.984375" y1="289.2307692307692" x2="58.984375" y2="289.2307692307692" style="visibility: inherit;" fill="rgb(0, 0, 0)" stroke="rgb(204, 204, 204)" stroke-width="1px"></line><line x1="63.984375" y1="260.3076923076923" x2="58.984375" y2="260.3076923076923" style="visibility: inherit;" fill="rgb(0, 0, 0)" stroke="rgb(204, 204, 204)" stroke-width="1px"></line><line x1="63.984375" y1="231.3846153846154" x2="58.984375" y2="231.3846153846154" style="visibility: inherit;" fill="rgb(0, 0, 0)" stroke="rgb(204, 204, 204)" stroke-width="1px"></line><line x1="63.984375" y1="202.4615384615384" x2="58.984375" y2="202.4615384615384" style="visibility: inherit;" fill="rgb(0, 0, 0)" stroke="rgb(204, 204, 204)" stroke-width="1px"></line><line x1="63.984375" y1="173.5384615384616" x2="58.984375" y2="173.5384615384616" style="visibility: inherit;" fill="rgb(0, 0, 0)" stroke="rgb(204, 204, 204)" stroke-width="1px"></line><line x1="63.984375" y1="144.61538461538464" x2="58.984375" y2="144.61538461538464" style="visibility: inherit;" fill="rgb(0, 0, 0)" stroke="rgb(204, 204, 204)" stroke-width="1px"></line><line x1="63.984375" y1="115.6923076923077" x2="58.984375" y2="115.6923076923077" style="visibility: inherit;" fill="rgb(0, 0, 0)" stroke="rgb(204, 204, 204)" stroke-width="1px"></line><line x1="63.984375" y1="86.76923076923076" x2="58.984375" y2="86.76923076923076" style="visibility: inherit;" fill="rgb(0, 0, 0)" stroke="rgb(204, 204, 204)" stroke-width="1px"></line><line x1="63.984375" y1="57.84615384615389" x2="58.984375" y2="57.84615384615389" style="visibility: inherit;" fill="rgb(0, 0, 0)" stroke="rgb(204, 204, 204)" stroke-width="1px"></line><line x1="63.984375" y1="28.923076923076945" x2="58.984375" y2="28.923076923076945" style="visibility: inherit;" fill="rgb(0, 0, 0)" stroke="rgb(204, 204, 204)" stroke-width="1px"></line><line x1="63.984375" y1="0" x2="58.984375" y2="0" style="visibility: inherit;" fill="rgb(0, 0, 0)" stroke="rgb(204, 204, 204)" stroke-width="1px"></line></g><g transform="translate(53.984375, 0)"><text x="0" y="376" dx="0em" dy="0.3em" style="text-anchor: end; visibility: hidden; font-family: Roboto, sans-serif; font-size: 12px; font-weight: 200;" fill="rgb(255, 255, 255)" stroke="none" stroke-width="1px">0.011</text><text x="0" y="347.07692307692304" dx="0em" dy="0.3em" style="text-anchor: end; visibility: inherit; font-family: Roboto, sans-serif; font-size: 12px; font-weight: 200;" fill="rgb(255, 255, 255)" stroke="none" stroke-width="1px">0.012</text><text x="0" y="318.15384615384613" dx="0em" dy="0.3em" style="text-anchor: end; visibility: inherit; font-family: Roboto, sans-serif; font-size: 12px; font-weight: 200;" fill="rgb(255, 255, 255)" stroke="none" stroke-width="1px">0.013</text><text x="0" y="289.2307692307692" dx="0em" dy="0.3em" style="text-anchor: end; visibility: inherit; font-family: Roboto, sans-serif; font-size: 12px; font-weight: 200;" fill="rgb(255, 255, 255)" stroke="none" stroke-width="1px">0.014</text><text x="0" y="260.3076923076923" dx="0em" dy="0.3em" style="text-anchor: end; visibility: inherit; font-family: Roboto, sans-serif; font-size: 12px; font-weight: 200;" fill="rgb(255, 255, 255)" stroke="none" stroke-width="1px">0.015</text><text x="0" y="231.3846153846154" dx="0em" dy="0.3em" style="text-anchor: end; visibility: inherit; font-family: Roboto, sans-serif; font-size: 12px; font-weight: 200;" fill="rgb(255, 255, 255)" stroke="none" stroke-width="1px">0.016</text><text x="0" y="202.4615384615384" dx="0em" dy="0.3em" style="text-anchor: end; visibility: inherit; font-family: Roboto, sans-serif; font-size: 12px; font-weight: 200;" fill="rgb(255, 255, 255)" stroke="none" stroke-width="1px">0.017</text><text x="0" y="173.5384615384616" dx="0em" dy="0.3em" style="text-anchor: end; visibility: inherit; font-family: Roboto, sans-serif; font-size: 12px; font-weight: 200;" fill="rgb(255, 255, 255)" stroke="none" stroke-width="1px">0.018</text><text x="0" y="144.61538461538464" dx="0em" dy="0.3em" style="text-anchor: end; visibility: inherit; font-family: Roboto, sans-serif; font-size: 12px; font-weight: 200;" fill="rgb(255, 255, 255)" stroke="none" stroke-width="1px">0.019</text><text x="0" y="115.6923076923077" dx="0em" dy="0.3em" style="text-anchor: end; visibility: inherit; font-family: Roboto, sans-serif; font-size: 12px; font-weight: 200;" fill="rgb(255, 255, 255)" stroke="none" stroke-width="1px">0.02</text><text x="0" y="86.76923076923076" dx="0em" dy="0.3em" style="text-anchor: end; visibility: inherit; font-family: Roboto, sans-serif; font-size: 12px; font-weight: 200;" fill="rgb(255, 255, 255)" stroke="none" stroke-width="1px">0.021</text><text x="0" y="57.84615384615389" dx="0em" dy="0.3em" style="text-anchor: end; visibility: inherit; font-family: Roboto, sans-serif; font-size: 12px; font-weight: 200;" fill="rgb(255, 255, 255)" stroke="none" stroke-width="1px">0.022</text><text x="0" y="28.923076923076945" dx="0em" dy="0.3em" style="text-anchor: end; visibility: inherit; font-family: Roboto, sans-serif; font-size: 12px; font-weight: 200;" fill="rgb(255, 255, 255)" stroke="none" stroke-width="1px">0.023</text><text x="0" y="0" dx="0em" dy="0.3em" style="text-anchor: end; visibility: hidden; font-family: Roboto, sans-serif; font-size: 12px; font-weight: 200;" fill="rgb(255, 255, 255)" stroke="none" stroke-width="1px">0.024</text></g><line x1="63.984375" y1="0" x2="63.984375" y2="376" fill="rgb(0, 0, 0)" stroke="rgb(204, 204, 204)" stroke-width="1px"></line></g></g><g transform="translate(63, 0)" clip-path="url(#clip_0)"><clipPath id="clip_0"><rect width="1017" height="376"></rect></clipPath><g><g><g><line x1="0" y1="0" x2="0" y2="376" fill="rgb(0, 0, 0)" stroke="rgb(189, 189, 189)" stroke-width="1px" opacity="0.25"></line><line x1="72.67254464285715" y1="0" x2="72.67254464285715" y2="376" fill="rgb(0, 0, 0)" stroke="rgb(189, 189, 189)" stroke-width="1px" opacity="0.25"></line><line x1="145.3450892857143" y1="0" x2="145.3450892857143" y2="376" fill="rgb(0, 0, 0)" stroke="rgb(189, 189, 189)" stroke-width="1px" opacity="0.25"></line><line x1="218.01763392857143" y1="0" x2="218.01763392857143" y2="376" fill="rgb(0, 0, 0)" stroke="rgb(189, 189, 189)" stroke-width="1px" opacity="0.25"></line><line x1="290.6901785714286" y1="0" x2="290.6901785714286" y2="376" fill="rgb(0, 0, 0)" stroke="rgb(189, 189, 189)" stroke-width="1px" opacity="0.25"></line><line x1="363.3627232142858" y1="0" x2="363.3627232142858" y2="376" fill="rgb(0, 0, 0)" stroke="rgb(189, 189, 189)" stroke-width="1px" opacity="0.25"></line><line x1="436.03526785714286" y1="0" x2="436.03526785714286" y2="376" fill="rgb(0, 0, 0)" stroke="rgb(189, 189, 189)" stroke-width="1px" opacity="0.25"></line><line x1="508.70781250000005" y1="0" x2="508.70781250000005" y2="376" fill="rgb(0, 0, 0)" stroke="rgb(189, 189, 189)" stroke-width="1px" opacity="0.25"></line><line x1="581.3803571428572" y1="0" x2="581.3803571428572" y2="376" fill="rgb(0, 0, 0)" stroke="rgb(189, 189, 189)" stroke-width="1px" opacity="0.25"></line><line x1="654.0529017857144" y1="0" x2="654.0529017857144" y2="376" fill="rgb(0, 0, 0)" stroke="rgb(189, 189, 189)" stroke-width="1px" opacity="0.25"></line><line x1="726.7254464285716" y1="0" x2="726.7254464285716" y2="376" fill="rgb(0, 0, 0)" stroke="rgb(189, 189, 189)" stroke-width="1px" opacity="0.25"></line><line x1="799.3979910714286" y1="0" x2="799.3979910714286" y2="376" fill="rgb(0, 0, 0)" stroke="rgb(189, 189, 189)" stroke-width="1px" opacity="0.25"></line><line x1="872.0705357142857" y1="0" x2="872.0705357142857" y2="376" fill="rgb(0, 0, 0)" stroke="rgb(189, 189, 189)" stroke-width="1px" opacity="0.25"></line><line x1="944.743080357143" y1="0" x2="944.743080357143" y2="376" fill="rgb(0, 0, 0)" stroke="rgb(189, 189, 189)" stroke-width="1px" opacity="0.25"></line><line x1="1017.4156250000001" y1="0" x2="1017.4156250000001" y2="376" fill="rgb(0, 0, 0)" stroke="rgb(189, 189, 189)" stroke-width="1px" opacity="0.25"></line></g><g><line x1="0" y1="376" x2="1017.4156250000001" y2="376" fill="rgb(0, 0, 0)" stroke="rgb(189, 189, 189)" stroke-width="1px" opacity="0.25"></line><line x1="0" y1="347.07692307692304" x2="1017.4156250000001" y2="347.07692307692304" fill="rgb(0, 0, 0)" stroke="rgb(189, 189, 189)" stroke-width="1px" opacity="0.25"></line><line x1="0" y1="318.15384615384613" x2="1017.4156250000001" y2="318.15384615384613" fill="rgb(0, 0, 0)" stroke="rgb(189, 189, 189)" stroke-width="1px" opacity="0.25"></line><line x1="0" y1="289.2307692307692" x2="1017.4156250000001" y2="289.2307692307692" fill="rgb(0, 0, 0)" stroke="rgb(189, 189, 189)" stroke-width="1px" opacity="0.25"></line><line x1="0" y1="260.3076923076923" x2="1017.4156250000001" y2="260.3076923076923" fill="rgb(0, 0, 0)" stroke="rgb(189, 189, 189)" stroke-width="1px" opacity="0.25"></line><line x1="0" y1="231.3846153846154" x2="1017.4156250000001" y2="231.3846153846154" fill="rgb(0, 0, 0)" stroke="rgb(189, 189, 189)" stroke-width="1px" opacity="0.25"></line><line x1="0" y1="202.4615384615384" x2="1017.4156250000001" y2="202.4615384615384" fill="rgb(0, 0, 0)" stroke="rgb(189, 189, 189)" stroke-width="1px" opacity="0.25"></line><line x1="0" y1="173.5384615384616" x2="1017.4156250000001" y2="173.5384615384616" fill="rgb(0, 0, 0)" stroke="rgb(189, 189, 189)" stroke-width="1px" opacity="0.25"></line><line x1="0" y1="144.61538461538464" x2="1017.4156250000001" y2="144.61538461538464" fill="rgb(0, 0, 0)" stroke="rgb(189, 189, 189)" stroke-width="1px" opacity="0.25"></line><line x1="0" y1="115.6923076923077" x2="1017.4156250000001" y2="115.6923076923077" fill="rgb(0, 0, 0)" stroke="rgb(189, 189, 189)" stroke-width="1px" opacity="0.25"></line><line x1="0" y1="86.76923076923076" x2="1017.4156250000001" y2="86.76923076923076" fill="rgb(0, 0, 0)" stroke="rgb(189, 189, 189)" stroke-width="1px" opacity="0.25"></line><line x1="0" y1="57.84615384615389" x2="1017.4156250000001" y2="57.84615384615389" fill="rgb(0, 0, 0)" stroke="rgb(189, 189, 189)" stroke-width="1px" opacity="0.25"></line><line x1="0" y1="28.923076923076945" x2="1017.4156250000001" y2="28.923076923076945" fill="rgb(0, 0, 0)" stroke="rgb(189, 189, 189)" stroke-width="1px" opacity="0.25"></line><line x1="0" y1="0" x2="1017.4156250000001" y2="0" fill="rgb(0, 0, 0)" stroke="rgb(189, 189, 189)" stroke-width="1px" opacity="0.25"></line></g></g></g><g><g><line x1="0" y1="694.1538461538461" x2="1017.4156250000001" y2="694.1538461538461" fill="rgb(0, 0, 0)" stroke="rgb(153, 153, 153)" stroke-width="1.5px"></line></g></g><g><g><line x1="72.67254464285715" y1="0" x2="72.67254464285715" y2="376" fill="rgb(0, 0, 0)" stroke="rgb(153, 153, 153)" stroke-width="1.5px"></line></g></g><g><g><g><g><g><path stroke="rgb(255, 112, 67)" stroke-width="2px" d="M73.88617613839287,-72.90878950861769L74.33674591517858,23.555563656089937L74.3730821875,-162.33071935918525L74.65650511160715,43.63377041584258L76.11722325892858,56.29208448243304L76.56779303571429,94.68783994465842L76.88028497767857,197.01249471042382L76.93115575892858,28.658438485118673L77.2799839732143,109.87097169598886L77.37445828125001,133.7089577369279L77.86136433035715,193.18546362037793L78.54448625,144.4225719281645L80.04154066964287,272.43912720354103L82.35979484375,331.7231763159522L82.38886386160715,289.2443975585836L82.73769207589287,231.98502439716964L82.78856285714286,34.259194856468696L83.10832205357144,177.1239494501853L84.9614719419643,237.3318085405106L85.27396388392859,271.8512464225237L85.29576564732145,306.4183140650794L86.31318127232144,206.52711804536102L86.60387145089287,249.53526905562595L87.46867473214287,-4.176640511081512L88.65323720982144,75.51548069535035L89.43810069196428,161.2527074907392L90.03401555803572,95.49171923784822L90.73167198660715,68.18908837417963L90.73893924107144,169.39694632300956L90.82614629464287,216.06309348635838L92.1851228794643,281.4038550962629L94.75046370535715,329.5865531373133L96.1457765625,200.91502873918589L96.26205263392859,72.71369605978978L96.69082064732143,-45.42762403091871L98.96547129464287,-101.86106184947279L98.98000580357143,0.1713251629974648L99.34336852678572,-0.1604544396016081L99.85934359375001,-37.95972774575745L100.38985316964288,161.96114836003423L100.44072395089286,165.60973294518917L101.42180330357144,176.33792993014075L104.04528216517858,226.45436838523324L104.6484642857143,188.54598459176427L105.31705169642858,207.7940207600855L105.44059502232145,261.7344429790224L106.65422651785715,234.76304041678222L107.46815901785716,176.21374647875408L108.79806658482144,209.13202144107328L109.98262906250001,178.67279980819595L111.5160197544643,122.65326237714284L111.61776131696429,128.5662120417862L114.26304194196429,199.5596144267487L114.88075857142859,248.53667259811482L115.28772482142858,300.8981902158405L115.60021676339287,331.4984442519748L116.20339888392859,350.4356780696805L117.72952232142858,249.32192463706937L117.86760015625,201.32812941230168L118.37630796875001,158.43591269623144L120.44747549107144,119.52876633590013L121.35588229910715,168.53612723552868L121.44308935267858,185.3758809886749L122.48230674107144,92.29595480786297L123.29623924107143,80.44922992612072L124.66975033482144,236.32891871439836L126.31941709821429,76.25622813921531L126.88626294642857,114.98072430779277L126.90806470982143,144.54160637340476L127.25689292410715,17.23418571529928L129.34259495535716,132.97006324149817L129.59694886160716,78.02946824010951L130.7451750669643,213.31626896321674L131.29021915178575,258.75026819860875L132.1186861607143,344.03005030376505L132.41664359375,-46.04583292644921L133.44859372767857,67.1903361326263L134.42967308035716,-7.198587855946652L134.50234562500003,77.20793586252876L135.17820029017858,237.47488244342057L137.19122977678575,288.689666173813L137.60546328125002,194.1059776785486L138.02696404017857,250.04460447546458L139.96732098214287,157.23144786711651L141.4789099107143,185.1305062216197L142.1038937946429,216.97313076689503L142.19836810267856,17.49182529616845L143.1503784375,122.15156691431557L144.20413033482146,191.0211992351248L144.66923462053575,201.92633156934363L147.35085151785714,143.14425809588195L147.40172229910718,185.75825711409868L148.24472381696432,188.57709270264925L148.82610417410714,238.13909469022235L149.13859611607145,205.38098493432108L149.75631274553575,251.4754713341807L151.01354776785718,264.83796937441724L151.9001528125,347.5951374619221L151.92195457589287,345.58192696588407L152.3652570982143,157.9897578952052L152.42339513392858,23.87538766294903L152.75768883928572,163.59105753742378L153.35360370535716,200.0167444843308L155.65732337053575,331.88817411696596L156.04248785714287,194.8462148659339L156.478523125,27.600881391249473L156.72560977678575,144.1417060217156L157.59041305803572,152.8860479986283L158.12818988839288,236.48739653707915L159.65431332589287,187.23410189539558L159.6906495982143,247.94630105728126L161.07142794642857,319.51340500054215L161.9871020089286,146.03505261218874L164.75592595982144,117.81144013459507L166.2529803794643,139.2875190202618L167.39393933035717,205.09653736405616L167.59015520089287,180.68272818798724L171.11477361607146,-34.453906883747L171.48540359375002,139.7875173665305L171.6525504464286,100.66979061045954L173.03332879464287,152.00626796585925L174.9954875,153.04890322471297L176.0201703794643,91.39080980979492L176.55067995535714,83.60597608195826L176.87043915178572,268.40356164996075L177.66256988839288,275.78956438748435L179.05061549107143,207.45240767801232L179.268633125,259.0436042712549L179.40671095982145,239.04011383131584L180.07529837053573,120.50557653912242L180.29331600446432,144.48158443272487L180.7584202901786,142.23111741355055L180.89649812500002,130.41650546511457L185.11877296875002,231.54469570011622L185.36585962053576,178.79138536745737L187.0591299107143,235.26997183535082L187.23354401785716,319.4932125293551L189.79161758928575,108.65770598229719L190.75816243303575,109.70573168337366L191.2814047544643,189.05956253336956L194.8278249330357,289.8754385343204L195.17665314732145,286.4942214470786L196.69550933035717,307.31808256260183L196.92079421875002,298.37939426576685L198.51959020089288,278.3639877780505L198.67946979910718,310.07072568065826L200.16198970982146,216.0668707158243L200.26373127232145,301.4776103545106L200.4744816517857,110.20744800858961L206.7606567633929,97.91968062282182L211.5933809821429,172.09410899780693L211.97854546875,184.81077083107715L214.60929158482145,152.68762937052412L215.40142232142858,288.38512892320693L215.50316388392858,337.6224921154674L216.0627424776786,298.89750293447446L216.89847674107145,202.22477238279137L217.98129765625,220.87627846815042L218.4027984151786,214.099143707125L218.46820370535718,264.40322029057796L219.02051504464285,280.3616695188685L219.79084401785715,265.23377857383235L219.84898205357146,-26.55006672827559L220.36495712053573,99.37103381498683L221.21522589285715,232.0860097113354L221.93468408482147,337.2685040397843L221.94195133928574,219.83501133242115L222.2181070089286,143.62496153939014L223.67882515625,154.6710743122684L223.70062691964287,173.09919939854535L224.05672238839287,191.45566547808474L224.23113649553574,255.70366885096598L225.86626875000002,292.63855224013327L226.3313730357143,206.42536530269106L226.97089142857143,138.32053412742246L227.6031425669643,64.13978569448398L228.1263848883929,225.48074963534123L229.0856624776786,274.76589289673257L231.44752017857147,297.07407563089646L234.33262020089288,327.98538008794014L234.6741811607143,317.1560163355986L234.95033683035717,343.2616060025075L235.15381995535716,372.37780148802136L235.98228696428575,250.3299267710324L238.65663660714287,211.67406551963543L240.82227843750002,92.77110521795373L240.8949509821429,234.23411417852287L241.21471017857147,326.2600939232825L241.4036587946429,245.1910019079692L241.8978320982143,201.15525078625868L242.44287618303574,246.6463911579517L242.9225149776786,319.97524159781784L243.74371473214288,241.2157162726954L244.68845781250002,265.28572731161785L244.76839761160716,285.70757679952146L244.91374270089287,231.03607461203447L246.6360820089286,260.75952611773795L248.1549381919643,327.78004841039944L249.13601754464287,196.9866556407831L249.15055205357146,233.5167823198377L249.4267077232143,303.5366220984009L249.5938545758929,286.9467446981527L251.59961680803573,250.01909274652624L252.31180774553576,299.30379708929036L252.36994578125,340.2238763755107L253.63444805803573,310.31990775517346L253.87426745535717,347.824059639377L254.41204428571433,350.6281301444326L256.1925216294643,301.8337877872L256.7666347321429,245.39176442655838L257.1954027455358,271.78273080662024L260.25491687500005,261.1904004268356L260.50927078125,289.4862192927993L261.0470476116072,303.3361748932396L262.1007995089286,291.50678438691784L262.74758515625,220.30053465720795L263.8231388169643,287.74021076011576L265.03677031250004,248.72392178729078L267.41316252232144,209.60890175334023L267.42042977678574,203.16016523407433L267.64571466517856,226.54864800194818L269.9203653125,235.7161158299716L270.00757236607143,279.73518236459006L270.0366413839286,243.8158515635588L270.0439086383929,313.76468415290094L270.87964290178576,346.9719984503846L272.55837868303576,134.3259148984661L273.27056962053575,231.02927439517075L273.3941129464286,310.53250100355046L273.52492352678576,258.4814262371013L274.88390011160715,212.64323816551493L275.54522026785713,149.0969972757644L275.92311750000005,93.2314693649269L279.3387270982143,223.17346687479906L279.43320140625,147.05882693975403L280.1017888169643,203.5689203415651L280.3125391964286,174.05076899788193L283.2049064732143,266.67646410767776L283.39385508928575,221.9344385271619L283.8734938839286,229.24844657031184L284.8836422544643,222.13099543242154L285.33421203125,288.9249325293075L286.8458009598215,149.53313965096396L286.96207703125003,250.7132323046951L287.49985386160716,17.582913924114454L287.8632165848215,8.273399624234639L289.44747805803576,76.88142314090543L290.72651484375,-54.354618308661266L290.91546345982147,74.08257210390693L291.35876598214287,148.67163265199846L291.9546808482143,193.63352682676134L292.45612140625,223.55931771733248L293.06657078125,273.8799119381687L294.02584837053575,136.49749164696635L294.1057881696429,223.86438411011568L295.13773830357144,264.31116078264233L295.8208602232143,179.2556876024683L295.92260178571433,137.56131950091415L300.90793834821426,160.0543180043533L301.17682676339285,213.41590500682798L303.0154421428572,209.33407185377192L304.35261696428574,303.405630830948L304.7595832142858,243.44266444592833L304.82498850446433,315.0749039686364L305.25375651785714,275.59424129851203L306.48918977678574,282.3193337717689L306.72900917410715,282.62210274745627L308.3859431919643,132.56979893772646L309.16353941964286,227.29555257498063L309.99927368303577,233.50616513967734L310.7623354017857,219.22271003477522L311.7216129910714,310.48485241852615L311.77975102678573,40.554060646566704L312.73902861607144,213.6709447444745L313.5965646428572,302.6876752112301L313.79278051339287,303.97537571898744L313.80731502232146,330.6608136485409L314.46136792410715,242.56901255697053L314.97007573660716,37.42958710049229L315.2171623883929,70.70864604386473L315.42064551339286,140.99767827077378L317.7825032142857,237.53283529835832L317.8479085044643,333.1296493950498L317.9351155580357,241.27798735205548L318.07319339285715,247.89413062625425L318.19673671875,270.99713727080496L318.58916845982145,253.44737048844536L318.6763755133929,314.68037643006244L318.85805687500005,267.40393186973625L319.12694529017864,261.9726195361854L319.8827397544643,269.57645013307757L320.02081758928574,266.8818144444676L320.78387930803575,315.2022860755034L322.3899425446429,290.9478389465974L322.5425548883929,42.23573407656488L323.5745050223215,103.04483007955776L324.11228185267856,174.0638236570298L325.4494566741071,235.0230658897217L329.44644662946433,189.46311683210013L329.5990589732143,286.8519362466975L329.65719700892856,313.3816957480484L329.7662058258929,363.88126104468597L330.53653479910713,422.73431083244924L331.1905877008929,314.5558304625644L332.62950408482146,326.8159859230547L332.6803748660714,188.09899596368152L333.1963499330357,-91.57294193600993L333.9521443973215,105.49988043306423L334.0756877232143,81.06522777079437L334.56259377232146,55.98117753871847L336.0814499553572,143.64420002291354L336.2922003348214,233.7328667221926L338.8648084151786,219.6416957824047L339.08282604910715,288.2800855133717L339.86768953125005,273.57320797543895L340.2455867633929,161.4905482499944L340.4708716517857,277.738678415L340.88510515625006,323.37124534900073L343.02894522321435,318.4735226108093L344.8675606026786,157.59507321740557L345.11464725446433,171.64828056579822L347.1131422321429,178.06477844913098L347.9270747321429,298.88710654175776L350.22352714285717,231.15520308987652L352.0185389955358,289.441748276808L352.1348150669643,222.02345256443007L354.0606375,218.19304620011837L354.9327080357143,283.32871210950816L355.9573909151786,143.02366096098444L356.13180502232143,204.0566411266648L358.2465760714286,220.30304995889384L361.1970813839286,228.11911261828766L361.4005645089286,243.40517959859568L361.77119448660716,150.9256757590706L362.4761181696429,38.192886748753864L362.7014030580358,70.27456804720065L362.73773933035716,172.99132879692664L363.50806830357146,228.3222992170492L365.5138305357143,82.94492418918388L366.9963504464286,230.21585146078417L368.0646368526786,254.9692529574524L368.1809129241072,174.0709495973651L368.2099819419643,153.4967594661017L368.4498013392858,178.76242824118918L368.59514642857147,274.2966001750784L369.12565600446436,120.59560411427033L370.92066785714286,208.93688919374446L372.40318776785716,204.40785505449693L372.5994036383929,286.52441669931187L373.1081114508929,255.55396489849102L374.54702783482145,298.12278729179974L374.66330390625006,93.2104787897574L377.9917064508929,120.84803349847788L378.87104424107144,177.79805591838976L379.67044223214293,171.95515313551363L381.16749665178577,186.85100168469864L381.2983072321429,308.1172499346197L382.82443066964294,161.56802079465294L385.0264087723214,159.90736266925788L387.18478334821435,57.652884303795915L388.9289244196429,244.55036928518365L389.1832783258929,172.04596834431646L389.5757100669643,287.58231232609074L389.80826220982146,310.7922885631572L390.33150453125,295.6741821453922L390.52772040178576,306.0544814307753L390.5567894196429,270.108892307421L391.01462645089293,154.34341735906904L392.3808702901786,254.39135988422422L392.96225064732147,280.7481548484868L393.88519196428575,207.42562674768698L393.9360627455357,192.36992054661562L394.25582194196437,285.7572766593996L394.64098642857147,254.31721391803822L396.6830849330358,265.86058942576943L398.26007915178576,190.23842831818382L398.3618207142857,211.16319555538678L399.43737437500005,292.99926395437865L400.45479000000006,334.97705986586107L401.9518444196429,288.147278397051L402.0172497098215,276.9970420852981L402.4024141964286,325.5484557322533L403.38349354910713,310.2071546767048L404.4808489732143,176.10120358788316L407.20606939732147,222.4788933127676L407.62030290178575,268.39646317538944L408.19441600446436,265.32305308016686L408.4560371651786,198.59737254006276L409.27723691964286,320.7634860482096L409.3935129910715,219.5976694651825L409.96762609375,151.14594393770952L410.5926099776786,298.6973553233026L415.9849127901786,217.03277392994812L416.4209480580357,216.447662145151L416.56629314732146,205.1212846386109L417.78719189732146,154.91963644449413L418.48484832589287,103.92676664825528L418.8700128125,-11.84278172223795L419.0952977008929,57.35089090714205L419.3569188616072,73.23911645331816L419.6403417857143,125.33837460286107L420.6432229017858,177.8505662186728L421.11559444196433,-13.213768730029546L421.2827412946429,163.62147792838877L422.0530702678572,182.81872968335213L422.81613198660716,243.1961217485806L423.15042569196436,179.51958417946668L425.29426575892865,166.03482056430178L427.6343216964286,302.47250519808694L428.63720281250005,337.234557559864L430.7447066071429,317.6788086588608L431.1371383482143,316.0410567303829L431.31881970982147,322.4117084097143L432.23449377232146,354.9413102515229L432.8231413839286,327.84851332361853L433.26644390625006,328.44321542250174L436.07887138392863,305.4240757265787L436.4422341071429,334.7836978440482L437.11808877232147,316.48423253235893L437.2343648437501,143.04409965166212L437.4523824776786,218.32760632577026L437.9828920535715,115.16861260994227L440.6063709151786,175.20367666841997L441.9871492633929,35.30161476038916L443.14990997767865,68.4856728327913L444.27633441964286,96.64604753973103L444.95218908482144,48.463127115775144L445.3518880803572,129.66134349439315L445.78792334821435,111.42175350516528L448.7529631696429,84.66616966957467L449.1017913839286,84.225533016943L449.1599294196429,190.8266503659349L450.2354830803572,289.43682469412454L450.57704404017863,158.85767413254052L451.05668283482146,204.7407701317994L452.29211609375005,83.48358431577164L452.69181508928574,128.5484793573862L453.13511761160714,164.6063886691662L454.27607656250007,215.37379433340254L454.40688714285716,308.14916966564084L455.5260443303572,385.194442250493L456.39811486607147,220.151803946317L457.1539093303572,316.5252554455936L457.3937287276786,246.9831448248442L458.50561866071433,252.91004690971928L458.61462747767865,291.58282858170475L461.23810633928576,273.30875204273656L462.9677129017858,230.83040815935303L463.01858368303573,197.73091392631488L463.0476527008929,280.62727311753173L463.07672171875004,71.46814791493148L464.10140459821434,136.9279898137876L464.4211637946429,235.2996524650472L465.62752803571436,300.9334800693715L465.7365368526786,194.95075596430306L465.8891491964286,187.11742677402466L465.9981580133929,238.47818405419838L466.8556940401786,246.8680565810539L470.1259585491072,273.925416295035L470.9689600669643,208.4985316476429L471.9137031473215,204.27476168804745L472.24072959821433,107.33362947552652L473.7741202901786,78.14483854699142L474.54444926339295,75.55995579493245L474.5662510267858,-13.832397056030116L474.7551996428572,-26.616147891433876L474.98048453125006,86.72269696433845L476.3176593526786,157.45596446611032L476.37579738839287,134.6616457931024L477.55309261160716,245.45548543111036L477.93825709821436,254.8478594826194L480.3001147991072,325.46441184504636L481.8480400000001,235.38693844690212L482.0878593973215,321.57151378502556L483.32329265625003,284.59764120259257L483.42503421875006,281.7263924161374L484.0572853571429,310.22210063217756L485.35812390625,201.8252517525154L485.5979433035715,301.8352662062158L486.8987818526786,354.86473047990813L489.0789581919643,374.96471198309837L489.12256171875003,402.1237744876155L492.4291625,396.9048345954124L496.3171436383929,351.64074474537256L497.37089553571434,300.0681673552121L498.2138970535715,300.06352777413144L498.83161368303576,192.45555173099552L499.39845953125007,209.87711730169642L499.59467540178576,230.9417645332336L499.7182187276786,194.96760568326505L501.65857566964286,278.95141296798226L503.35911321428574,330.3272255236301L503.7006741741072,220.0729963287349L504.58001196428575,192.98873679436292L506.09160089285723,317.65016826838786L506.30961852678575,311.9906490138205L506.7965245758929,383.0561834563815L510.00865104910724,353.1009832137825L510.0522545758929,251.7857762578911L510.2121341741072,231.4032537884401L510.8661870758929,292.30059534086416L512.1597583705358,188.75717029344906L516.8616720089286,217.51344571014295L517.4648541294642,321.16046790411866L517.9808291964287,266.82365991046817L519.158124419643,124.22629891992536L519.8557808482144,155.1698404207102L520.9168000000001,229.89839005060162L524.2524697991072,108.14165962413335L524.83385015625,44.25530586828634L526.9922247321429,118.95302907341632L527.2175096205358,190.83502311902814L527.27564765625,183.26425881943726L529.5939018303573,142.34801257981752L530.68399,100.10295527042825L532.1083718750001,40.937910242816265L533.1112529910715,122.59551122973639L533.6199608035715,255.33937710682866L533.6272280580357,254.97762084561316L534.2376774330357,292.2852204869575L535.385903638393,155.26224759814835L536.7957510044643,251.52872038564774L537.6896233035716,4.7550399307388584L538.489021294643,221.97684743428107L539.4119626116071,256.79809612288403L541.4903973883929,300.9429189541277L541.5630699330358,324.4007791111945L542.7694341741072,338.3565965477825L544.2374195758929,270.1759337232416L545.0440848214286,288.2886034185922L545.4365165625001,285.06833589424565L546.8245621651787,246.1102821866129L547.166123125,314.27709420512684L547.7693052455357,395.3465784127333L548.3143493303572,226.6756246298673L548.53963421875,313.0103696819983L549.4117047544644,258.05447705103313L549.7169294419643,243.32571691443076L550.1965682366072,201.14738088213664L551.6354846205357,154.97563122498192L552.6674347544644,173.7959076075525L554.4769811160714,250.89533962659658L557.0132529241073,245.01212451461834L558.0306685491072,171.73405560752533L559.2006965178572,283.1471586152729L559.4041796428572,48.342251707144015L559.7312060937501,106.30328923176603L562.7761857142858,199.24046963097564L563.0232723660714,148.6320090024952L563.3066952901786,185.24735737800918L568.7571361383929,180.30829710799185L568.8879467187501,193.79515556898954L569.5928704017858,264.91866531064613L569.9635003794643,208.6192227433171L570.5666825000001,233.89998452017218L571.1335283482143,34.49753459872815L573.5971276116072,142.75948162792562L574.0258956250001,146.0755559861383L575.3558031919644,-97.12337675747334L575.4575447544644,162.4546976439119L577.4197034598214,303.626484750672L577.5723158035714,167.95002769445128L578.9240251339286,127.83539996660292L579.3382586383929,70.00002948848788L579.9123717410715,199.2089840931659L580.762640513393,67.23348903985463L584.7378287053573,244.78084314067152L584.96311359375,296.05670998765265L585.5953647321429,156.85879163079633L586.1476760714286,152.15572502692444L588.0298949776786,181.08589280579585L588.6185425892858,319.21912730296907L590.9295295089287,327.6734646665527L591.7579965178571,176.47347233936034L592.6736705803571,252.08890630886324L592.8626191964287,261.8249339594794L593.7056207142857,304.92168595766367L594.8247779017858,249.94662212907326L595.2317441517858,283.5139195435449L595.6023741294644,294.0690082204876L595.7622537276786,159.85752334137598L596.002073125,291.57653999109357L596.1837544866072,141.936982094843L597.3465152008929,130.3766688390322L597.9133610491072,121.3162515827725L598.0732406473214,212.97954086658228L598.08777515625,184.72146349253993L598.8290351116071,141.25399423486246L598.850836875,-78.07857946111542L599.9699940625001,100.57604437323762L601.1690910491072,227.42104822135005L602.25917921875,314.2369999585557L603.2475258258929,367.3249749352112L604.4829590848216,404.20863310981014L608.9159843080358,401.11472155745577L608.9523205803572,306.0223639172979L609.2938815401786,310.9442995865285L609.7299168080358,295.2446374206763L609.8970636607144,251.3884163884809L610.5293147991073,233.28385222164658L611.8083515848215,156.5954551434068L611.8592223660715,178.42231678486843L616.7355501116073,248.38391752140927L616.9971712723215,327.9250421341858L618.7340450892857,340.64911984671L618.9593299776786,172.1813046558522L621.1249718080358,160.52178007231169L621.2557823883928,225.48685153642893L621.8371627455357,168.78771900220772L622.2877325223214,277.5854497158036L622.781905825893,231.4993493861674L624.4606416071429,283.02311880766126L625.3908501785714,153.2185685267467L625.7033421205357,292.85278687016523L626.5681454017857,362.5991980547046L628.1160706026786,361.8335180451611L628.4867005803571,427.21331778495045L629.5331852232143,359.1392750278211L629.8747461830358,213.00113964610946L630.1072983258929,183.26242828687217L630.7250149553572,249.71226204916258L631.5680164732144,234.83684580110463L631.6188872544644,140.51365609516475L631.6988270535714,79.2688060531924L633.6900547767858,140.96149411150498L634.6057288392858,171.72673327121962L635.5940754464286,178.08691744947416L636.1027832589286,182.25559722472698L636.923983013393,254.85191136147566L638.0794764732143,289.7321127011674L638.7989346651786,346.0384509728774L640.4994722098215,380.3053692971904L641.0299817857143,258.419120868986L641.4442152901786,140.94273019993696L645.1505150669643,164.24975979105199L645.6446883705358,186.5763642132659L646.2042669642857,206.64888246345947L646.3060085267857,264.96187876799917L646.5894314508929,202.0030957647514L646.8219835937501,234.02552935732592L649.0312289508929,265.1245561784467L649.8233596875001,185.37935959237117L651.1241982366072,290.860114760667L651.2913450892858,317.49545724745474L652.6866579464286,276.956518442001L652.8683393080358,183.178323815298L653.8712204241072,250.78460782263895L654.0383672767858,221.10121958963L654.2781866741071,168.0791687101837L654.3072556919643,161.90755696617325L654.779627232143,253.4909223344674L655.2519987723215,304.3731421064769L656.6037081026786,344.7073626124339L656.8871310267858,257.7998414977018L657.0034070982143,286.4159733197648L658.0498917410715,221.93993213286885L658.2388403571429,150.22429264904974L658.5077287723215,196.21922026285063L660.0556539732142,241.65104012705308L660.9277245089286,236.2677042709985L661.2910872321429,157.1377776171317L661.4291650669644,120.64916070136728L662.1704250223215,213.96162465069514L664.0889802008929,177.98504799563142L664.9101799553572,269.41707622338254L665.1645338616072,198.57556559639528L668.2385825000001,209.94042475863864L669.1687910714286,253.34574479047126L673.9361100000001,126.58623264954072L674.1831966517857,17.157250653520165L674.6264991741072,125.97471473311434L674.7573097544644,107.13319260617196L675.3023538392858,232.68083900654378L676.3997092633929,160.23846862489114L676.7776064955358,251.80230296898975L677.7950221205358,251.83754567010504L679.5609649553572,221.0832040970797L681.3923130803572,242.96393299400148L682.5623410491072,258.81047876609813L682.9111692633928,225.7565225780628L684.3210166294643,294.6470598838333L684.5535687723216,248.22575789048514L684.6117068080358,327.64930402939376L685.9852179017857,352.9999398819131L686.0942267187501,334.95312237193855L686.5738655133929,340.88281447193197L687.4895395758929,386.26525550829234L688.1072562053572,263.4300036992977L688.4996879464286,243.83005840302678L689.0665337946429,343.5626231438266L690.5345191964286,380.9423240793783L690.7670713392858,-8.263580709010323L691.0359597544644,51.275279069816584L691.6173401116072,72.10019985727997L692.7146955357143,37.90794318208463L694.0809393750001,150.35377410960274L694.306224263393,224.72063799035416L694.5460436607143,179.43067964559074L695.374510669643,262.8918139991341L695.8323477008929,256.709280879421L697.5474197544644,310.751150199294L697.7581701339286,221.1522872306182L700.9412275892859,207.31078830748592L702.3220059375001,254.18236528546416L702.37287671875,194.71823550519593L703.3248870535715,153.52535964908247L703.4193613616072,13.597405928926586L703.7536550669644,-71.6239265257927L703.9426036830358,-22.161479628602173L704.9818210714286,59.10511940650049L707.7797140401786,147.1981123892686L708.1939475446429,90.79243118536866L708.9642765178572,193.0562540249829L709.4366480580358,304.713458488714L709.7636745089287,347.1105688385921L710.9482369866073,154.09794215993625L712.8667921651787,154.1945015816849L713.1865513616073,161.81232312173336L714.9088906696429,320.5624772315112L715.3957967187501,162.76905245626682L717.0890670089286,237.30321009690076L717.7576544196429,234.10848304516932L718.1137498883929,111.16897535302519L718.8913461160714,188.57024420761948L721.3622126339286,163.3262775306658L721.9799292633929,252.61394894646605L722.0962053348214,182.9337358707882L724.8722965401786,160.099183213945L724.9958398660715,232.1661787931307L725.8025051116072,246.85068971264536L725.9405829464287,276.8086457887641L726.5292305580358,336.69852024734746L726.9798003348214,81.96738830872202L728.4477857366072,146.31264983125914L729.9957109375001,187.36901134555575L734.5304777232144,265.0666041970095L734.6758228125,206.19623442337112L736.1728772321429,127.89909210296213L737.4373795089286,248.50470969328168L738.5274676785715,42.783266615975585L738.6728127678573,160.21832912781667L738.6946145312501,263.3368143214835L739.1451843080358,266.21916210496744L739.3123311607144,127.4437050828458L739.3341329241072,78.2295410638524L741.9430772767859,183.23010598728823L742.1320258928572,300.6160485618055L743.0476999553572,254.67104102990083L743.5055369866071,249.54619854765383L746.5577838616072,127.56578270609755L746.986551875,91.04952106485119L747.0010863839286,118.80860892668211L747.2263712723216,219.0646978142412L747.7423463392857,207.0691372275039L749.4428838839286,266.97244957206755L750.1478075669643,289.1685669387925L751.9500866741073,296.9965457253829L755.0750060937501,176.4318247250928L756.2377668080358,35.978079156503235L758.5560209821429,40.71482151625371L758.8757801785715,8.636282693611417L759.6897126785715,149.11740059607166L761.4919917857143,190.18953932724924L762.269588013393,272.0595492079775L763.2797363839286,234.59134232362405L763.4759522544643,251.48629190540493L764.3988935714286,255.75579876267466L765.3945074330358,259.2195811204388L765.8014736830359,264.1049901976932L766.0340258258929,341.3353549423205L766.5500008928573,366.48367805834476L766.8188893080358,418.93774145485173L769.9583432366072,376.0271432729874L770.1254900892858,318.1421737905653L770.561525357143,322.39130082988765L772.5164168080357,127.48878781540226L773.0977971651786,183.50361371730816L773.7082465401786,203.73431459621082L773.9989367187501,214.89672098628444L774.2169543526787,229.61813797351624L774.6893258928573,162.03553740948882L774.9218780357143,286.59448757905955L777.7270382589286,287.680220279698L778.729919375,302.3082806108941L779.2386271875001,311.9531362712436L779.747335,290.28482499755654L780.6194055357143,280.64622977856675L780.9391647321429,217.72834027239472L781.9275113392858,108.00473115699762L782.3417448437501,191.2209100999028L782.9885304910715,174.42740601213475L783.3809622321429,286.2510990917005L783.9623425892859,132.05305121151812L784.7617405803572,223.1865867740864L784.8344131250001,351.34195183593675L785.873630513393,231.166975942677L786.4041400892858,228.6174573153961L787.7994529464287,310.6513604891264L788.3081607589286,337.3761517883976L788.6642562276787,294.230881716936L788.7950668080358,351.7983696268008L789.2601710937502,336.0729167639204L790.3429920089286,124.07760354522023L792.0580640625001,243.29627278234454L792.5304356026786,259.8177039312475L795.8079673660715,106.59682036149034L795.9605797098214,166.67008784422404L796.5782963392858,193.99206948606727L796.5928308482144,218.9846644934651L798.5549895535715,248.95581720139552L801.4618913392858,311.2036548065486L801.7453142633929,286.0722495028398L802.9516785044644,132.1984940373773L803.5112570982143,240.93435980012958L803.6784039508929,201.75376618765966L804.8556991741071,32.57769201316351L805.6332954017859,154.17850973034498L805.8658475446429,174.32153373485332L806.0620634151787,280.0973138808433L806.1274687053572,290.360465115721L806.6434437723216,305.29407883714686L807.188487857143,120.71416912693415L807.7916699776786,190.03397892660462L808.3657830803572,287.38471290501514L809.0997757812501,260.8007037682823L809.2451208705357,278.22068538191405L809.7974322098215,319.7368477000605L810.2116657142858,211.01292279307444L810.2916055133929,181.11205959607875L811.6869183705359,193.6609717386348L813.37292140625,217.32769522257024L813.5182664955357,234.9930406567848L816.1126763392858,249.23180747970324L816.1635471205358,308.48216114240284L817.3844458705357,319.45222272660465L817.6315325223214,390.7972325455316L817.8640846651787,354.28461119773374L818.2565164062501,394.9461559351367L818.9105693080359,290.55453498661086L820.3276839285714,-13.237105970431159L821.2070217187501,-28.09560850518909L821.2796942633929,122.48974741314302L822.6968088839286,232.078796096301L823.5034741294644,272.8433477621595L824.5572260267858,249.9334246114454L824.9569250223216,275.0612009770242L826.4975829687501,177.11690798761936L828.0818444419643,283.8227631017393L830.4727711607144,296.4326649048821L830.894271919643,305.7399245060666L833.5831560714286,315.3744307804263L834.3389505357143,266.4809417404855L834.4406920982143,277.99648764232313L834.5787699330358,301.7064810388335L834.8767273660715,284.8606321504924L834.9784689285715,205.28659016529318L835.0874777455357,171.76858600025673L835.1819520535715,275.7611100236218L835.4653749776786,332.0357301614621L835.7560651562501,286.1234571281085L835.8214704464286,94.74251365780428L836.2357039508929,172.79463629793878L836.4101180580358,56.09059508366434L837.6455513169644,151.27789287402064L837.6600858258929,223.05795905601053L838.8882518303571,153.60423114893243L840.1672886160715,213.3845825227253L840.8358760267857,158.29205551339098L841.3591183482143,174.2407153375826L841.4608599107144,203.4653516359625L842.8634400223215,213.17947858259066L844.5276412946429,227.7296426818484L844.9418747991072,80.0357728354485L845.8357470982144,160.36359334258194L847.1147838839287,195.81596574943038L847.8415093303572,146.93993949839245L848.5900365401786,196.05029745621593L851.0172995312502,3.761917510582979L855.8209547321429,122.74052498094862L856.1116449107144,201.77650960664752L856.3514643080358,277.7698734159425L857.6886391294644,328.7387534169831L860.7990240401787,377.84169086149205L861.7946379017858,47.34519643247188L863.785865625,181.42214556408882L865.5154721875001,236.42100694287208L866.5619568303572,328.8944235987888L866.5692240848215,149.2544440293154L866.9907248437501,-19.755963014502136L868.41510671875,146.3316720957845L868.4441757366072,137.61106281399165L869.0182888392858,213.90864352627565L870.776964419643,303.20441312018335L872.5283727455358,215.21086480044548L873.4585813169643,274.8423434457879L873.6984007142858,302.3888966060698L874.2943155803572,179.84695701242075L875.1082480803573,174.3534825516332L875.5442833482144,124.01899861896796L876.3291468303572,144.02136202723338L876.5907679910715,243.15924790497803L876.7288458258929,294.96985364278936L877.4265022544644,108.41163703302706L877.7462614508929,221.66252202552198L879.0180309821429,304.9325335960669L880.7476375446429,218.25544893665528L881.0455949776787,32.21581345109044L881.6851133705358,163.19013801217196L883.2984438616072,202.2698429488226L883.5600650223215,237.2702516868486L884.410333794643,259.5737921476917L885.7838448883929,307.1399108182799L885.9873280133929,373.71659327721756L890.0206542410715,369.77274985280866L891.430501607143,378.3473075633663L891.7139245312501,330.360805939117L893.1601081696429,281.11704288612077L896.2123550446429,370.939703867515L897.2370379241072,389.0987856788746L898.1527119866072,271.2205991398512L899.2573346651787,304.94773645522883L900.9942084821429,154.70489314299135L903.2615918750001,202.17036013434347L903.3051954017858,187.87315726105538L904.4752233705358,224.93324754500122L904.53336140625,225.57839372902126L906.2484334598215,130.71775472390522L907.098702232143,215.19034308055836L909.1044644642858,177.5893854912324L909.4896289508929,173.2425337351774L912.084038794643,249.48528644087864L912.1712458482143,301.78030927014277L913.9662577008929,335.12364925027583L914.017128482143,362.47479963763357L914.7874574553572,172.01910815148594L915.9574854241073,180.3710561328748L916.6115383258929,213.45413873258482L918.4864899776786,233.5367646041385L918.9661287723214,251.60347417912726L920.2088292857144,180.3706603247313L920.5649247544643,46.04034604741536L920.8410804241072,150.28372384193958L921.088167075893,281.3123819635852L921.3643227455358,264.78841176347123L921.647745669643,110.53077911198626L922.105582700893,117.58778172694089L922.4907471875,211.6830566981718L922.7741701116072,313.6592178462593L923.0575930357144,293.08153468619145L923.1593345982144,196.8861907047743L923.2828779241073,29.590688461502232L924.0677414062501,119.38914484462916L924.2130864955358,145.5224653770663L924.4601731473216,133.5640956923219L924.8816739062501,220.73596144246633L927.5560235491073,189.96296720085618L927.9266535267858,50.014545316382076L928.9368018973215,157.3682044420559L929.6053893080358,167.5030926638427L929.7798034151787,52.870372124161044L931.3785993973215,115.89647975331975L931.5893497767858,248.2902889728379L934.9395540848216,176.6450725254546L936.8072384821429,253.91711988331127L937.0179888616073,314.951225112794L937.4612913839287,237.2274040828272L939.6705367410715,293.3893244498125L940.724288638393,133.7450839328352L940.8914354910715,248.43812602216727L941.4655485937501,303.5107533578283L944.590468013393,333.3966680186284L944.6994768303573,401.5965113054092L946.1456604687502,360.4792095639838L946.85785140625,379.23182505846444L948.2095607366073,60.70657312697881L950.9493156696429,107.64627381184802L951.3853509375001,219.81536294324965L953.4056476785715,252.11796486604632L953.4129149330358,145.53672577370557L954.2195801785715,101.8691302751493L954.4230633035716,217.89623550265975L954.6410809375001,249.77668294905212L954.9390383705357,234.20854529086515L955.7820398883929,203.09900471818855L956.3198167187501,340.95735628617786L958.0784922991073,318.0436401943834L958.3837169866073,228.77578870858653L958.6453381473215,178.40511748849275L959.9752457142857,172.78718383567426L960.7673764508929,187.06932404634574L960.9926613392857,12.29720131386425L961.5013691517859,80.16683750050724L963.1219668973215,27.525708281566086L963.6016056919643,155.43719598909527" style="fill: none;" fill="none"></path></g></g></g></g><g opacity="0.2"><g><g><g><path stroke="rgb(255, 112, 67)" stroke-width="2px" d="M72.97776933035715,-421.0244087806115L73.88617613839287,135.96058205457834L74.33674591517858,116.16134269420918L74.3730821875,-380.9329881851489L74.65650511160715,312.5410082661188L76.11722325892858,73.80308982959161L76.56779303571429,149.59438458772806L76.88028497767857,346.20282367559577L76.93115575892858,-219.63109335532553L77.2799839732143,230.46211868066052L77.37445828125001,169.2497280194209L77.86136433035715,282.0765539270181L78.54448625,71.437453691776L80.04154066964287,464.21316235799054L82.35979484375,420.57956381027515L82.38886386160715,225.55618874843307L82.73769207589287,146.12019490278684L82.78856285714286,-262.2793468878819L83.10832205357144,391.39931733333145L84.9614719419643,327.6380939391943L85.27396388392859,323.6285101175308L85.29576564732145,358.2677780848283L86.31318127232144,56.69229619319625L86.60387145089287,314.04698609847287L87.46867473214287,-384.7427015854761L88.65323720982144,195.05332265450406L89.43810069196428,289.858328305758L90.03401555803572,-3.1496621828813076L90.73167198660715,27.235167228258586L90.73893924107144,321.20867731021L90.82614629464287,286.06229875637933L92.1851228794643,379.41498451049506L94.75046370535715,401.86059444684247L96.1457765625,7.907751358472413L96.26205263392859,-119.58829744962547L98.96547129464287,-186.51121770418604L98.98000580357143,153.21990473453818L99.34336852678572,-0.6581238416524648L100.38985316964288,461.84246211785535L100.44072395089286,171.0826098185319L101.42180330357144,192.43022539982428L104.04528216517858,301.6290260461661L104.6484642857143,131.6834089114116L105.31705169642858,236.66607500956607L105.44059502232145,342.64507630238165L106.65422651785715,194.3059365749359L107.46815901785716,88.38980557368352L108.79806658482144,258.5094338838871L109.98262906250001,132.98396735924942L111.5160197544643,38.62395623097052L111.61776131696429,137.43563653872562L114.26304194196429,306.0497180040066L114.88075857142859,322.00225985508695L115.28772482142858,379.44046664237976L116.20339888392859,378.8415287962327L117.72952232142858,97.65129448817326L117.86760015625,129.33743657515598L118.37630796875001,94.09758762212898L120.44747549107144,61.16804679540489L121.35588229910715,242.0471685849703L121.44308935267858,210.63551161839413L122.48230674107144,-47.323934463354206L123.29623924107143,62.67914260350741L124.66975033482144,470.14845189681415L126.31941709821429,-163.85280772355887L126.88626294642857,173.06746856065897L126.90806470982143,188.88292947182288L127.25689292410715,-173.72694527185877L129.34259495535716,306.57387953079666L129.59694886160716,-4.381424261973429L130.7451750669643,416.2464700478774L131.29021915178575,326.9012670516968L132.1186861607143,471.94972346149956L132.41664359375,-631.1596577717709L133.44859372767857,237.04458972123953L134.42967308035716,-118.78197383880615L134.50234562500003,203.81772144024185L135.17820029017858,477.8753023147583L137.19122977678575,365.5118417694018L137.60546328125002,52.23044493565192L138.02696404017857,333.95254467083856L139.96732098214287,18.011712954594564L141.4789099107143,226.97909375337454L142.1038937946429,264.7370675848081L142.19836810267856,-281.73013290992145L143.1503784375,279.1411793415363L144.20413033482146,294.3256477163388L144.66923462053575,218.28403007067166L147.35085151785714,54.97114788568937L147.40172229910718,249.67925564142374L148.24472381696432,192.805346085475L148.82610417410714,312.48209767158215L149.13859611607145,156.24382030046903L149.75631274553575,320.6172009339699L151.01354776785718,284.88171643477216L151.9001528125,471.73088959317937L151.92195457589287,342.56211122182697L152.3652570982143,-123.39849571081307L152.42339513392858,-177.29616768543534L152.75768883928572,373.164562349136L153.35360370535716,254.65527490469125L155.65732337053575,529.6953185659188L156.478523125,-223.26711882077726L156.72560977678575,318.95294296741486L157.59041305803572,166.00256096399747L158.12818988839288,361.8894193447553L159.65431332589287,113.35415993287013L159.6906495982143,339.01459980010986L161.07142794642857,426.8640609154334L161.9871020089286,-114.18247597034156L164.75592595982144,75.47602141820467L166.2529803794643,171.50163734876193L167.39393933035717,303.81006487974753L167.59015520089287,144.06201442388388L171.11477361607146,-357.1588594913482L171.48540359375002,401.14965374194657L171.6525504464286,41.99320047635301L173.03332879464287,229.01098399895886L174.9954875,154.61285611299368L176.0201703794643,-1.0963303125821113L176.55067995535714,71.92872549020326L176.87043915178572,545.5999400019646L177.66256988839288,286.8685684937697L179.05061549107143,104.94667261380418L179.268633125,336.4303991611187L179.40671095982145,209.03487817140726L180.07529837053573,-57.29622939916756L180.29331600446432,180.44559627312879L180.7584202901786,138.8554168847891L180.89649812500002,112.69458754246052L185.11877296875002,383.2369810526188L185.36585962053576,99.66141986846924L187.0591299107143,319.9878515371909L187.23354401785716,445.8280735703615L189.79161758928575,-207.59555383828962L190.75816243303575,111.2777702349883L191.2814047544643,308.09030880836343L194.8278249330357,441.09925253574664L195.17665314732145,281.42239581621607L196.69550933035717,338.5538742358868L196.92079421875002,284.97136182051435L198.51959020089288,248.34087804647592L198.67946979910718,357.63083253456995L200.16198970982146,75.06108826857349L200.26373127232145,429.59371981253986L200.4744816517857,-176.69779551029205L206.7606567633929,79.4880295441701L211.5933809821429,283.35575156028455L211.97854546875,203.88576358098248L214.60929158482145,104.50291717969453L215.40142232142858,491.9313782522311L215.50316388392858,411.4785369038582L216.0627424776786,240.810019162985L216.89847674107145,57.21567655526675L217.98129765625,248.85353759618906L218.4027984151786,203.933441565587L218.46820370535718,339.8593351657574L219.02051504464285,304.29934336130435L219.79084401785715,242.54194215627817L219.84898205357146,-464.22583468143756L220.36495712053573,288.25268462988043L221.21522589285715,431.1584735558583L221.93468408482147,495.0422455324576L221.94195133928574,43.68477227137638L222.2181070089286,29.30988684984357L223.67882515625,171.24024347158579L223.70062691964287,200.74138702796054L224.05672238839287,218.99036459739395L224.23113649553574,352.07567391028766L225.86626875000002,348.0408773238842L226.3313730357143,77.10558489652779L226.97089142857143,36.163287364519576L227.6031425669643,-47.131336954923725L228.1263848883929,467.49219554662704L229.0856624776786,348.6936077888195L231.44752017857147,330.53634973214224L234.33262020089288,374.35233677350556L234.6741811607143,300.91197070708637L234.95033683035717,382.41999050287103L235.15381995535716,416.0520947162922L235.98228696428575,67.25811469554901L238.65663660714287,153.69027364253998L240.82227843750002,-85.58333523456864L241.21471017857147,464.29906354042197L241.4036587946429,123.58736388499919L241.8978320982143,135.10162410369287L242.44287618303574,314.88310171549136L242.9225149776786,429.96851725761707L243.74371473214288,123.07642828501189L244.68845781250002,301.3907438700016L244.76839761160716,316.34035103137677L244.91374270089287,149.0288213308041L246.6360820089286,305.3447033762932L248.1549381919643,428.3108318493916L249.13601754464287,0.7965664863586426L249.15055205357146,288.3119723384197L249.4267077232143,408.5663817662459L249.5938545758929,262.06192859778037L251.59961680803573,194.62761481908652L252.31180774553576,373.2308536034364L252.36994578125,401.60399530484125L253.63444805803573,265.4639548246677L253.87426745535717,404.0802874656824L254.41204428571433,354.83423590201596L256.1925216294643,228.64227425135098L256.7666347321429,160.72872938559604L257.1954027455358,311.3691803767131L260.25491687500005,245.30190485715866L260.50927078125,331.9299475917449L261.0470476116072,324.1111082939001L262.1007995089286,273.7626986274352L262.74758515625,113.49116006264319L263.8231388169643,388.8997249144774L265.03677031250004,190.19948832805343L267.41316252232144,150.93637170241428L267.42042977678574,193.48706045517554L267.64571466517856,261.631372153759L269.9203653125,249.46731757200678L270.00757236607143,345.7637821665177L270.0366413839286,189.93685536201187L270.0439086383929,418.6879330369142L273.3941129464286,429.78734091612006L273.52492352678576,180.40481408742758L274.88390011160715,143.8859560581354L275.54522026785713,53.777635941138634L275.92311750000005,9.433177498670757L279.3387270982143,418.0864631396073L279.43320140625,32.886867037186256L280.1017888169643,288.33406044428165L280.3125391964286,129.77354198235733L283.2049064732143,405.6150067723714L283.39385508928575,154.8214001563879L283.8734938839286,240.21945863503674L284.8836422544643,211.45481872558594L285.33421203125,389.11583817463656L287.8632165848215,-5.69087182558496L289.44747805803576,179.79345841591177L290.72651484375,-251.20868048301108L290.91546345982147,266.73835772275925L291.35876598214287,260.55522347413574L291.9546808482143,261.0763680889056L292.45612140625,268.4480040531892L293.06657078125,349.36080326942295L294.02584837053575,-69.57613878983716L294.1057881696429,354.91472280483976L295.13773830357144,324.9813257914323L295.8208602232143,51.67247783220731L295.92260178571433,75.01976734858295L300.90793834821426,193.79381575951209L301.17682676339285,293.45828551054L303.0154421428572,203.21132212418775L304.35261696428574,444.51296929671213L304.7595832142858,153.4982148683988L304.82498850446433,422.5232632526984L305.25375651785714,216.37324729332556L306.48918977678574,292.40697248165424L306.72900917410715,283.07625621098737L308.3859431919643,-92.50865677686836L309.16353941964286,369.38418303086206L309.99927368303577,242.8220839867225L310.7623354017857,197.79752737742206L311.7216129910714,447.3780659941526L313.5965646428572,436.2127709113634L313.79278051339287,305.9069264806234L313.80731502232146,370.688970542871L314.46136792410715,110.43131091961493L314.97007573660716,-270.279551084225L315.2171623883929,120.62723445892334L315.42064551339286,246.4312266111374L317.7825032142857,382.3355708397351L317.8479085044643,476.524870540087L317.9351155580357,103.50049428756424L318.07319339285715,257.81834553755243L318.19673671875,305.651647237631L318.58916845982145,227.12272031490616L318.6763755133929,406.5298853424879L318.85805687500005,196.489265029247L319.12694529017864,253.825651035859L319.8827397544643,280.98219602841596L320.02081758928574,262.8398609115527L320.78387930803575,387.68299352205713L322.3899425446429,254.5661682532384L322.5425548883929,-330.83242322848395L323.5745050223215,194.25847408404715L324.11228185267856,280.592314023238L325.4494566741071,326.4619292387595L329.44644662946433,121.12319324566768L329.5990589732143,432.9351653685937L329.65719700892856,353.1763350000748L329.7662058258929,439.6306089896422L330.53653479910713,511.0138855140942L331.1905877008929,152.28810990773715L332.62950408482146,345.20621911379004L332.6803748660714,-19.976488975378132L333.9521443973215,401.10911398667554L334.0756877232143,44.413248777389526L334.56259377232146,18.355102190604573L336.0814499553572,275.13873374920627L336.2922003348214,368.8658667711111L338.8648084151786,198.5049393727229L339.08282604910715,391.23767010982215L339.86768953125005,251.51289166853977L340.2455867633929,-6.633441338172281L340.88510515625006,391.8200957500017L343.02894522321435,311.1269385035221L344.8675606026786,-83.72260087270001L345.11464725446433,192.72809158838712L347.1131422321429,187.68952527413L347.9270747321429,480.1205986806979L350.22352714285717,129.55734791205478L352.0185389955358,376.8715660572052L352.1348150669643,120.8960089958631L354.0606375,212.44743665365073L354.9327080357143,381.03221097359284L355.9573909151786,-67.43391576180086L356.13180502232143,295.60611137518515L358.2465760714286,244.67266320723752L361.1970813839286,239.84320660737845L361.4005645089286,266.33428006905774L361.77119448660716,12.206419999782877L362.4761181696429,-130.90629676672128L362.7014030580358,118.39708999487068L362.73773933035716,327.06646992151553L363.50806830357146,311.3187548472331L365.5138305357143,-135.12113835261417L366.9963504464286,451.1222423681846L368.0646368526786,292.0993552024548L368.1809129241072,52.72349455723395L368.2099819419643,122.63547426920672L368.4498013392858,216.6609314038203L368.59514642857147,417.59785807591214L369.12565600446436,-109.9558899769416L370.92066785714286,341.4488168129554L372.40318776785716,197.61430384562564L372.5994036383929,409.6992591665341L373.1081114508929,209.09828719725974L374.54702783482145,361.97602088176285L374.66330390625006,-214.15798396330607L377.9917064508929,162.30436556155863L378.87104424107144,263.22308954825763L379.67044223214293,163.19079896119925L381.16749665178577,209.19477450847626L381.2983072321429,490.0166223095013L382.82443066964294,-58.25582291529728L385.0264087723214,157.41637548116537L387.18478334821435,-95.72883324439704L388.9289244196429,524.8965967572652L389.1832783258929,63.289366933015685L389.5757100669643,460.8868282987521L389.80826220982146,345.6072529187569L390.33150453125,272.9970225187448L390.52772040178576,321.62493035885L390.5567894196429,216.19050862238956L391.01462645089293,-19.304795063458943L392.3808702901786,404.4632736719571L392.96225064732147,320.2833472948808L393.88519196428575,97.44183459648718L393.9360627455357,169.7863612450086L394.25582194196437,425.8383108285757L394.64098642857147,207.15711980599622L396.6830849330358,283.17565268736615L398.26007915178576,76.80518665680518L398.3618207142857,242.5503464111915L399.43737437500005,415.75336655286645L400.45479000000006,397.94375373308475L401.9518444196429,217.90260619383594L402.0172497098215,260.2716876176687L402.4024141964286,398.37557620268603L403.38349354910713,287.195203093382L404.4808489732143,-25.05772304534912L407.20606939732147,292.04542790009424L407.62030290178575,337.2728179693222L408.19441600446436,260.71293793733304L408.4560371651786,98.50885172990654L409.27723691964286,504.0126563104299L409.3935129910715,67.84894459064193L409.96762609375,48.46835564650022L410.5926099776786,520.0244724016923L415.9849127901786,94.53590183991655L416.4209480580357,215.56999446795535L416.56629314732146,188.13171837880063L417.78719189732146,79.61716415331914L418.48484832589287,27.43746195389675L418.8700128125,-185.49710427797754L419.0952977008929,161.14139985121213L419.3569188616072,97.07145477258241L419.6403417857143,203.48726182717542L420.6432229017858,256.6188536423903L421.11559444196433,-299.8102711530832L421.2827412946429,428.8743479160162L422.0530702678572,211.6146073157971L422.81613198660716,333.7622098464232L423.15042569196436,84.00477782579567L425.29426575892865,145.8076751415546L427.6343216964286,507.1290321487647L428.63720281250005,389.3776361025296L430.7447066071429,288.345185307356L431.1371383482143,313.5844288376661L431.31881970982147,331.96768592871155L432.23449377232146,403.73571301423584L432.8231413839286,287.2093179317621L433.26644390625006,329.3352685708266L436.07887138392863,270.89536618269403L436.4422341071429,378.8231310202525L437.11808877232147,289.0350345648252L437.2343648437501,-117.11609966938309L437.4523824776786,331.2528663369325L437.9828920535715,-39.569877963799705L440.6063709151786,265.2562727561364L441.9871492633929,-174.55147810165695L443.14990997767865,118.26175994139453L444.27633441964286,138.88660960014047L444.95218908482144,-23.811253520158587L445.3518880803572,251.45866806232013L445.78792334821435,84.06236852132356L448.7529631696429,44.53279391618878L449.1017913839286,83.56457803799556L449.1599294196429,350.72832638942276L450.2354830803572,437.352086186409L450.57704404017863,-37.01105170983533L451.05668283482146,273.5654141306877L452.29211609375005,-98.40219440826998L452.69181508928574,196.14582191980801L453.13511761160714,218.6932526368361L454.27607656250007,291.5249028297571L454.40688714285716,447.3122326639982L457.1539093303572,461.0854326945084L457.3937287276786,142.66997889372018L458.50561866071433,261.8004000370319L458.61462747767865,349.5920010896829L461.23810633928576,245.8976372342843L462.9677129017858,167.11289233427783L463.01858368303573,148.08167257675757L463.0476527008929,404.971811904357L463.07672171875004,-242.27053988896878L464.10140459821434,235.1177526620718L464.4211637946429,382.8571464419365L465.62752803571436,399.38422147585794L465.7365368526786,35.97666980670048L465.8891491964286,175.36743298860696L465.9981580133929,315.51931997445917L466.8556940401786,259.4528653713373L470.1259585491072,314.51145586600666L470.9689600669643,110.35820467655476L471.9137031473215,197.93910674865432L472.24072959821433,-38.07806884325464L473.7741202901786,34.36165215418888L474.54444926339295,71.68263166684373L474.5662510267858,-147.92092633247375L474.7551996428572,-45.79177414453943L474.98048453125006,256.730964247997L476.3176593526786,263.5558657187682L476.37579738839287,100.47016778359045L477.55309261160716,411.6462448881222L477.93825709821436,268.9364205598831L480.3001147991072,431.3892403886868L481.8480400000001,100.27072834968567L482.0878593973215,450.8483767922108L483.32329265625003,229.1368323289431L483.42503421875006,277.41951923645456L484.0572853571429,352.9656629562378L485.35812390625,39.22997843302213L485.5979433035715,451.85028788676624L489.12256171875003,442.86236824439123L490.4234002678572,340.00285398043115L492.4291625,426.34897706141834L496.3171436383929,283.74460997031287L497.37089553571434,222.7093012699714L498.2138970535715,300.05656840251044L498.83161368303576,31.043587666291465L499.39845953125007,236.0094656577477L499.59467540178576,262.5387353805395L499.7182187276786,141.0063674083123L501.65857566964286,404.92712389505823L503.35911321428574,407.3909443571017L503.7006741741072,54.69165253639221L504.58001196428575,152.3623474928049L506.09160089285723,504.64231547942524L506.30961852678575,303.50137013196945L506.7965245758929,489.6544851202231L510.00865104910724,308.16818284988403L510.0522545758929,99.81296582405385L510.2121341741072,200.82947008426376L510.8661870758929,383.64660766950016L512.1597583705358,33.44203272232646L516.8616720089286,260.6478588351836L517.4648541294642,476.63100119508226L517.9808291964287,185.3184479199923L519.158124419643,-89.66974256588863L519.8557808482144,201.58515267188736L520.9168000000001,341.9912144954388L524.2524697991072,-74.49343601556923L524.83385015625,-51.57422476548413L526.9922247321429,230.99961388111115L527.2175096205358,298.658014187446L527.27564765625,171.90811237005087L529.5939018303573,80.97364322038796L530.68399,36.73536930634426L532.1083718750001,-47.80965729860161L533.1112529910715,245.08191271011643L533.6199608035715,454.4551759224671L533.6272280580357,254.43498645378995L534.2376774330357,348.246619948974L535.385903638393,-50.272211735065184L538.489021294643,547.8095586895943L539.4119626116071,309.0299691557884L541.4903973883929,367.16015320099314L541.5630699330358,359.5875693467947L542.7694341741072,359.2903227026646L544.2374195758929,167.90493948643027L545.0440848214286,315.45760796161795L545.4365165625001,280.2379346077259L546.8245621651787,187.67320162516373L547.166123125,416.5273122328978L548.53963421875,442.51248726019486L549.4117047544644,175.6206381045855L549.7169294419643,221.23257670952725L550.1965682366072,137.87987683369565L551.6354846205357,85.71800673924959L552.6674347544644,202.0263221814082L554.4769811160714,366.5444876551628L557.0132529241073,236.1873018466509L558.0306685491072,61.816952246886025L559.2006965178572,450.2668131268941L559.4041796428572,-303.8651086550492L559.7312060937501,193.24484551869907L562.7761857142858,338.64624022979L563.0232723660714,72.71931805977454L563.3066952901786,240.1703799412801L568.7571361383929,172.89970670296597L568.8879467187501,214.02544326048633L569.5928704017858,371.6039299231309L569.9635003794643,124.17005889232341L570.5666825000001,271.8211271854547L571.1335283482143,-264.6061402834378L573.5971276116072,305.1524021717218L574.0258956250001,151.04966752345743L575.3558031919644,-461.92177587289063L577.5723158035714,-35.56465788987968L578.9240251339286,67.66345837483038L579.3382586383929,-16.753026228684654L584.7378287053573,511.1018742918968L584.96311359375,372.9705102581244L585.5953647321429,-51.93808590448816L586.1476760714286,145.10112512111664L588.0298949776786,224.48114447410293L588.6185425892858,526.4189790487289L590.9295295089287,340.35497071192816L591.7579965178571,-50.32651615142822L592.6736705803571,365.5120572631176L592.8626191964287,276.42897543540363L593.7056207142857,369.5668139549402L594.8247779017858,167.48402638618765L595.2317441517858,333.86486566525235L595.6023741294644,309.90164123590176L595.7622537276786,-41.45970397729138L596.1837544866072,-82.5223547495328L597.3465152008929,113.03619895531581L597.9133610491072,107.72562569838306L598.0732406473214,350.47447479229703L598.08777515625,142.33434743147632L598.8290351116071,76.05279034834643L598.850836875,-407.0774400050823L599.9699940625001,368.55798012476697L601.1690910491072,417.6885539935185L608.9159843080358,401.1978165874114L608.9523205803572,163.3838274570612L609.2938815401786,318.32720309037427L609.7299168080358,271.69514417189816L609.8970636607144,185.60408484018765L610.5293147991073,206.12700597139505L611.8083515848215,41.56285952604734L611.8592223660715,211.1626092470609L616.7355501116073,353.32631862622037L616.9971712723215,447.23672905335053L618.7340450892857,359.7352364154962L618.9593299776786,-80.52041813043449L621.1249718080358,143.03249319700095L621.2557823883928,322.934458732605L621.8371627455357,83.7390202008761L622.2877325223214,440.78204578619733L622.781905825893,162.37019889171304L624.4606416071429,360.3087729399021L625.3908501785714,-41.48825689462517L626.5681454017857,467.2188148315136L628.1160706026786,360.6849980308459L628.4867005803571,525.2830173946344L629.5331852232143,257.0282108921271L629.8747461830358,-6.206063426457906L630.1072983258929,138.65436124801636L630.7250149553572,349.38701269259815L631.5680164732144,212.52372142901785L631.6188872544644,-0.9711284637451172L631.6988270535714,-12.598469009766173L633.6900547767858,233.50052619897403L634.6057288392858,217.8745920107915L635.5940754464286,187.62719371685614L636.1027832589286,188.5086168876061L636.923983013393,363.7463825665987L638.0794764732143,342.0524147107051L638.7989346651786,430.4979583804424L640.4994722098215,431.70574678366L641.0299817857143,75.5897482266793L641.4442152901786,-35.27185580363637L645.1505150669643,199.2103041777244L645.6446883705358,220.06627084658695L646.2042669642857,236.7576598387498L646.3060085267857,352.4313732248086L646.5894314508929,107.56492125988007L646.8219835937501,282.0591797461877L649.0312289508929,311.7730964101278L649.8233596875001,65.76156471325801L651.1241982366072,449.0812475131108L651.2913450892858,357.4484709776365L652.6866579464286,216.1481102338204L652.8683393080358,42.51103187524355L653.8712204241072,352.1940338336504L654.0383672767858,176.5761372401164L654.2781866741071,88.5460923910141L654.3072556919643,152.6501393501575L654.779627232143,390.8659703869086L656.6037081026786,405.20869337136924L656.8871310267858,127.4385598256038L657.0034070982143,329.3401710528594L658.0498917410715,125.22587035252498L658.2388403571429,42.65083342332109L658.5077287723215,265.21161168355206L660.0556539732142,309.7987699233568L660.9277245089286,228.19270048691678L661.2910872321429,38.44288763633142L661.4291650669644,65.91623532772064L662.1704250223215,353.9303205746871L664.0889802008929,124.02018301303569L664.9101799553572,406.5651185650092L665.1645338616072,92.3132996559143L668.2385825000001,226.98771350200363L669.1687910714286,318.4537248382201L673.9361100000001,-63.55303556185504L674.1831966517857,-146.9862223405104L674.6264991741072,289.2009108525056L674.7573097544644,78.87090941575859L675.3023538392858,421.00230860710144L676.3997092633929,51.57491305241217L676.7776064955358,389.14805448513766L677.7950221205358,251.89040972177796L679.5609649553572,174.95169173754178L681.3923130803572,275.7850263393842L682.5623410491072,282.58029742424304L682.9111692633928,176.17558829600992L684.3210166294643,397.98286584248905L684.5535687723216,178.59380490046283L684.6117068080358,446.78462323775653L685.9852179017857,391.025893660692L686.0942267187501,307.8828961069767L686.5738655133929,349.7773526219221L687.4895395758929,454.3389170628327L688.1072562053572,79.17712598580583L688.4996879464286,214.4301404586205L689.0665337946429,493.1614702550264L690.7670713392858,-592.0724378915934L691.0359597544644,140.58356873805704L691.6173401116072,103.33758103847504L692.7146955357143,-13.380441830708456L694.0809393750001,319.02252050088003L694.306224263393,336.27093381148114L694.5460436607143,111.49574212844554L695.374510669643,388.0835155294492L695.8323477008929,247.4354811998514L697.5474197544644,391.8139541791036L697.7581701339286,86.75399277760432L700.9412275892859,186.54853992278757L702.3220059375001,324.4897307524314L702.37287671875,105.52204083479369L703.3248870535715,91.73604586491217L703.4193613616072,-196.29452465130734L703.7536550669644,-199.45592520787167L703.9426036830358,52.03219071718365L704.9818210714286,181.00501795915457L707.7797140401786,279.33760186342096L708.1939475446429,6.183909379518962L708.9642765178572,346.4519882844044L709.4366480580358,472.1992651843107L710.9482369866073,-135.42099785804749L712.8667921651787,154.33934071430792L713.1865513616073,173.23905543180612L714.9088906696429,558.687708396178L715.3957967187501,-73.92108470659991L717.0890670089286,349.10444655785193L717.7576544196429,229.31639246757211L718.1137498883929,-73.2402861851912L718.8913461160714,304.672147489511L721.3622126339286,125.4603275152353L721.9799292633929,386.5454560701664L722.0962053348214,78.41341625727141L724.8722965401786,125.84735422867998L724.9958398660715,340.26667216190924L725.8025051116072,268.8774560919175L725.9405829464287,321.7455799029423L726.5292305580358,426.5333319352223L726.9798003348214,-300.1293095992161L728.4477857366072,242.83054211506476L729.9957109375001,248.95355361700058L734.5304777232144,381.61299347419003L734.6758228125,117.89067976291362L736.1728772321429,10.453378622348511L737.4373795089286,429.41313607876117L738.5274676785715,-265.7988979999836L738.6728127678573,336.3709228955782L738.6946145312501,418.01454211198364L739.1451843080358,270.54268378019333L739.3123311607144,-80.71948045033673L739.3341329241072,4.408295035362244L741.9430772767859,340.7309533724418L742.1320258928572,476.6949624235813L743.0476999553572,185.75352973204392L743.5055369866071,241.85893482428332L746.5577838616072,-55.40484105623682L746.986551875,36.27512860298157L747.0010863839286,160.44724071942844L747.2263712723216,369.44883114557996L747.7423463392857,189.07579634739804L749.4428838839286,356.82741808891296L750.1478075669643,322.4627429888798L751.9500866741073,308.73851390526846L755.0750060937501,-4.415256775342488L756.2377668080358,-174.70253919638117L758.5560209821429,47.819935055879455L758.8757801785715,-39.48152554035187L759.6897126785715,359.8390774497619L761.4919917857143,251.7977474240156L762.269588013393,394.86456402907L763.2797363839286,178.38903199709378L763.4759522544643,276.8287162780762L764.3988935714286,262.1600590485793L765.3945074330358,264.41525465708514L765.8014736830359,271.43310381357486L766.0340258258929,457.1809020592616L769.3115575892857,386.36589593153735L769.9583432366072,331.2043533141796L770.1254900892858,231.3147195669321L770.561525357143,328.7649913888711L772.5164168080357,-164.8649817063258L773.0977971651786,267.52585257016693L773.7082465401786,234.08036591456485L773.9989367187501,231.64033057139468L774.2169543526787,251.70026345436386L774.6893258928573,60.661636563447814L774.9218780357143,473.4329128334155L777.7270382589286,289.3088193306556L778.729919375,324.2503711076883L779.2386271875001,326.42041976176773L779.747335,257.7823580870261L780.6194055357143,266.18833695008203L780.9391647321429,123.35150601313664L781.9275113392858,-56.58068251609802L782.3417448437501,316.0451785142605L782.9885304910715,149.23714988048258L783.3809622321429,453.98663871104895L783.9623425892859,-99.2440206087552L784.7617405803572,359.88689011793866L784.8344131250001,543.5749994287124L785.873630513393,50.904512102787336L786.4041400892858,224.79317937447476L787.7994529464287,433.7022152497218L788.3081607589286,377.4633387373044L788.6642562276787,229.51297660974356L788.7950668080358,438.14960149159793L789.2601710937502,312.4847374695998L790.3429920089286,-193.91536628282984L792.0580640625001,422.124276638031L792.5304356026786,284.59985065460205L795.8079673660715,-123.23450499314526L795.9605797098214,256.77998906832477L796.5782963392858,234.975041948832L796.5928308482144,256.47355700456177L798.5549895535715,293.9125462632913L801.4618913392858,404.5754112142783L801.7453142633929,248.3751415472764L802.9516785044644,-98.61213916081647L803.5112570982143,404.0381584442578L803.6784039508929,142.98287576895495L804.8556991741071,-221.18641924858093L805.6332954017859,336.5797363061171L805.8658475446429,204.53606974161588L806.0620634151787,438.76098409982825L806.1274687053572,305.75519196803754L806.6434437723216,327.6944994192857L807.188487857143,-156.155695438385L807.7916699776786,294.01369362611035L808.3657830803572,433.41081387263074L809.0997757812501,220.9246900631831L809.2451208705357,304.3506578023617L809.7974322098215,382.01109117728015L810.2116657142858,47.92703543259548L810.2916055133929,136.26076480058524L811.6869183705359,212.48433995246887L813.37292140625,252.82778044847342L813.5182664955357,261.49105880810663L816.1126763392858,270.5899577140808L816.1635471205358,397.3576916364523L817.3844458705357,335.9073151029073L817.6315325223214,497.81474727392197L817.8640846651787,299.5156791760371L818.2565164062501,455.93847304124097L818.9105693080359,133.96710356382223L820.3276839285714,-468.9245674059941L820.9526678125001,-105.93332265890558L821.2070217187501,58.32121319037219L821.2796942633929,348.3677812906412L822.6968088839286,396.46236912103797L823.5034741294644,333.9901752609473L824.5572260267858,215.5685398853742L824.9569250223216,312.75286552539234L826.4975829687501,30.200468503511882L828.0818444419643,443.88154577291925L830.4727711607144,315.34751760959625L830.894271919643,319.7008139078434L833.5831560714286,329.82619019196585L834.3389505357143,193.14070818057425L834.4406920982143,295.26980649507965L834.5787699330358,337.2714711335989L834.8767273660715,259.59185881798084L834.9784689285715,85.92552718749414L835.0874777455357,121.49157975270198L835.1819520535715,431.74989605866944L835.4653749776786,416.44766036822244L835.7560651562501,217.25504757807803L835.8214704464286,-192.328901547652L836.2357039508929,289.87282025814056L836.4101180580358,-118.96546673774719L837.6455513169644,294.05883955955505L837.6600858258929,330.72805832899536L838.8882518303571,49.42363928831541L840.1672886160715,303.05510958341455L840.8358760267857,75.65326499938965L841.3591183482143,198.16370507387015L841.4608599107144,247.30230608353247L842.8634400223215,227.75066900253296L844.5276412946429,249.5548888307351L844.9418747991072,-141.50503193415125L845.8357470982144,280.85532410328204L847.1147838839287,248.99452435970306L847.8415093303572,73.62590012183557L848.5900365401786,269.7158343929511L851.0172995312502,-284.67065240786627L855.8209547321429,301.208436186497L856.1116449107144,320.3304865451959L856.3514643080358,391.7599191298852L863.785865625,382.5375692615142L865.5154721875001,318.91929901104703L866.5619568303572,467.6045485826639L868.41510671875,395.4631247612146L868.4441757366072,124.53014889130225L869.0182888392858,328.3550145947016L870.776964419643,437.148067511045L872.5283727455358,83.22054232083833L873.4585813169643,364.2895614138016L873.6984007142858,343.70872634649277L874.2943155803572,-3.965952378052938L875.1082480803573,166.11327086045193L875.5442833482144,48.517272719970116L876.3291468303572,174.0249071396314L876.5907679910715,391.8660767215949L876.7288458258929,372.6857622495064L877.4265022544644,-171.42568788161643L879.0180309821429,429.83755095188434L880.7476375446429,88.23982194753792L881.0455949776787,-246.84363977725684L881.6851133705358,359.6516248537944L883.2984438616072,260.88940035379846L883.5600650223215,289.7708647938875L884.410333794643,293.02910283895636L885.7838448883929,378.4890888241621L885.9873280133929,473.58161696562394L890.0206542410715,363.8569847161953L891.430501607143,391.2091441292029L891.7139245312501,258.38105350274304L893.1601081696429,207.25139830662656L896.2123550446429,505.67369533960635L897.2370379241072,416.3374083959139L898.1527119866072,94.40331933131586L899.2573346651787,355.5384424282954L900.9942084821429,-70.65937182536489L903.2615918750001,273.3685606213716L903.3051954017858,166.42735295112314L904.4752233705358,280.52338297091995L904.53336140625,226.54611300505124L906.2484334598215,-11.57320378376888L907.098702232143,341.89922561553806L909.1044644642858,121.18794910724345L909.4896289508929,166.72225610109476L912.084038794643,363.84941549943045L912.1712458482143,380.2228435140389L914.7874574553572,-113.66442907773526L915.9574854241073,192.89897810495816L916.6115383258929,263.0787626321499L918.4864899776786,263.66070341146906L918.9661287723214,278.70353854161044L920.2088292857144,73.52143954313719L920.5649247544643,-155.45512536855844L920.8410804241072,306.648790533726L921.088167075893,477.8553691460536L921.3643227455358,240.00245646330026L921.647745669643,-120.85566986524137L922.105582700893,128.17328564937296L922.4907471875,352.82596915501813L922.7741701116072,466.62345956839044L923.0575930357144,262.21500994608954L923.1593345982144,52.593174732648436L923.2828779241073,-221.35256490340598L924.0677414062501,254.08682941931943L924.2130864955358,184.72244617572198L924.4601731473216,115.62654116520514L924.8816739062501,351.493760067683L927.5560235491073,143.80347583844113L927.9266535267858,-159.908087510329L928.9368018973215,318.3986931305665L929.6053893080358,182.70542499652277L929.7798034151787,-119.0787086853614L931.3785993973215,210.43564119705786L931.5893497767858,446.88100280211523L934.9395540848216,69.17724785437952L936.8072384821429,369.8251909200962L937.0179888616073,406.50238295701837L937.4612913839287,120.641672537877L939.6705367410715,377.63220500029047L944.6994768303573,503.89627623558044L946.1456604687502,298.80325695184564L946.85785140625,407.36074830018555L948.2095607366073,-417.0813047702495L950.9493156696429,178.05582483915182L951.3853509375001,388.06899664035205L953.4056476785715,300.5718677502412L953.4129149330358,-14.335132864805317L954.2195801785715,36.367737027315L954.4230633035716,391.9368933439255L954.6410809375001,297.59735411864057L954.9390383705357,210.85633880358478L955.7820398883929,156.43469385917368L956.3198167187501,547.7448836381618L958.0784922991073,283.67306605669165L958.3837169866073,94.87401147989128L958.6453381473215,102.84911065835222L959.9752457142857,164.3602833564465L960.7673764508929,208.4925343623528L960.9926613392857,-249.86098278485807L961.5013691517859,181.9712917804718L963.1219668973215,-51.435985546845664L963.6016056919643,347.3044275503892" style="fill: none;" fill="none"></path></g></g></g></g></g></g><g transform="translate(63, 376)" clip-path="url(#clip_1)"><clipPath id="clip_1"><rect width="1017" height="24"></rect></clipPath><g><g><line x1="0" y1="0" x2="0" y2="5" style="visibility: inherit;" fill="rgb(0, 0, 0)" stroke="rgb(204, 204, 204)" stroke-width="1px"></line><line x1="72.67254464285715" y1="0" x2="72.67254464285715" y2="5" style="visibility: inherit;" fill="rgb(0, 0, 0)" stroke="rgb(204, 204, 204)" stroke-width="1px"></line><line x1="145.3450892857143" y1="0" x2="145.3450892857143" y2="5" style="visibility: inherit;" fill="rgb(0, 0, 0)" stroke="rgb(204, 204, 204)" stroke-width="1px"></line><line x1="218.01763392857143" y1="0" x2="218.01763392857143" y2="5" style="visibility: inherit;" fill="rgb(0, 0, 0)" stroke="rgb(204, 204, 204)" stroke-width="1px"></line><line x1="290.6901785714286" y1="0" x2="290.6901785714286" y2="5" style="visibility: inherit;" fill="rgb(0, 0, 0)" stroke="rgb(204, 204, 204)" stroke-width="1px"></line><line x1="363.3627232142858" y1="0" x2="363.3627232142858" y2="5" style="visibility: inherit;" fill="rgb(0, 0, 0)" stroke="rgb(204, 204, 204)" stroke-width="1px"></line><line x1="436.03526785714286" y1="0" x2="436.03526785714286" y2="5" style="visibility: inherit;" fill="rgb(0, 0, 0)" stroke="rgb(204, 204, 204)" stroke-width="1px"></line><line x1="508.70781250000005" y1="0" x2="508.70781250000005" y2="5" style="visibility: inherit;" fill="rgb(0, 0, 0)" stroke="rgb(204, 204, 204)" stroke-width="1px"></line><line x1="581.3803571428572" y1="0" x2="581.3803571428572" y2="5" style="visibility: inherit;" fill="rgb(0, 0, 0)" stroke="rgb(204, 204, 204)" stroke-width="1px"></line><line x1="654.0529017857144" y1="0" x2="654.0529017857144" y2="5" style="visibility: inherit;" fill="rgb(0, 0, 0)" stroke="rgb(204, 204, 204)" stroke-width="1px"></line><line x1="726.7254464285716" y1="0" x2="726.7254464285716" y2="5" style="visibility: inherit;" fill="rgb(0, 0, 0)" stroke="rgb(204, 204, 204)" stroke-width="1px"></line><line x1="799.3979910714286" y1="0" x2="799.3979910714286" y2="5" style="visibility: inherit;" fill="rgb(0, 0, 0)" stroke="rgb(204, 204, 204)" stroke-width="1px"></line><line x1="872.0705357142857" y1="0" x2="872.0705357142857" y2="5" style="visibility: inherit;" fill="rgb(0, 0, 0)" stroke="rgb(204, 204, 204)" stroke-width="1px"></line><line x1="944.743080357143" y1="0" x2="944.743080357143" y2="5" style="visibility: inherit;" fill="rgb(0, 0, 0)" stroke="rgb(204, 204, 204)" stroke-width="1px"></line><line x1="1017.4156250000001" y1="0" x2="1017.4156250000001" y2="5" style="visibility: inherit;" fill="rgb(0, 0, 0)" stroke="rgb(204, 204, 204)" stroke-width="1px"></line></g><g transform="translate(0, 8)"><text x="0" y="0" dx="0em" dy="0.95em" style="text-anchor: middle; visibility: hidden; font-family: Roboto, sans-serif; font-size: 12px; font-weight: 200;" fill="rgb(255, 255, 255)" stroke="none" stroke-width="1px">-10k</text><text x="72.67254464285715" y="0" dx="0em" dy="0.95em" style="text-anchor: middle; visibility: inherit; font-family: Roboto, sans-serif; font-size: 12px; font-weight: 200;" fill="rgb(255, 255, 255)" stroke="none" stroke-width="1px">0</text><text x="145.3450892857143" y="0" dx="0em" dy="0.95em" style="text-anchor: middle; visibility: inherit; font-family: Roboto, sans-serif; font-size: 12px; font-weight: 200;" fill="rgb(255, 255, 255)" stroke="none" stroke-width="1px">10k</text><text x="218.01763392857143" y="0" dx="0em" dy="0.95em" style="text-anchor: middle; visibility: inherit; font-family: Roboto, sans-serif; font-size: 12px; font-weight: 200;" fill="rgb(255, 255, 255)" stroke="none" stroke-width="1px">20k</text><text x="290.6901785714286" y="0" dx="0em" dy="0.95em" style="text-anchor: middle; visibility: inherit; font-family: Roboto, sans-serif; font-size: 12px; font-weight: 200;" fill="rgb(255, 255, 255)" stroke="none" stroke-width="1px">30k</text><text x="363.3627232142858" y="0" dx="0em" dy="0.95em" style="text-anchor: middle; visibility: inherit; font-family: Roboto, sans-serif; font-size: 12px; font-weight: 200;" fill="rgb(255, 255, 255)" stroke="none" stroke-width="1px">40k</text><text x="436.03526785714286" y="0" dx="0em" dy="0.95em" style="text-anchor: middle; visibility: inherit; font-family: Roboto, sans-serif; font-size: 12px; font-weight: 200;" fill="rgb(255, 255, 255)" stroke="none" stroke-width="1px">50k</text><text x="508.70781250000005" y="0" dx="0em" dy="0.95em" style="text-anchor: middle; visibility: inherit; font-family: Roboto, sans-serif; font-size: 12px; font-weight: 200;" fill="rgb(255, 255, 255)" stroke="none" stroke-width="1px">60k</text><text x="581.3803571428572" y="0" dx="0em" dy="0.95em" style="text-anchor: middle; visibility: inherit; font-family: Roboto, sans-serif; font-size: 12px; font-weight: 200;" fill="rgb(255, 255, 255)" stroke="none" stroke-width="1px">70k</text><text x="654.0529017857144" y="0" dx="0em" dy="0.95em" style="text-anchor: middle; visibility: inherit; font-family: Roboto, sans-serif; font-size: 12px; font-weight: 200;" fill="rgb(255, 255, 255)" stroke="none" stroke-width="1px">80k</text><text x="726.7254464285716" y="0" dx="0em" dy="0.95em" style="text-anchor: middle; visibility: inherit; font-family: Roboto, sans-serif; font-size: 12px; font-weight: 200;" fill="rgb(255, 255, 255)" stroke="none" stroke-width="1px">90k</text><text x="799.3979910714286" y="0" dx="0em" dy="0.95em" style="text-anchor: middle; visibility: inherit; font-family: Roboto, sans-serif; font-size: 12px; font-weight: 200;" fill="rgb(255, 255, 255)" stroke="none" stroke-width="1px">100k</text><text x="872.0705357142857" y="0" dx="0em" dy="0.95em" style="text-anchor: middle; visibility: inherit; font-family: Roboto, sans-serif; font-size: 12px; font-weight: 200;" fill="rgb(255, 255, 255)" stroke="none" stroke-width="1px">110k</text><text x="944.743080357143" y="0" dx="0em" dy="0.95em" style="text-anchor: middle; visibility: inherit; font-family: Roboto, sans-serif; font-size: 12px; font-weight: 200;" fill="rgb(255, 255, 255)" stroke="none" stroke-width="1px">120k</text><text x="1017.4156250000001" y="0" dx="0em" dy="0.95em" style="text-anchor: middle; visibility: hidden; font-family: Roboto, sans-serif; font-size: 12px; font-weight: 200;" fill="rgb(255, 255, 255)" stroke="none" stroke-width="1px">130k</text></g><line x1="0" y1="0" x2="1017.4156250000001" y2="0" fill="rgb(0, 0, 0)" stroke="rgb(204, 204, 204)" stroke-width="1px"></line></g></g></g></g></svg>