<svg viewBox="0 0 1112.5999755859375 400" xmlns="http://www.w3.org/2000/svg"><g><g><g><g><g><line x1="53.1875" y1="376" x2="48.1875" y2="376" style="visibility: inherit;" fill="rgb(0, 0, 0)" stroke="rgb(204, 204, 204)" stroke-width="1px"></line><line x1="53.1875" y1="350.9333333333333" x2="48.1875" y2="350.9333333333333" style="visibility: inherit;" fill="rgb(0, 0, 0)" stroke="rgb(204, 204, 204)" stroke-width="1px"></line><line x1="53.1875" y1="325.8666666666666" x2="48.1875" y2="325.8666666666666" style="visibility: inherit;" fill="rgb(0, 0, 0)" stroke="rgb(204, 204, 204)" stroke-width="1px"></line><line x1="53.1875" y1="300.79999999999995" x2="48.1875" y2="300.79999999999995" style="visibility: inherit;" fill="rgb(0, 0, 0)" stroke="rgb(204, 204, 204)" stroke-width="1px"></line><line x1="53.1875" y1="275.7333333333333" x2="48.1875" y2="275.7333333333333" style="visibility: inherit;" fill="rgb(0, 0, 0)" stroke="rgb(204, 204, 204)" stroke-width="1px"></line><line x1="53.1875" y1="250.66666666666686" x2="48.1875" y2="250.66666666666686" style="visibility: inherit;" fill="rgb(0, 0, 0)" stroke="rgb(204, 204, 204)" stroke-width="1px"></line><line x1="53.1875" y1="225.60000000000016" x2="48.1875" y2="225.60000000000016" style="visibility: inherit;" fill="rgb(0, 0, 0)" stroke="rgb(204, 204, 204)" stroke-width="1px"></line><line x1="53.1875" y1="200.53333333333345" x2="48.1875" y2="200.53333333333345" style="visibility: inherit;" fill="rgb(0, 0, 0)" stroke="rgb(204, 204, 204)" stroke-width="1px"></line><line x1="53.1875" y1="175.46666666666678" x2="48.1875" y2="175.46666666666678" style="visibility: inherit;" fill="rgb(0, 0, 0)" stroke="rgb(204, 204, 204)" stroke-width="1px"></line><line x1="53.1875" y1="150.4000000000001" x2="48.1875" y2="150.4000000000001" style="visibility: inherit;" fill="rgb(0, 0, 0)" stroke="rgb(204, 204, 204)" stroke-width="1px"></line><line x1="53.1875" y1="125.33333333333343" x2="48.1875" y2="125.33333333333343" style="visibility: inherit;" fill="rgb(0, 0, 0)" stroke="rgb(204, 204, 204)" stroke-width="1px"></line><line x1="53.1875" y1="100.26666666666672" x2="48.1875" y2="100.26666666666672" style="visibility: inherit;" fill="rgb(0, 0, 0)" stroke="rgb(204, 204, 204)" stroke-width="1px"></line><line x1="53.1875" y1="75.20000000000007" x2="48.1875" y2="75.20000000000007" style="visibility: inherit;" fill="rgb(0, 0, 0)" stroke="rgb(204, 204, 204)" stroke-width="1px"></line><line x1="53.1875" y1="50.13333333333336" x2="48.1875" y2="50.13333333333336" style="visibility: inherit;" fill="rgb(0, 0, 0)" stroke="rgb(204, 204, 204)" stroke-width="1px"></line><line x1="53.1875" y1="25.066666666666702" x2="48.1875" y2="25.066666666666702" style="visibility: inherit;" fill="rgb(0, 0, 0)" stroke="rgb(204, 204, 204)" stroke-width="1px"></line><line x1="53.1875" y1="0" x2="48.1875" y2="0" style="visibility: inherit;" fill="rgb(0, 0, 0)" stroke="rgb(204, 204, 204)" stroke-width="1px"></line></g><g transform="translate(43.1875, 0)"><text x="0" y="376" dx="0em" dy="0.3em" style="text-anchor: end; visibility: hidden; font-family: Roboto, sans-serif; font-size: 12px; font-weight: 200;" fill="rgb(33, 33, 33)" stroke="none" stroke-width="1px">1.28</text><text x="0" y="350.9333333333333" dx="0em" dy="0.3em" style="text-anchor: end; visibility: inherit; font-family: Roboto, sans-serif; font-size: 12px; font-weight: 200;" fill="rgb(33, 33, 33)" stroke="none" stroke-width="1px">1.3</text><text x="0" y="325.8666666666666" dx="0em" dy="0.3em" style="text-anchor: end; visibility: inherit; font-family: Roboto, sans-serif; font-size: 12px; font-weight: 200;" fill="rgb(33, 33, 33)" stroke="none" stroke-width="1px">1.32</text><text x="0" y="300.79999999999995" dx="0em" dy="0.3em" style="text-anchor: end; visibility: inherit; font-family: Roboto, sans-serif; font-size: 12px; font-weight: 200;" fill="rgb(33, 33, 33)" stroke="none" stroke-width="1px">1.34</text><text x="0" y="275.7333333333333" dx="0em" dy="0.3em" style="text-anchor: end; visibility: inherit; font-family: Roboto, sans-serif; font-size: 12px; font-weight: 200;" fill="rgb(33, 33, 33)" stroke="none" stroke-width="1px">1.36</text><text x="0" y="250.66666666666686" dx="0em" dy="0.3em" style="text-anchor: end; visibility: inherit; font-family: Roboto, sans-serif; font-size: 12px; font-weight: 200;" fill="rgb(33, 33, 33)" stroke="none" stroke-width="1px">1.38</text><text x="0" y="225.60000000000016" dx="0em" dy="0.3em" style="text-anchor: end; visibility: inherit; font-family: Roboto, sans-serif; font-size: 12px; font-weight: 200;" fill="rgb(33, 33, 33)" stroke="none" stroke-width="1px">1.4</text><text x="0" y="200.53333333333345" dx="0em" dy="0.3em" style="text-anchor: end; visibility: inherit; font-family: Roboto, sans-serif; font-size: 12px; font-weight: 200;" fill="rgb(33, 33, 33)" stroke="none" stroke-width="1px">1.42</text><text x="0" y="175.46666666666678" dx="0em" dy="0.3em" style="text-anchor: end; visibility: inherit; font-family: Roboto, sans-serif; font-size: 12px; font-weight: 200;" fill="rgb(33, 33, 33)" stroke="none" stroke-width="1px">1.44</text><text x="0" y="150.4000000000001" dx="0em" dy="0.3em" style="text-anchor: end; visibility: inherit; font-family: Roboto, sans-serif; font-size: 12px; font-weight: 200;" fill="rgb(33, 33, 33)" stroke="none" stroke-width="1px">1.46</text><text x="0" y="125.33333333333343" dx="0em" dy="0.3em" style="text-anchor: end; visibility: inherit; font-family: Roboto, sans-serif; font-size: 12px; font-weight: 200;" fill="rgb(33, 33, 33)" stroke="none" stroke-width="1px">1.48</text><text x="0" y="100.26666666666672" dx="0em" dy="0.3em" style="text-anchor: end; visibility: inherit; font-family: Roboto, sans-serif; font-size: 12px; font-weight: 200;" fill="rgb(33, 33, 33)" stroke="none" stroke-width="1px">1.5</text><text x="0" y="75.20000000000007" dx="0em" dy="0.3em" style="text-anchor: end; visibility: inherit; font-family: Roboto, sans-serif; font-size: 12px; font-weight: 200;" fill="rgb(33, 33, 33)" stroke="none" stroke-width="1px">1.52</text><text x="0" y="50.13333333333336" dx="0em" dy="0.3em" style="text-anchor: end; visibility: inherit; font-family: Roboto, sans-serif; font-size: 12px; font-weight: 200;" fill="rgb(33, 33, 33)" stroke="none" stroke-width="1px">1.54</text><text x="0" y="25.066666666666702" dx="0em" dy="0.3em" style="text-anchor: end; visibility: inherit; font-family: Roboto, sans-serif; font-size: 12px; font-weight: 200;" fill="rgb(33, 33, 33)" stroke="none" stroke-width="1px">1.56</text><text x="0" y="0" dx="0em" dy="0.3em" style="text-anchor: end; visibility: hidden; font-family: Roboto, sans-serif; font-size: 12px; font-weight: 200;" fill="rgb(33, 33, 33)" stroke="none" stroke-width="1px">1.58</text></g><line x1="53.1875" y1="0" x2="53.1875" y2="376" fill="rgb(0, 0, 0)" stroke="rgb(204, 204, 204)" stroke-width="1px"></line></g></g><g transform="translate(53, 0)" clip-path="url(#clip_0)"><clipPath id="clip_0"><rect width="1059" height="376"></rect></clipPath><g><g><g><line x1="0" y1="0" x2="0" y2="376" fill="rgb(0, 0, 0)" stroke="rgb(66, 66, 66)" stroke-width="1px" opacity="0.25"></line><line x1="88.28437499999998" y1="0" x2="88.28437499999998" y2="376" fill="rgb(0, 0, 0)" stroke="rgb(66, 66, 66)" stroke-width="1px" opacity="0.25"></line><line x1="176.56874999999997" y1="0" x2="176.56874999999997" y2="376" fill="rgb(0, 0, 0)" stroke="rgb(66, 66, 66)" stroke-width="1px" opacity="0.25"></line><line x1="264.853125" y1="0" x2="264.853125" y2="376" fill="rgb(0, 0, 0)" stroke="rgb(66, 66, 66)" stroke-width="1px" opacity="0.25"></line><line x1="353.13749999999993" y1="0" x2="353.13749999999993" y2="376" fill="rgb(0, 0, 0)" stroke="rgb(66, 66, 66)" stroke-width="1px" opacity="0.25"></line><line x1="441.421875" y1="0" x2="441.421875" y2="376" fill="rgb(0, 0, 0)" stroke="rgb(66, 66, 66)" stroke-width="1px" opacity="0.25"></line><line x1="529.70625" y1="0" x2="529.70625" y2="376" fill="rgb(0, 0, 0)" stroke="rgb(66, 66, 66)" stroke-width="1px" opacity="0.25"></line><line x1="617.990625" y1="0" x2="617.990625" y2="376" fill="rgb(0, 0, 0)" stroke="rgb(66, 66, 66)" stroke-width="1px" opacity="0.25"></line><line x1="706.2749999999999" y1="0" x2="706.2749999999999" y2="376" fill="rgb(0, 0, 0)" stroke="rgb(66, 66, 66)" stroke-width="1px" opacity="0.25"></line><line x1="794.5593749999999" y1="0" x2="794.5593749999999" y2="376" fill="rgb(0, 0, 0)" stroke="rgb(66, 66, 66)" stroke-width="1px" opacity="0.25"></line><line x1="882.84375" y1="0" x2="882.84375" y2="376" fill="rgb(0, 0, 0)" stroke="rgb(66, 66, 66)" stroke-width="1px" opacity="0.25"></line><line x1="971.1281249999998" y1="0" x2="971.1281249999998" y2="376" fill="rgb(0, 0, 0)" stroke="rgb(66, 66, 66)" stroke-width="1px" opacity="0.25"></line><line x1="1059.4125" y1="0" x2="1059.4125" y2="376" fill="rgb(0, 0, 0)" stroke="rgb(66, 66, 66)" stroke-width="1px" opacity="0.25"></line></g><g><line x1="0" y1="376" x2="1059.4125" y2="376" fill="rgb(0, 0, 0)" stroke="rgb(66, 66, 66)" stroke-width="1px" opacity="0.25"></line><line x1="0" y1="350.9333333333333" x2="1059.4125" y2="350.9333333333333" fill="rgb(0, 0, 0)" stroke="rgb(66, 66, 66)" stroke-width="1px" opacity="0.25"></line><line x1="0" y1="325.8666666666666" x2="1059.4125" y2="325.8666666666666" fill="rgb(0, 0, 0)" stroke="rgb(66, 66, 66)" stroke-width="1px" opacity="0.25"></line><line x1="0" y1="300.79999999999995" x2="1059.4125" y2="300.79999999999995" fill="rgb(0, 0, 0)" stroke="rgb(66, 66, 66)" stroke-width="1px" opacity="0.25"></line><line x1="0" y1="275.7333333333333" x2="1059.4125" y2="275.7333333333333" fill="rgb(0, 0, 0)" stroke="rgb(66, 66, 66)" stroke-width="1px" opacity="0.25"></line><line x1="0" y1="250.66666666666686" x2="1059.4125" y2="250.66666666666686" fill="rgb(0, 0, 0)" stroke="rgb(66, 66, 66)" stroke-width="1px" opacity="0.25"></line><line x1="0" y1="225.60000000000016" x2="1059.4125" y2="225.60000000000016" fill="rgb(0, 0, 0)" stroke="rgb(66, 66, 66)" stroke-width="1px" opacity="0.25"></line><line x1="0" y1="200.53333333333345" x2="1059.4125" y2="200.53333333333345" fill="rgb(0, 0, 0)" stroke="rgb(66, 66, 66)" stroke-width="1px" opacity="0.25"></line><line x1="0" y1="175.46666666666678" x2="1059.4125" y2="175.46666666666678" fill="rgb(0, 0, 0)" stroke="rgb(66, 66, 66)" stroke-width="1px" opacity="0.25"></line><line x1="0" y1="150.4000000000001" x2="1059.4125" y2="150.4000000000001" fill="rgb(0, 0, 0)" stroke="rgb(66, 66, 66)" stroke-width="1px" opacity="0.25"></line><line x1="0" y1="125.33333333333343" x2="1059.4125" y2="125.33333333333343" fill="rgb(0, 0, 0)" stroke="rgb(66, 66, 66)" stroke-width="1px" opacity="0.25"></line><line x1="0" y1="100.26666666666672" x2="1059.4125" y2="100.26666666666672" fill="rgb(0, 0, 0)" stroke="rgb(66, 66, 66)" stroke-width="1px" opacity="0.25"></line><line x1="0" y1="75.20000000000007" x2="1059.4125" y2="75.20000000000007" fill="rgb(0, 0, 0)" stroke="rgb(66, 66, 66)" stroke-width="1px" opacity="0.25"></line><line x1="0" y1="50.13333333333336" x2="1059.4125" y2="50.13333333333336" fill="rgb(0, 0, 0)" stroke="rgb(66, 66, 66)" stroke-width="1px" opacity="0.25"></line><line x1="0" y1="25.066666666666702" x2="1059.4125" y2="25.066666666666702" fill="rgb(0, 0, 0)" stroke="rgb(66, 66, 66)" stroke-width="1px" opacity="0.25"></line><line x1="0" y1="0" x2="1059.4125" y2="0" fill="rgb(0, 0, 0)" stroke="rgb(66, 66, 66)" stroke-width="1px" opacity="0.25"></line></g></g></g><g><g><line x1="0" y1="1980.2666666666664" x2="1059.4125" y2="1980.2666666666664" fill="rgb(0, 0, 0)" stroke="rgb(153, 153, 153)" stroke-width="1.5px"></line></g></g><g><g><line x1="88.28437499999998" y1="0" x2="88.28437499999998" y2="376" fill="rgb(0, 0, 0)" stroke="rgb(153, 153, 153)" stroke-width="1.5px"></line></g></g><g><g><g><g><g><path stroke="rgb(255, 112, 67)" stroke-width="2px" d="M92.6756398125,-93.2299570570249L94.01756231249999,52.19844115334736L96.21760893749999,79.27994582586672L97.35118031249999,82.509540713812L98.71605674999999,120.24414707102059L100.11448125,92.16255242918177L100.13566949999999,85.58270585012022L100.5859198125,62.778457095717L101.4634665,138.66058518470504L102.05497181249999,100.35941366583346L102.116770875,102.13477042136721L103.2909530625,101.29870188321777L104.63640693749998,130.00523841524233L105.00366993749998,62.34177734065274L106.64752499999999,1.8093842744680977L107.54096287499999,8.584823411434133L107.64866981249999,27.989621504183113L108.64804893749998,24.7638802780782L109.419654375,2.247398303635154L111.02289862499998,-32.20885129116702L111.30011156249999,-44.42520630785605L113.52487781249998,57.590673336797686L114.18524493749999,-8.184000636594462L114.38123624999999,-23.66716574940085L116.7419604375,19.379945313983747L118.05033487499999,-28.17669813923313L118.862551125,15.826119987885694L119.26159649999998,29.53695228998539L122.77178324999998,20.015517845390935L122.96424318749999,-16.595477734927094L123.70936331249999,57.35436415369698L124.55159624999999,-109.206602273289L124.62045806249998,-20.25348138138778L125.10955349999999,66.3122845685581L125.50683318749998,26.077402268994874L125.61983718749998,11.819279036916807L125.92883249999998,42.308675934386955L127.7139425625,-68.47114428685656L127.76338181249999,83.1550988723711L129.4019398125,113.20598794321238L129.534366375,95.40962344612188L129.65090175,137.9260020850506L130.07996381249998,132.1608251991744L130.134700125,144.99889161407418L130.92219674999998,101.52061090834032L131.23119206249999,125.46568848512322L131.9462955,88.48200540673348L132.3117928125,143.41772507429374L132.87504712499998,168.9879545839677L135.601268625,81.76304135592378L139.4381075625,87.01108978751306L139.4840154375,111.47723299441614L140.954833125,125.25401059336231L142.08663881249998,116.73194671042786L142.33736643749998,169.64467248182382L142.5033410625,52.19543269034718L143.7393223125,-4.833219918669744L143.80465274999997,-15.542821508086549L144.6751366875,34.99705601686057L145.55621474999998,-8.961395346996104L146.87341762499997,50.163179067843984L147.855139875,-13.940170765674134L147.876328125,19.955391253974632L147.939892875,86.68570967710811L148.03524,85.5216264084786L148.10057043749998,81.20915260289956L148.16590087499998,73.25011680588045L148.9586945625,92.87909774262656L149.246501625,137.23887867934863L149.37716249999997,143.06430890723485L150.93803025,134.6198176441455L151.767903375,-31.846401802428712L151.916221125,57.827361300948574L152.961508125,98.1702887491563L153.01447875,114.76814014809418L153.35172506249998,76.41659402944889L153.9732470625,55.65714010297205L154.479999375,55.53254913746697L154.96556343749998,67.86501476283512L155.16332043749998,97.06099275459253L156.65356068749998,83.7390130009814L156.86544318749998,75.80511063058569L157.6705966875,108.47345089983581L158.38746581249998,94.39295049392148L160.31383087499998,107.58199842542183L161.1578295,25.513213846106122L162.68161781249998,83.61368656775488L163.2713574375,72.98616833103387L165.33897749999997,106.25102625496788L165.466107,75.24325221741755L165.63208162499998,144.4788740497703L165.964030875,156.43045680494347L166.3295281875,108.93086914522185L166.41957825,73.49160747549578L166.5131596875,49.488427721788284L167.41719168749998,95.77501169085284L167.6785134375,96.33492593947929L168.3989139375,120.41231939425406L168.63728174999997,121.34782127318965L168.90390056249998,138.7793680161925L170.09750531249998,107.58713741127798L170.236994625,53.01221042528243L172.58712468749997,58.351482749309945L172.9861700625,77.86978918571893L173.358730125,132.12217014229063L175.28509518749996,157.3330759501205L176.6693941875,188.19405801310617L178.01661375,165.69035306144443L178.57280531249998,109.92445440074988L178.73701425,121.12678425340559L179.7452218125,106.18232675728437L181.7016035625,37.73952463509985L182.03002143749998,75.04279579505737L182.6939199375,111.5397830576825L183.3896008125,118.69854085511732L185.05817549999998,117.99080608248774L187.759677375,25.942186286211417L188.084563875,36.56059817919754L188.61250443749998,37.56403819828982L191.965545,38.8651569277631L192.0132185625,52.41623170955492L192.04323524999998,33.71314397364971L194.54344874999998,35.24089714672242L194.55404287499996,-4.126696758353374L195.06609224999997,7.023084321289953L198.00419625,45.1854159410814L198.72459675,44.31190655724305L200.7092295,-0.30153292519196917L202.210063875,72.10718535759648L204.19116524999998,90.43419758744209L206.21111175,49.10463232199632L206.62428262499998,9.279637150766131L207.36410568749997,6.015151014011328L210.445230375,-46.78466615632319L210.921966,82.8955242604704L211.3881075,78.56503784322912L211.73418225,109.59906512537114L212.70001331249998,82.76060520274557L212.90836443749998,117.6352145417319L213.04255668749997,102.15391325059267L213.64289043749997,99.23921822013098L214.40566743749997,127.64979832709818L215.24966606249998,66.41343281909425L215.33971612499997,113.82813181466632L215.37856125,79.23407274317813L215.4368289375,103.90256787279499L216.69223275,136.8900243560827L217.197219375,61.18739250264699L221.57259299999998,72.83801035103478L222.86331056249998,142.40450588713446L224.07810356249996,29.338714986544936L224.09046337499998,52.12964968691391L226.37702868749997,66.0495400461164L227.63419818749998,106.20867310400442L227.72777962499998,87.26910858652397L227.78428162499998,91.78497421563517L230.2297588125,154.16377714209287L230.62350712499997,181.60480198064954L231.29976543749999,99.28797106265712L231.33331349999997,100.0746659282029L235.30964174999997,83.23938609460083L237.32605687499998,64.81643703599251L237.66506887499997,105.3127685631484L238.52672437499996,132.76757914732912L240.1599853125,79.88093409524966L241.51250193749996,103.09989514342908L241.662585375,104.0152996348856L241.91507868749997,132.92965717757858L242.59486837499998,97.3847449901408L243.90853987499997,154.16857140000897L244.85671406249998,117.26745204410712L246.04502174999996,96.14837924648396L246.07327274999997,92.4852210903709L247.15034212499998,122.62456832316789L247.61648362499997,90.22168832056076L249.49340943749996,126.05375131427665L250.06549218749998,28.279564326163673L250.106103,16.07215967724116L250.94127318749997,75.06259217271848L252.8888265,116.43918707853342L253.32671699999997,112.21215024760835L254.08596262499998,112.25926911178108L255.6450646875,76.53265761778458L256.12709737499995,54.46379429804698L256.69211737499995,143.33335175379565L256.87398318749996,96.79072414635297L258.323612625,122.46065742889243L261.2987960625,112.9437102328891L262.1604515625,126.36811044759494L263.186316,160.01549222477442L264.65007093749995,99.07598270262162L266.36985056249995,89.06530000975664L266.7477076875,134.90727143651824L267.21208349999995,60.737912819186164L268.25030775,44.33044437730253L268.2856215,91.94369519490374L269.94007068749994,95.75583335839718L269.994807,64.34858322630124L270.09191981249995,85.65096293423467L270.153718875,150.19793946504927L270.17137575,105.82467350975884L271.82405924999995,131.76052076031505L272.40497043749997,180.02287292168396L272.50738031249995,133.10180012833567L273.4996966875,199.99991990040613L273.54913593749995,105.21734655287383L273.847537125,135.47995001546477L274.44963656249996,71.4815799844577L275.04997031249997,66.9701871569343L275.92045425,34.6784019670121L276.44839481249994,121.86492041197799L278.69258362499994,52.41216142483993L280.01508356249997,110.16745839461777L282.90727968749997,100.62426613377582L283.2498230625,79.0941680888755L283.64357137499996,112.95360941452303L284.84777025,96.09321321544563L285.5099030625,117.02822468219709L287.6357908125,59.37890568537599L288.3773795624999,17.582661963878863L289.11720262499995,99.92393352272836L289.53920193749997,129.64412360240658L290.0900964375,83.84080318162626L291.5097091875,97.37659504781054L292.2336410625,107.16977732084138L292.2548293125,139.4291603988525L292.89047681249997,142.11194376942217L294.29419837499995,142.10237907089797L294.3612945,120.35273359488252L294.488424,68.56191593411046L294.9545655,119.94325114331158L295.99278975,71.39249752029681L296.328270375,-38.37935785175432L296.533090125,67.65554426518432L296.97274631249996,101.06467574123951L302.27334018749997,154.8909265181488L302.27510587499995,118.46697458154361L302.52053643749997,120.85217785195333L302.64590024999995,106.4241943861397L303.40867725,170.00981178752693L304.061981625,166.68841789527002L304.7982733125,176.4521555548702L304.8194615625,144.25832244669144L305.58576993749995,166.22850380330135L306.6416510625,115.39000180794116L307.5792311249999,155.01481249630444L309.50912756249994,139.79365729351846L313.48545581249994,140.66574780221788L313.65319612499997,176.16349195525657L316.3176185625,195.21974876812465L316.62131681249997,220.14136830384342L316.7766973125,67.14382936446756L316.94620331249996,104.10297354234602L317.9508795,120.05193060978266L320.7918706875,135.16694770302794L321.1379454375,131.9220884826566L324.6410694375,130.0366696850528L325.55216418749995,113.4801966454229L325.57511812499996,181.30723048521912L325.7252015625,167.06905722423673L326.436773625,94.19459249697708L327.739851,108.79361996962196L328.788669375,105.13780792741123L329.6079483749999,145.7760493194348L329.61677681249995,186.79060375344488L330.28244099999995,86.83175396552714L331.18294162499996,46.384137523359364L333.60899624999996,74.83697523048697L334.1722505625,37.15722064040805L334.42827524999996,85.14409317729505L334.50949687499997,103.81961539124033L335.4382485,121.47108935396625L335.508876,107.39341624665711L335.56184662499993,64.98513610256788L335.57950349999993,141.88418123022578L335.71369574999994,121.90846294142318L336.8066563125,101.68079614864295L337.228655625,114.65494436399031L337.6400608125,100.24114405776587L338.817774375,152.4126563036374L339.35984043749994,105.51215636356261L339.361606125,123.50683819069616L340.339797,69.69215385842807L340.58875893749996,106.69348913309088L341.10787106249995,142.78974343306092L342.4003543124999,179.44343590358648L342.94418606249997,90.21907576334333L343.048361625,123.65679930932451L343.2584784375,171.07645604026584L346.6274101875,90.94898194121681L347.3054341875,115.43446088103885L348.70915575,163.3727117459087L349.94160562499997,155.89956302166635L350.6743659375,152.01546118132686L350.79619837499996,142.45551806214908L350.80326112499995,117.77037031604928L352.1540120625,-87.36307169464794L352.5795427499999,1.772711385880541L352.9379773125,49.10098172044436L354.47765681249996,112.57110345690867L354.66305399999993,130.77359504737103L354.97911206249995,170.30194857301913L355.00383168749994,178.7275496064579L355.06739643749995,186.93364671740667L355.13978962499993,119.9588967299885L355.30576425,194.29100688158036L355.39228293749994,153.83293807263308L355.8637215,136.84011099828365L357.59409524999995,104.53487445012576L358.02315731249996,142.23875085212288L362.30141812499994,111.34714414734141L362.9988646875,81.8245842484147L363.2389981875,128.1287307024506L363.26548349999996,53.001483213137L364.88461893749997,102.35148817413881L365.6120821875,82.89307328371493L365.7286175625,23.45077937468864L366.2583238125,35.811782932430305L366.59910149999996,53.075034236997254L369.7508536875,126.09833688741323L370.40592375,143.332103023561L371.15280956249995,216.96487369157802L371.2410939375,116.24639613877486L371.5447921875,204.54800105403316L372.04624743749997,208.87076342131968L372.84257249999996,212.56813483094925L372.89201175,210.78251664075722L373.2045384375,196.2739000397929L374.2392313125,181.28614239203958L374.69124731249997,180.48378906274647L375.35691149999997,249.24142506932105L375.720643125,183.80174194344815L376.6158466875,159.7556546427942L378.95714831249995,169.32959807742478L380.4420915,152.51476257977208L380.67869362499994,182.84547162257036L381.03712818749995,167.77535889110416L381.91644056249993,136.44039625303796L383.56912406249995,120.34760577346992L383.8551654374999,80.80069359103499L384.29305593749996,94.929195044595L384.98697112499997,142.0925828430006L387.25764524999994,95.38784732339475L387.6655190625,107.4532870073183L388.22877337499995,148.30287694885737L388.38768525,112.20344537707791L388.7849649374999,105.52167772022473L389.327031,148.4971981197652L390.5930289375,179.35177763243834L391.31342943749996,155.88490599596688L391.38229125,98.1440736329804L391.399948125,75.31740589040048L393.7006389375,91.55316285390178L393.914287125,133.35276319085676L394.05730781249997,96.39301584501524L394.7318004375,109.6436493202417L395.06551537499996,162.4062636481345L396.2467603125,157.8222347513808L396.65816549999994,119.23464013671718L400.0765364999999,102.78779727579652L402.184767375,173.21691623982682L402.91752768749996,180.13294932478803L403.745635125,199.15665110528943L403.816262625,159.5991034764875L404.69027793749996,206.51219096772843L406.04985731249997,128.23435630833876L406.66608224999993,130.1575595349218L407.962096875,176.61150613924735L408.06627243749995,151.73921849271184L408.6930915,170.40125061873934L408.9985554375,189.58557494603224L409.7948805,176.48151881608942L411.11561474999996,140.87061101702994L411.3080746874999,76.8097342147914L411.31690312499995,159.70985135244254L411.80246718749993,157.03414506439526L411.8854545,187.12936165208117L412.2650773125,229.64569723213407L412.4628343125,138.97693132959608L414.488077875,173.76715306045298L415.04073806249994,147.97984683912026L416.71284412499995,122.94989042362192L417.1136551875,125.80876034466796L417.91880868749996,185.47952536166733L418.6286150625,115.62192857556158L418.7168994375,83.73271280939964L419.6597765625,87.64175282805523L420.13474649999995,120.88997326665756L420.21596812499996,139.10205606285905L422.45839125,146.24435802736363L422.5696295625,145.0244367768672L423.648464625,105.92712758125721L424.36356806249995,55.72555129851017L424.54719956249994,85.50254457508595L427.67776349999997,102.05352320501257L431.92600762499995,112.77938448168264L433.119612375,181.30401257580957L433.3014781874999,167.2247230667261L433.68816374999994,200.30453761607728L435.64277981249995,227.97291050706488L435.7310641875,217.40397167655328L438.24716887499994,207.01099552424236L439.39486574999995,206.51167783008913L439.4019285,208.28062460780282L440.16470549999997,163.17091367459366L440.82683831249994,174.5834565096066L441.79620074999997,162.7531868004581L443.897368875,182.36516647480624L444.5753928749999,213.64815475548917L444.81376068749995,227.105801219179L446.6659668749999,187.28710271026708L449.815953375,193.564185505148L451.01485518749996,192.57905044696906L452.2119913125,168.0281483467947L453.87173756249996,163.09005068003313L454.858756875,196.5665472944131L456.86987493749996,148.2720207635293L457.1982928125,221.23459902427982L459.0593274375,236.75251387013444L459.417762,235.92054478041402L461.27173387499994,161.02525533504536L462.0751216875,85.11691569288918L464.55238124999994,27.430221335492543L464.6883391875,115.34061733905604L465.90842925,134.11985970193606L466.29334912499996,124.49632489912402L466.35514818749994,136.09476261118692L467.2203350625,105.74449143715478L467.4269205,112.2702397841679L468.49163006249995,157.45908178757423L469.59165337499996,63.900434424107274L469.71525149999997,55.80047092057756L469.7664564374999,101.68324743678679L472.97117925,128.00096749486843L473.5944669375,161.28338648650433L473.63507774999994,151.1543398549562L475.87926656249994,165.82091390035993L476.36659631249995,174.54597454871197L476.49196012499993,189.80527749859573L477.2052978749999,192.27594309014043L478.21527112499996,227.2946214876293L478.97981381249997,171.06634818961538L480.17694993749996,130.12858871927062L480.34645593749997,120.27094376907867L482.982627375,157.5568865332572L485.292146625,107.91093510192022L485.92602843749995,150.20763726354477L487.76764049999997,146.9777840081107L487.940677875,183.0467664843751L487.961866125,188.14033492521176L489.82290075,222.32637406100264L490.80109162499997,295.09438461726563L490.804623,326.8937916183413L491.1648232499999,278.6219610570236L491.89228649999995,266.69477300872586L491.89758356249996,226.1039585317981L492.62681249999997,295.30207960719724L493.14062756249996,226.53597147851104L493.41254343749995,197.1136809706027L493.64031712499997,156.3894092456102L494.82332775,170.42897239062796L496.20056399999993,267.3550575880225L498.03158193749994,251.23245451537855L498.2328703124999,216.7459463522122L498.26465268749996,238.39451335779538L498.69371474999997,262.42623194045836L500.52120131249995,306.8093528015635L500.5476866249999,292.9572217883601L500.8072426874999,271.1007046855649L501.1197693749999,196.4411134241319L501.34577737499995,200.77097029040044L502.26570056249994,219.95106951961807L503.07615112499997,217.3316139000847L503.32687875,205.95177911072153L503.60232599999995,180.2082237367779L503.76830062499994,184.38014649182256L506.58810356249995,183.0397841129483L508.60275299999995,164.59855420393436L509.60566349999993,185.97743757607145L509.95703531249995,202.17316308682155L510.88225556249995,221.30252720593393L512.2171153124999,219.91059433666283L514.75440825,219.14912312218001L514.9274456249999,234.21278508139733L515.6955196875,189.50289596338928L516.1846151249999,235.61388265859992L518.3564107499999,212.10604764325558L520.7030094375,238.19660445672136L522.1402790625,202.4619004588635L522.7335500625,219.99925036239497L524.3032462499999,253.73748443171095L525.3061567499999,197.4344412408952L525.6363403124999,222.46560615078712L526.6922214374999,214.74587253039746L526.94471475,220.2670894565521L527.8717006874999,203.169238659283L529.1359329375,169.8200880665823L529.7503921875,205.50554272845838L530.1353120624999,186.62097558010913L531.2423981249999,209.0765054327009L532.0369575,217.46985838860832L532.7008559999999,209.73959030578862L532.8791904374999,236.24758322400055L532.9021443749999,229.6938193028901L533.3559260625,205.55543124034386L533.83795875,203.40180641266338L534.272317875,260.10983750970735L535.3582156875,253.39262125582448L535.780215,228.3589752600052L537.2898778125,197.00139421972384L537.5158858125,204.4244363853499L537.8319438749999,159.10421510472878L537.9890900624999,133.41214845777534L539.3522008125,200.43916794022516L540.2933122499999,225.0245711173252L541.5910925625,291.3627881212417L541.9707153749999,222.45586674074656L543.9429883125,236.8366602523743L544.199013,201.15766540191302L544.4515063125,261.9909453715187L544.8364261874999,250.02234264405374L545.52681,255.64188469206388L545.7951945,225.09155690166395L545.8146170625,245.21211884355364L546.8987491874999,254.60884006223569L547.4266897499999,245.97096464118272L547.73745075,234.49806172538345L548.3024707499999,173.55378963125867L549.047590875,133.68959097846212L551.470114125,117.48308503141338L551.8002976874999,178.4881357783694L551.826783,150.18772765842797L551.9521468124999,215.21412544596825L552.402397125,151.9540216339545L553.1916594375,161.14252747215343L554.3340592499999,120.43435055921996L554.8019664374999,101.1804293154312L556.1227006875,164.03816924087008L556.6735951874999,112.04856031730843L557.254506375,177.96991235412193L557.4187153124999,227.16725228307877L558.1779609375,209.24065654562875L559.1208380625,210.57439535153088L560.86004025,256.9459302407038L561.1478473125,240.6834019554574L561.1513786875,221.75605847674123L561.308524875,173.98491977435853L562.7034179999999,168.07327923684818L562.7546229374999,195.0969850693713L563.7363451875,179.95964734045103L565.623865125,225.46626447848936L566.068818375,190.96792890397185L566.542022625,218.03145121038438L566.8792689375,224.36392876049158L567.1141053749999,157.44199118777286L567.7691754374999,158.67642986077573L568.6820358749999,215.95530234395562L569.1605371874999,240.0560776771253L569.8791719999999,251.29689896630134L570.2093555624999,253.1964769855751L571.7013615,228.2886812251178L574.5600095625,197.83839997856032L574.565306625,198.3230021453393L574.7789548125,176.23421124000294L576.9701729999999,184.3693695174392L578.156715,239.95186269760558L580.46623425,270.8507525774664L580.699305,289.5057290529905L580.9977061875,279.4526389902255L581.7463576874999,213.22199599179135L581.762248875,172.63042517482765L581.797562625,182.0982683800432L582.4844150624999,154.27568476256369L583.478497125,175.8207922255397L583.7698355625,197.38178309492648L584.2748221875,221.629593335146L584.9334236249999,225.73028906179715L585.3907366875,237.8868709468439L585.6838408125,197.1885054212965L586.614358125,229.84251975668414L587.3577125625,245.66253099870463L589.2222785624999,208.314943220805L590.2763939999999,273.11312298611244L591.3057898124999,297.999043530437L592.455252375,348.20300720346717L593.6859365624999,286.0885906176532L594.5140439999999,229.31071418504504L595.2768209999999,205.58984276680508L595.2909464999999,131.18500622567564L595.7200085625,161.6767707438689L598.1460631875,155.91393633751608L598.458589875,221.9074444441112L599.0147814375,232.9350589617956L599.2125384375,215.84920839140014L600.309030375,264.7642502749117L601.7763166875,216.48120804255097L605.6625948749999,295.58785975391595L607.0910360624999,282.0988453079162L607.400031375,297.9212717029789L609.8843536874999,282.5612017424904L610.175692125,254.0459425420763L612.485211375,259.0196727640153L615.080772,204.81660926143667L615.190244625,231.70169254660817L616.5233386874999,216.99867421937122L617.0830616249999,136.1959214505683L619.2530915624999,229.54468487921145L619.463208375,246.33139731261804L619.7457183749999,263.59489714408136L619.8075174374999,265.2274530671292L621.221833125,230.04122912380637L622.2847769999998,184.7034268968913L622.3960153124999,212.90990108849275L623.4059885624999,234.29029678305974L625.0957515,222.13233323137547L625.5477675,246.80754996323947L627.3575971875,266.0295081578752L629.4799535625,246.7510858863431L630.8289388125,283.4947078265651L632.8435882499999,228.3490322358156L633.6275535,249.61565621893072L633.899469375,249.1811446265408L635.2025467499999,279.29892811910474L635.2325634375,220.38698179008267L635.5009479374999,200.39702478775416L635.5503871875,219.3390755700808L635.8364285625,274.19558564152754L636.1683778124999,300.11135452822697L638.5432275,262.7531251762462L640.2170992499999,215.20174093012932L640.5137347499999,249.29149932085434L642.2458741875,218.05451013735322L642.5460410625,234.9576527783756L642.61843425,287.3987733890306L643.2258307499999,311.2914586033239L644.0892519375,292.51977374190955L644.7761043749999,257.60627810419527L645.5176931249999,245.5911641200041L646.5894654374999,235.38889606314845L647.64711225,284.6523072118636L649.2397623749999,294.26969406019106L649.7853598125,290.68604851212376L650.496931875,253.9990798722481L651.2367549375,288.48644092465116L651.7364445,350.1607835204484L652.3085272499999,338.7378759553678L653.2019651249999,339.9768387324003L653.3290946249999,254.78023303070006L653.8040645625,254.4120763316849L653.9965245,250.76463685125728L654.6180465,274.7540601258912L654.8211005625,279.48561488819774L654.9429329999999,304.5548702655197L654.99237225,251.23787246652216L655.7480865,239.25897419199006L657.5226024374999,192.8165184466718L658.6173286874999,248.36954272083506L658.6897218749999,262.6469317278784L659.5337205,276.6644619847251L660.9056596874999,271.9351778418768L661.5854493749999,175.02356026754458L662.2440508125,182.16078212610282L664.5694612499999,212.30897649815506L665.0938704375,214.9511564677407L667.4987368124999,221.97626598350905L668.3904089999999,192.67680659734805L668.3921746874998,103.0072999313094L669.2856125625,199.26868466663055L670.4509663125,170.37273179607234L671.046003,229.59781774789082L671.54745825,271.70268082207457L672.6739668749999,210.17213146280878L673.8552118125,278.06288387849895L674.4043406249999,255.4610176297523L674.4520141874999,303.2420838546255L674.718633,275.2791635818182L674.9499380624999,301.4826087753115L675.7656856875,326.602560260304L675.9175348124999,307.31046661679443L676.7138598749999,316.7715161761314L676.8339266249999,334.90813736681173L677.6072977499999,314.1480380393903L678.8061995625,245.9791043482922L678.8167936875,247.3794294668854L678.8679986249999,290.03836029650506L680.8967735624999,252.6782744583392L682.2333989999998,261.0815894105179L682.2492901875,265.1959876937555L682.8354984375,277.0856395421158L686.3386224375,278.90363856739197L686.3880616874999,298.4504507083877L686.6599775625,306.46040597394216L687.8165028749999,246.92961893023127L691.729266375,298.4759095824227L691.810488,302.5275192195057L691.8334419375,265.9209674541483L694.0317228749999,309.0141869178016L694.180040625,310.1591887253881L696.5707815,347.1088240872836L696.6237521249999,333.88828039393917L696.9557013749999,276.2725689647165L697.940955,239.77791780298358L698.1404776874999,271.6002280580922L701.1756944999998,266.39630815036656L703.0702771875,268.48970403898284L703.7006276249999,260.37773899850373L704.3768859374999,344.9793443064918L705.1361315624999,289.96251742170455L710.7969256874999,276.98332415338075L710.9169924375,320.90840635726266L710.9258208749999,284.0135561332867L711.9357941249999,305.7931435473225L713.7827032499999,328.1464845781006L718.0962778124999,322.9959179888851L720.2680734375,287.87456454658644L720.5488177499999,250.53804754549756L720.6883070625,219.6358423415888L720.7483404374999,244.92202878141805L721.4298958124999,246.6670133503939L721.8271755,278.393105399966L722.8424458125,279.7766279596249L723.5628463124999,277.7804615373308L724.521614625,308.66672571390234L724.7264343749999,294.22499890897285L725.3002828125,324.6977039148822L725.912976375,306.6998671100786L727.1913341249999,316.1408221113435L727.3378861875,319.0982239898693L728.0971318124999,287.0881281195075L728.7857499375,290.05830706783064L729.338410125,209.4289332153077L731.5861303125,269.624540918768L732.3559700625,341.0258512602453L732.4054093125,262.6611753272735L733.4100854999999,271.1265883649023L736.0603824374999,281.2168339596966L738.6170979374999,273.4043939956097L739.332201375,312.3547499431016L739.989037125,252.68919182377104L741.0696378749999,270.33279035264485L741.5922813749999,242.59560682877444L743.0683961249999,255.91911957008392L743.576914125,282.77796313609326L743.8011564374999,246.93713447955642L743.91239475,235.39516805752558L744.6398579999999,302.64610641923196L748.3478017499999,352.8671642787853L749.3365867499999,332.90978231157453L750.1629284999999,298.055579673403L750.50900325,357.82468218514515L750.8727348749999,351.65895253008114L751.388315625,325.4614513316881L751.8809424374999,277.260243906923L753.0445305,307.13015869360026L753.8885291249999,220.78866711557424L754.1463194999999,243.35979959388888L754.1886959999999,265.8049830481628L754.4482520624999,259.99516771586076L754.6053982499999,259.1711488371172L755.583589125,285.89839558075363L756.1238894999999,279.56869799298335L757.9866898124999,298.69457913717997L758.7777178125,262.1630913238608L758.9436924375,268.8813573476205L759.5758085625,306.3970797894318L759.9201176249999,315.94647983777065L760.3897904999999,287.55057182193315L762.1643064374999,255.6629700462849L763.1460286875,247.87688521787513L763.89997725,255.47398228632392L764.387307,227.68483859054444L764.7563356874999,310.8674670784805L766.001145375,316.9387771627782L766.0205679375,307.86082321295015L767.7403475625,333.85238880488623L767.93987025,335.19383135422095L768.97103175,308.844153325065L769.4071565625,306.75487161336594L770.0516325,387.6086468958355L770.3200169999999,360.7752801479993L770.6466691874999,313.47609602662504L772.4882812499999,294.96672181478704L772.7478373125,322.67527829761224L772.859075625,261.06084792746066L773.3411083125,282.10422888994L773.5423966875,253.06541295448827L774.2398432499999,267.5034082849813L774.8525368124999,314.22031314929296L775.4458078125,332.05735736385986L776.2244759999999,290.24722935972227L779.0601701249999,320.88854920437507L780.86470275,250.4033879556491L782.5403401874999,260.099682360385L782.9199629999999,247.47596882988657L784.5991318125,294.3638823843577L785.5790883749999,353.83247392117454L786.038167125,371.5607657858102L786.8027098125,360.7892275175473L787.5690181874999,311.5019866244608L787.7773693125,254.4272146695821L789.01511625,271.08927669807076L790.1645788124999,285.42887663692494L790.6236575625,303.8776123896256L790.914996,286.83902125050713L791.3758404374998,271.70951484177573L791.3934973124999,259.28630496422875L793.2933770625,236.26928267336174L794.9107468124998,282.2253491552053L795.4475158125,297.9100386964112L795.6805865625,296.36738155524904L800.0524288124999,325.3410334863722L800.3720182499999,298.3799233348247L800.5786036874999,266.7030919403478L800.7145616249999,248.28040527407197L801.978793875,294.22852896156246L802.9975955624999,275.88288926821366L804.729735,328.7753340451405L804.8851155,317.8228037290861L807.833813625,350.0589523180179L808.5965906249999,340.9102621378808L809.6577688125,354.2318771923966L812.1632793749999,299.6802168102295L814.3032926249999,256.24030232734873L814.437484875,250.9504167479719L815.8835829374999,272.5855470865436L816.9535895624999,326.1817223355851L817.7711028749999,319.83541950974944L818.5921475624999,315.1818634815658L819.2154352499999,289.12304692194743L821.0747041875,290.82810300464956L821.2865866874998,257.6677972174219L822.1694304375,275.9412444315275L822.9975378749999,301.3560294144504L824.8638695624999,360.0986900770556L825.5736759375,252.21502927247028L825.9903781874999,321.4493433894911L826.0045036875,376.81026216162434L826.8926445,409.21558244752805L828.4393867499999,374.896942699718L829.6418199374999,348.0344067188705L830.8001109374999,325.09242096817144L832.518124875,318.02314219678846L832.5781582499999,280.4270967336817L833.8441561875,301.4616299986235L834.1796368124999,352.03462046540125L834.276749625,331.09091499978115L834.2997035625,306.83445531090393L835.99652925,239.32967973764917L836.4997501874999,211.43322664548668L838.7580644999999,196.6760397063676L838.7668929375,237.37178018571853L839.7945230624998,251.62158505885947L841.3483280625,304.20970396500314L841.4842859999999,382.5273458165018L842.3335816874999,236.49264965705592L843.0928273124999,265.2040514031205L844.3040889374998,307.0903061063581L844.45770375,332.060996051917L845.0138953124999,243.61534503715586L847.6659579374999,227.09787228515137L847.76307075,238.40101295238958L847.8760747499999,235.0309757625634L848.3934211874999,293.6361875896997L848.82248325,235.9068535450307L850.8406640624999,256.14525765517595L851.1902701875,248.77249964518887L851.4021526874999,261.6153828234091L851.5398763124999,198.76828171634355L853.9076632499999,199.25062875881022L854.1972359999999,189.9045923431769L855.7757606249999,231.9587924949361L856.2012913125,237.43896781873892L856.2171824999999,305.8363971503906L857.2818920624999,313.105139122347L857.470820625,314.04784716562835L857.5449795,287.551621761698L858.4966850625,242.87927154945027L860.5907904374999,257.69976787555225L862.2010974374999,255.87298760724872L862.41121425,224.8239457625915L863.113957875,263.64824837796505L864.8337375,299.846685588872L867.0938174999999,308.3297262377635L868.5240243749998,319.6647263066231L869.1614375624999,284.26115684924065L869.230299375,314.47020739486334L869.6664241875,313.7000637883177L869.8429929375,251.50912121976796L869.8747753124999,285.61742504305863L870.5810503125,313.71624980529475L871.8717678749999,294.5906317903223L871.9671149999999,293.6855277049713L873.79636725,343.00609745590924L874.6368345,306.83476361677475L874.7569012499999,312.90434287058565L875.7792343124999,369.79365664601687L878.4365939999999,302.8154971695761L880.0098215625,261.94956756851L880.1175284999999,282.4118531204519L880.4441806874999,308.34753565970584L881.0745311249999,277.5032343271385L881.470045125,302.28999611793034L881.8408395,337.83738685125974L883.6082926874999,321.3903314841283L883.6665603749999,215.8576225049787L886.2462298124999,152.88528334185452L886.8218439374999,216.00433549176654L887.3444874374999,279.0004997529049L888.2714733749999,295.71133256658646L888.5310294374999,310.0501338905377L888.5557490625,333.6454699420701L889.1719739999999,382.37560985627385L889.9418137499999,355.5472583087838L890.6110093125,364.13523985262054L892.8657922499999,313.3421962085289L895.9398541874999,324.0804775355015L896.8968568124999,320.96760679311086L897.7638093749999,362.5762828156939L897.8573908124998,330.8399452570432L899.6230783125,294.24061581552155L900.468842625,306.4379420804587L901.1486323124999,366.4079415381514L902.2751409374998,338.8072182309966L902.8348638749999,350.232818640014L903.438729,365.23461366936L904.8636388124999,398.82374661551574L906.3556447499999,364.18847668838487L906.3874271249999,390.8599044029234L908.4885952499999,312.9654946437071L911.5732513124999,335.05821737948605L912.6609148125,302.7491931738668L912.7915756875,284.7516685125558L912.969910125,308.5357139371235L914.4160081874999,327.3434527458191L915.6502237499999,294.20014167516075L915.6873031874999,295.4332931146341L916.4288919374999,308.63604408573997L917.0874933749999,270.24688839398965L918.0409646249999,335.7116783651698L919.1621761875,341.8321584880145L921.5741053124999,305.3044674154L921.9731506874999,317.20669407025224L922.5593589375,355.92203137541935L922.8348061874999,345.45927056271915L923.0219690624999,278.8274397790379L923.217960375,351.9465138145254L927.836998875,341.9218375286242L929.327239125,331.0420364364454L929.5285274999999,407.00649714059455L929.9240414999999,363.1994606215965L930.3372123749999,351.17082724169154L930.7344920624998,275.60143112895065L930.7521489374999,351.2502859641542L931.4654866874998,327.8563677658298L933.1464211875,378.7638556021248L933.5860773749998,328.1214828152137L933.6302195625,276.125006947836L934.1193149999999,279.9637056457523L934.3364945625,329.0119733874516L935.4541747499999,345.7928665581057L936.5330098124999,377.68593020097677L937.2887240624999,342.36309300217795L937.837852875,337.21328513276836L938.0991746249999,388.2722015789285L938.1238942499999,367.2803554525655L938.261617875,334.675620752415L944.0654326875,365.08876768460334L944.5386369374999,361.75291560954133L944.5898418749998,306.677570898928L944.7840675,288.9224005919284L947.3390173124999,375.7657672696264L948.0011501249999,361.13396506148274L950.7061833749999,282.3228924137614L951.4212868124999,288.9000971934554L953.951517,356.54347079165905L954.2905289999999,363.834361995666L954.3823447499999,324.5582276201699L955.4629454999999,287.99599802433187L957.4846576874999,289.22266936106735L957.8183726249999,295.1954567802148L960.8959659374999,253.93940373731843L961.0372209374999,277.1025453897707L961.8670940624999,308.7279249389407L963.90293175,339.8236271659198L964.8458088749999,316.6669743037022L966.9805250624999,298.5217593401152L968.772697875,333.0593816437013L969.1558520624999,286.3829682094465L969.3977512499999,338.8511852937505L969.5725543125,241.11020443186553L971.1281249999998,254.19160621014495" style="fill: none;" fill="none"></path></g></g></g></g><g opacity="0.2"><g><g><g><path stroke="rgb(255, 112, 67)" stroke-width="2px" d="M92.6756398125,-17.60954513549793L94.01756231249999,269.0220136006674L96.21760893749999,119.75482648213713L97.35118031249999,87.34338785807297L98.71605674999999,176.77213058471688L100.11448125,50.0731693267823L100.13566949999999,75.71757659912117L100.5859198125,28.581733957926534L101.4634665,252.46451085408535L102.05497181249999,42.913491185506274L102.116770875,104.79764328002938L103.2909530625,100.0446449279786L104.63640693749998,173.06409861246752L105.00366993749998,-39.152078374226825L106.64752499999999,-88.98848826090486L107.54096287499999,18.747933959961014L107.64866981249999,57.09673589070647L108.64804893749998,19.925276692708422L109.419654375,-31.527290089925067L111.30011156249999,-62.74973208109529L113.52487781249998,210.61445897420256L114.18524493749999,-106.8459985097248L114.38123624999999,-46.89191157023103L116.7419604375,83.95060882568367L118.05033487499999,-99.51166127522772L118.862551125,81.83034604390471L119.26159649999998,50.10320053100593L122.77178324999998,5.733366266886496L122.96424318749999,-71.51197090148914L123.70936331249999,168.27912673950203L124.55159624999999,-359.04805157979314L124.62045806249998,113.1761998494467L125.10955349999999,196.16093343098967L125.50683318749998,-34.274921162923114L125.61983718749998,-9.567905807495L125.92883249999998,88.0427712758383L127.7139425625,-234.6408746083576L127.76338181249999,310.59446360270186L129.4019398125,158.282321548462L129.534366375,68.71507670084641L129.65090175,201.70057004292815L130.07996381249998,123.51305987040207L130.134700125,164.25599123636889L130.92219674999998,36.30318984985359L131.23119206249999,161.3833048502605L131.9462955,33.00648078918464L132.3117928125,225.82130457560228L132.87504712499998,207.34329884847014L135.601268625,-49.074328486124585L139.4381075625,94.88316243489592L139.4840154375,148.17644780476894L140.954833125,145.91917699178066L142.08663881249998,103.94885088602707L142.33736643749998,249.01376113891604L142.5033410625,-123.97842699686677L143.80465274999997,-31.6072238922118L144.6751366875,110.80687230428069L145.55621474999998,-74.89907239278152L146.87341762499997,138.85004069010424L147.855139875,-110.09519551595038L147.876328125,70.79873428344735L147.939892875,186.78118731180834L148.03524,83.77550150553391L148.10057043749998,74.74044189453133L148.16590087499998,61.311563110351635L148.9586945625,122.32256914774582L149.246501625,203.77855008443206L149.37716249999997,151.8024542490642L150.93803025,121.9530807495118L151.767903375,-281.5457309722899L151.916221125,192.3380059560141L152.961508125,158.68467992146816L153.01447875,139.66491724650072L153.35172506249998,18.889274851481222L153.9732470625,24.517959213256912L154.479999375,55.34566268920906L154.96556343749998,86.36371320088713L155.16332043749998,140.85495974222826L156.65356068749998,63.75604337056487L156.86544318749998,63.904257074991925L157.6705966875,157.47596130371102L158.38746581249998,73.27219988505051L160.31383087499998,127.36557032267258L161.1578295,-97.58996302286775L162.68161781249998,170.76439565022793L163.2713574375,57.04489097595222L165.33897749999997,156.14831314086922L165.466107,28.73159116109221L165.63208162499998,248.33230679829921L165.964030875,174.3578309377035L166.3295281875,37.68148765563972L166.41957825,20.332714970906665L166.5131596875,13.483658091227316L167.41719168749998,165.20488764444994L167.6785134375,97.17479731241868L168.3989139375,156.5284095764161L168.63728174999997,122.75107409159348L168.90390056249998,164.92668813069668L170.09750531249998,60.79879150390632L170.236994625,-28.850180053710822L172.58712468749997,66.36039123535164L172.9861700625,107.14724884033211L173.358730125,213.50074157714846L175.28509518749996,195.14943466186526L176.6693941875,234.4855311075847L178.01661375,131.9347956339519L178.57280531249998,26.27560640970876L178.73701425,137.9302790323894L179.7452218125,83.76564051310227L181.7016035625,-64.92467854817703L182.03002143749998,130.99770253499358L182.6939199375,166.28526395161953L183.3896008125,129.4366775512696L185.05817549999998,116.92920392354338L187.759677375,-112.130743408203L188.084563875,52.48821601867683L188.61250443749998,39.06919822692878L191.965545,40.81683502197273L192.0132185625,72.7428438822429L192.04323524999998,5.65851236979177L194.54344874999998,37.53252690633147L194.55404287499996,-63.17808761596668L195.06609224999997,23.747755940755297L198.00419625,102.42891337076829L198.72459675,43.00164248148611L200.7092295,-67.22169214884431L202.210063875,180.72026278177904L204.19116524999998,117.92471593221038L206.21111175,-12.889715576171758L206.62428262499998,-50.45785560607899L207.36410568749997,1.1184218088786837L210.445230375,-125.9843919118244L210.921966,277.41580988566085L211.3881075,72.06930821736663L211.73418225,156.15010604858406L212.70001331249998,42.502915318807055L212.90836443749998,169.94712855021166L213.04255668749997,78.93196131388352L213.64289043749997,94.86717567443856L214.40566743749997,170.2656684875489L215.24966606249998,-25.441115442911695L215.33971612499997,184.95018030802416L215.37856125,27.342984135945727L215.4368289375,140.90531056722014L216.69223275,186.37120908101406L217.197219375,-52.36655527750642L221.57259299999998,90.31393712361663L222.86331056249998,246.7542491912842L224.07810356249996,-140.25997136433904L224.09046337499998,86.3160517374675L226.37702868749997,86.92937558492034L227.63419818749998,166.44737269083666L227.72777962499998,58.85976181030281L227.78428162499998,98.55877265930184L230.2297588125,247.73198153177904L230.62350712499997,222.76633923848476L231.29976543749999,-24.18727531433094L231.33331349999997,101.2547082265219L235.30964174999997,57.98646634419768L237.32605687499998,37.182013448079516L237.66506887499997,166.05726585388192L238.52672437499996,173.94979502360033L240.1599853125,0.5509665171306368L241.51250193749996,137.92833671569832L241.662585375,105.38840637207039L241.91507868749997,176.3011934916179L242.59486837499998,44.06737670898445L243.90853987499997,239.34431101481127L244.85671406249998,61.91577301025398L246.04502174999996,64.46977005004891L246.07327274999997,86.99048385620125L247.15034212499998,167.83358917236336L247.61648362499997,41.61736831665046L249.49340943749996,179.80184580485033L250.06549218749998,-118.38171615600574L250.106103,-2.2389472961424612L250.94127318749997,163.54824091593431L252.8888265,178.50407943725594L253.32671699999997,105.87159500122078L254.08596262499998,112.32994740804045L255.6450646875,22.942740376790454L256.12709737499995,21.360499318440844L256.69211737499995,276.63768793741866L256.87398318749996,26.97678273518889L258.323612625,160.9655573527019L261.2987960625,98.66828943888352L262.1604515625,146.5047107696534L263.186316,210.4865648905437L264.65007093749995,7.666718419392993L266.36985056249995,74.04927597045906L266.7477076875,203.67022857666018L267.21208349999995,-50.51612510681141L268.25030775,19.719241714477615L268.2856215,163.3635714213054L269.94007068749994,101.47404060363777L269.994807,17.23770802815764L270.09191981249995,117.6045324961345L270.153718875,247.01840426127123L270.17137575,39.26477457682302L271.82405924999995,170.66429163614916L272.40497043749997,252.41640116373705L272.50738031249995,62.72019093831389L273.4996966875,300.3470995585124L273.54913593749995,-36.95651346842439L273.847537125,180.87385520935067L274.44963656249996,-24.51597506205232L275.04997031249997,60.20309791564949L275.92045425,-13.759275817870977L276.44839481249994,252.64469807942714L278.69258362499994,-51.76697705586745L280.01508356249997,196.80040384928392L282.90727968749997,86.30947774251311L283.2498230625,46.79902102152517L283.64357137499996,163.74277140299486L284.84777025,70.80261891682952L285.5099030625,148.4307418823243L287.6357908125,-27.095072809855054L288.3773795624999,-45.11170361836745L289.11720262499995,223.43584086100267L289.53920193749997,174.2244087219239L290.0900964375,15.135822550455831L291.5097091875,117.68028284708664L292.2336410625,121.85955073038743L292.2548293125,187.81823501586922L292.89047681249997,146.13611882527675L294.29419837499995,142.08803202311205L294.3612945,87.72826538085945L294.488424,-9.124310557047437L294.9545655,197.01525395711272L295.99278975,-1.4336329142251714L296.328270375,-203.03714090983064L296.533090125,226.70789744059252L296.97274631249996,151.17837295532235L302.27334018749997,235.63030268351244L302.27510587499995,63.831046676635815L302.52053643749997,124.42998275756844L302.64590024999995,84.78221918741868L303.40867725,265.3882378896078L304.061981625,161.70632705688485L304.7982733125,191.09776204427092L304.8194615625,95.96757278442391L305.58576993749995,199.18377583821623L306.6416510625,39.132248814900805L307.5792311249999,214.45202852884935L309.50912756249994,116.96192448933928L313.48545581249994,141.973883565267L313.65319612499997,229.41010818481448L316.3176185625,223.80413398742678L316.62131681249997,257.5237976074219L316.7766973125,-162.35247904459627L316.94620331249996,159.54168980916347L317.9508795,143.97536621093758L320.7918706875,157.8394733428956L321.1379454375,127.05479965209969L324.6410694375,127.20854148864754L325.55216418749995,88.64548708597825L325.57511812499996,283.0477812449138L325.7252015625,145.71179733276375L326.436773625,-15.117104593912671L327.739851,130.69216117858895L328.788669375,99.65408986409514L329.6079483749999,206.73341140747073L329.61677681249995,248.3124354044597L330.28244099999995,-63.106520716349195L331.18294162499996,-14.287287139892461L333.60899624999996,117.51623179117844L334.1722505625,-19.362411244710223L334.42827524999996,157.1244019826254L334.50949687499997,131.83289871215828L335.4382485,147.94830029805507L335.508876,86.27690658569344L335.56184662499993,1.3727158864340083L335.57950349999993,257.2327489217123L335.71369574999994,91.94488550821946L336.8066563125,71.33929595947274L337.228655625,134.1161666870118L337.6400608125,78.62044359842942L338.817774375,230.66992467244472L339.35984043749994,35.16140645345061L339.361606125,150.49886093139656L340.339797,-11.029872639973897L340.58875893749996,162.1954920450847L341.10787106249995,196.93412488301604L342.4003543124999,234.42397460937502L342.94418606249997,-43.61746444702137L343.048361625,173.81338462829598L343.2584784375,242.20594113667812L346.6274101875,-29.242229207356708L347.3054341875,152.16267929077156L348.70915575,235.2800880432129L349.94160562499997,144.6898399353028L350.6743659375,146.18930842081713L350.79619837499996,128.11560338338225L350.80326112499995,80.7426486968995L352.1540120625,-395.06323471069317L352.5795427499999,135.47638600667327L352.9379773125,120.09338722229012L354.47765681249996,207.7762860616049L354.66305399999993,158.07733243306484L354.97911206249995,229.59447886149096L355.00383168749994,191.36595115661623L355.06739643749995,199.24279238382982L355.13978962499993,19.496771748860766L355.30576425,305.78917210896816L355.39228293749994,93.14583485921233L355.8637215,111.3508703867595L357.59409524999995,56.07701962788909L358.02315731249996,198.79456545511889L362.30141812499994,65.00973409016936L362.9988646875,37.54074440002449L363.2389981875,197.58495038350432L363.26548349999996,-59.68938802083327L364.88461893749997,176.37649561564135L365.6120821875,53.705450948079516L365.7286175625,-65.71266148885086L366.2583238125,54.35328826904304L366.59910149999996,78.96991119384774L369.7508536875,235.63329086303713L370.40592375,169.18275222778328L371.15280956249995,327.41402969360354L371.2410939375,-34.83132019042957L371.5447921875,337.0004084269206L372.04624743749997,215.3549069722494L372.84257249999996,218.11419194539394L372.89201175,208.10408935546877L373.2045384375,174.51097513834642L374.2392313125,158.80450592041024L374.69124731249997,179.28025906880703L375.35691149999997,352.377879079183L375.720643125,85.64221725463875L376.6158466875,123.6865236918132L378.95714831249995,183.6905132293702L380.4420915,127.2925093332927L380.67869362499994,228.3415351867676L381.03712818749995,145.17018979390468L381.91644056249993,89.43795229593918L383.56912406249995,96.2084200541179L383.8551654374999,21.48032531738289L384.29305593749996,116.12194722493498L384.98697112499997,212.83766454060878L387.25764524999994,25.330744043986105L387.6655190625,125.5514465332032L388.22877337499995,209.57726186116545L388.38768525,58.05429801940925L388.7849649374999,95.49902623494475L389.327031,212.96047871907558L390.5930289375,225.63364690144863L391.31342943749996,120.68459854125985L391.38229125,11.532825088501053L391.399948125,41.07740427653005L393.7006389375,115.90679829915373L393.914287125,196.05216369628909L394.05730781249997,40.953394826253344L394.7318004375,129.51959953308113L395.06551537499996,241.55018513997402L396.2467603125,150.94619140625008L396.65816549999994,61.35324821472175L400.0765364999999,78.11753298441575L402.184767375,278.86059468587246L402.91752768749996,190.5069989522299L403.745635125,227.69220377604174L403.816262625,100.2627820332846L404.69027793749996,276.88182220458987L406.04985731249997,10.81760431925466L406.66608224999993,133.04236437479662L407.962096875,246.29242604573574L408.06627243749995,114.43078702290862L408.6930915,198.39429880778002L408.9985554375,218.3620614369711L409.7948805,156.8254346211752L411.11561474999996,87.45424931844084L411.3080746874999,-19.28158098856599L411.31690312499995,284.06002705891933L411.80246718749993,153.0205856323243L411.8854545,232.2721865336101L412.2650773125,293.4202006022136L412.4628343125,2.973782475789477L414.488077875,225.9524856567383L415.04073806249994,109.29888750712082L416.71284412499995,85.40495580037444L417.1136551875,130.09706522623705L417.91880868749996,274.9856728871664L418.6286150625,10.835533396403097L418.7168994375,35.89888916015632L419.6597765625,93.5053128560385L420.13474649999995,170.76230392456063L420.21596812499996,166.42018025716152L422.45839125,156.95781097412117L422.5696295625,143.19455490112313L423.648464625,47.28116378784187L424.36356806249995,-19.576813125610236L424.54719956249994,130.16803448994963L427.67776349999997,126.87999114990242L431.92600762499995,128.86817639668791L433.119612375,284.0909547170004L433.3014781874999,146.10578880310067L433.68816374999994,249.92425944010424L435.64277981249995,269.4754698435466L435.7310641875,201.55056343078616L438.24716887499994,191.4215312957764L439.39486574999995,205.76270128885912L439.4019285,210.93404477437346L440.16470549999997,95.50634727478035L440.82683831249994,191.70227076212572L441.79620074999997,145.0077822367351L443.897368875,211.78313598632815L444.5753928749999,260.5726371765137L444.81376068749995,247.2922709147136L446.6659668749999,127.5590549468995L449.815953375,202.97980969746916L451.01485518749996,191.1013478597006L452.2119913125,131.20179519653328L453.87173756249996,155.682904179891L454.858756875,246.78129221598314L456.86987493749996,75.83023096720383L457.1982928125,330.6784664154053L459.0593274375,260.02938613891604L459.417762,234.6725911458334L461.27173387499994,48.68232116699226L462.0751216875,-28.74559377034499L464.55238124999994,-59.099820200602124L464.6883391875,247.2062113444011L465.90842925,162.28872324625658L466.29334912499996,110.06102269490569L466.35514818749994,153.49241917928066L467.2203350625,60.21908467610686L467.4269205,122.05886230468758L468.49163006249995,225.24234479268398L469.59165337499996,-76.43753662109363L469.71525149999997,43.650525665283276L469.7664564374999,170.50741221110033L472.97117925,167.47754758199062L473.5944669375,211.20701497395842L473.63507774999994,135.96076990763353L475.87926656249994,187.82077496846523L476.36659631249995,187.6335655212403L476.49196012499993,212.69423192342128L477.2052978749999,195.98194147745775L478.21527112499996,279.8226390838623L478.97981381249997,86.72393824259446L480.17694993749996,68.72194951375334L480.34645593749997,105.48447634379075L482.982627375,213.4858006795248L485.292146625,33.442007954915454L485.92602843749995,213.65269050598147L487.76764049999997,142.13300412495937L487.940677875,237.15024019877123L487.961866125,195.78068758646654L489.82290075,273.60543276468917L490.80109162499997,404.2464004516602L490.804623,374.5929021199545L491.1648232499999,206.2142152150473L491.89228649999995,248.80399093627932L491.89758356249996,165.21773681640633L492.62681249999997,399.0992612202962L493.14062756249996,123.38680928548186L493.41254343749995,152.9802452087403L493.64031712499997,95.3030016581218L494.82332775,191.48831710815432L496.20056399999993,412.7441853841146L498.03158193749994,227.04854990641283L498.2328703124999,165.01618410746264L498.26465268749996,270.8673638661703L498.69371474999997,298.47380981445315L500.52120131249995,373.3840340932211L500.5476866249999,272.1790252685547L500.8072426874999,238.3159290313721L501.1197693749999,84.4517265319825L501.34577737499995,207.26575558980315L502.26570056249994,248.72121836344408L503.07615112499997,213.40243047078457L503.32687875,188.8820269266765L503.60232599999995,141.5928906758627L503.76830062499994,190.63803062438967L506.58810356249995,181.0292405446371L508.60275299999995,136.9367093404135L509.60566349999993,218.04576263427737L509.95703531249995,226.46675135294603L510.88225556249995,249.99657338460293L512.2171153124999,217.8226950327556L514.75440825,218.0069163004558L514.9274456249999,256.80827802022304L515.6955196875,122.43806228637703L516.1846151249999,304.78036270141604L518.3564107499999,176.84429512023934L520.7030094375,277.3324396769206L522.1402790625,148.8598444620769L522.7335500625,246.30527521769213L524.3032462499999,304.34483553568526L525.3061567499999,112.97987645467131L525.6363403124999,260.012353515625L526.6922214374999,203.16627209981291L526.94471475,228.54891484578457L527.8717006874999,177.522462463379L529.1359329375,119.79636217753098L529.7503921875,259.03372472127285L530.1353120624999,158.2941248575847L531.2423981249999,242.7598002115886L532.0369575,230.05988782246914L532.7008559999999,198.14418818155931L532.8791904374999,276.0095726013184L532.9021443749999,219.86317342122402L533.3559260625,169.34784914652514L533.83795875,200.1713691711426L534.272317875,345.17188415527346L535.3582156875,243.31679687500002L535.780215,190.8085062662761L537.2898778125,149.96502265930184L537.5158858125,215.55899963378909L537.8319438749999,91.12388318379729L537.9890900624999,94.87404848734543L539.3522008125,300.9796971638998L540.2933122499999,261.9026758829753L541.5910925625,390.8701136271159L541.9707153749999,119.09548467000334L543.9429883125,258.4078505198161L544.199013,147.63917312622078L544.4515063125,353.24086532592776L544.8364261874999,232.06943855285647L545.52681,264.0711977640788L545.7951945,179.26606521606453L545.8146170625,275.3929617563884L546.8987491874999,268.7039218902588L547.4266897499999,233.01415150960293L547.73745075,217.2887073516846L548.3024707499999,82.1373814900717L549.047590875,73.89329299926766L551.470114125,93.17332611083992L551.8002976874999,269.99571189880373L551.826783,107.7371154785157L551.9521468124999,312.7537221272787L552.402397125,57.06386591593431L553.1916594375,174.92528622945156L554.3340592499999,59.37208518981941L554.8019664374999,72.29954744974778L556.1227006875,258.32477912902834L556.6735951874999,34.064146931966235L557.254506375,276.8519404093425L557.4187153124999,300.9632621765137L558.1779609375,182.3507629394532L559.1208380625,212.57500356038418L560.86004025,326.5032325744629L561.1478473125,216.2896095275879L561.1513786875,193.36504325866701L561.308524875,102.3282117207846L562.7034179999999,159.20581843058275L562.7546229374999,235.632543818156L563.7363451875,157.2536407470704L565.623865125,293.7261901855469L566.068818375,139.22042554219573L566.542022625,258.6267346700033L566.8792689375,233.86264508565273L567.1141053749999,57.05908482869475L567.7691754374999,160.52808787028002L568.6820358749999,301.8736110687256L569.1605371874999,276.2072406768799L569.8791719999999,268.15813090006515L570.2093555624999,256.04584401448574L571.7013615,190.92698758443206L574.5600095625,152.16297810872402L574.565306625,199.04990539550784L574.7789548125,143.10102488199877L576.9701729999999,196.57210693359377L578.156715,323.3256024678549L580.46623425,317.19908739725753L580.699305,317.4881937662761L580.9977061875,264.37300389607753L581.7463576874999,113.8760314941407L581.762248875,111.74306894938157L581.797562625,196.30003318786623L582.4844150624999,112.54180933634446L583.478497125,208.13845342000334L583.7698355625,229.72326939900722L584.2748221875,258.0013086954753L584.9334236249999,231.88133265177416L585.3907366875,256.1217437744141L585.6838408125,136.14095713297533L586.614358125,278.82354125976565L587.3577125625,269.39254786173507L589.2222785624999,152.29356155395516L590.2763939999999,370.31039263407393L591.3057898124999,335.32792434692385L592.455252375,423.5089527130127L593.6859365624999,192.91696573893236L594.5140439999999,144.1438995361329L595.2768209999999,170.00853563944506L595.2909464999999,19.577751413981222L595.7200085625,207.41441752115892L598.1460631875,147.26968472798671L598.458589875,320.89770660400393L599.0147814375,249.476480738322L599.2125384375,190.22043253580736L600.309030375,338.1368131001791L601.7763166875,144.0566446940105L605.6625948749999,414.2478373209636L607.0910360624999,261.86532363891604L607.400031375,321.65491129557296L609.8843536874999,259.52109680175784L610.175692125,211.2730537414551L612.485211375,266.48026809692385L615.080772,123.51201400756844L615.190244625,272.02931747436526L616.5233386874999,194.94414672851565L617.0830616249999,14.991792297363357L619.2530915624999,369.56783002217617L619.463208375,271.5114659627279L619.7457183749999,289.4901468912761L619.8075174374999,267.6762869517009L621.221833125,177.26189320882168L622.2847769999998,116.69672355651863L622.3960153124999,255.21961237589525L623.4059885624999,266.36089032491054L625.0957515,203.89538790384935L625.5477675,283.8203750610352L627.3575971875,294.8624454498291L629.4799535625,217.83345247904467L630.8289388125,338.61014073689785L632.8435882499999,145.63051884969082L633.6275535,281.51559219360354L633.899469375,248.5293772379558L635.2025467499999,324.4756033579509L635.2325634375,132.01906229654955L635.5009479374999,170.41208928426113L635.5503871875,247.75215174357103L635.8364285625,356.48035074869796L636.1683778124999,338.9850078582764L638.5432275,206.71578114827483L640.2170992499999,143.87466456095385L640.5137347499999,300.4261369069418L642.2458741875,171.1990263621013L642.5460410625,260.3123667399089L642.61843425,366.0604543050131L643.2258307499999,347.13048642476406L644.0892519375,264.3622464497885L644.7761043749999,205.23603464762377L645.5176931249999,227.56849314371752L646.5894654374999,220.08549397786464L647.64711225,358.54742393493655L649.2397623749999,308.69577433268233L649.7853598125,285.31058019002285L650.496931875,198.96862691243498L651.2367549375,340.21748250325527L651.7364445,442.6722974141439L652.3085272499999,321.60351460774746L653.2019651249999,341.83528289794924L653.3290946249999,126.9853244781495L653.8040645625,253.8598412831625L653.9965245,245.29347763061526L654.6180465,310.7381950378418L654.8211005625,286.58294703165694L654.9429329999999,342.15875333150234L654.99237225,171.26237576802578L655.7480865,221.29062678019213L657.5226024374999,123.15283482869475L658.6173286874999,331.6990791320801L658.6897218749999,284.06301523844405L659.5337205,297.69075736999514L660.9056596874999,264.8412516276042L661.5854493749999,29.65613390604665L662.2440508125,192.86661491394045L664.5694612499999,257.5312680562338L665.0938704375,218.91442642211916L667.4987368124999,232.51393025716152L668.3904089999999,148.72761751810717L668.3921746874998,-31.49696006774891L669.2856125625,343.6607617696127L670.4509663125,127.02880249023445L671.046003,318.43544667561855L671.54745825,334.85997543334963L672.6739668749999,117.8763074239096L673.8552118125,379.8990125020345L674.4043406249999,221.55821825663256L674.4520141874999,374.91368319193526L674.718633,233.33478317260744L674.9499380624999,340.7877765655518L675.7656856875,364.282487487793L675.9175348124999,278.37232615153L676.7138598749999,330.96309051513674L676.8339266249999,362.11306915283205L677.6072977499999,283.0078890482585L678.8061995625,143.7257038116456L678.8167936875,249.4799171447754L678.8679986249999,354.0267565409343L680.8967735624999,196.63814570109056L682.2333989999998,273.68656183878585L682.2492901875,271.3675851186117L682.8354984375,294.92011731465664L686.3386224375,281.63063710530605L686.3880616874999,327.77066891988125L686.6599775625,318.4753388722738L687.8165028749999,157.63343836466478L691.729266375,375.7953455607097L691.810488,308.60493367513027L691.8334419375,211.01113980611174L694.0317228749999,373.6540161132813L694.180040625,311.8766914367676L696.5707815,402.533277130127L696.6237521249999,314.05746485392257L696.9557013749999,189.84900182088225L697.940955,185.03594106038418L698.1404776874999,319.33369344075527L701.1756944999998,258.59042828877773L703.0702771875,271.6297978719076L703.7006276249999,248.2097914377849L704.3768859374999,471.8817522684733L705.1361315624999,207.43727709452318L710.7969256874999,257.5145342508952L710.9169924375,386.79602966308596L710.9258208749999,228.67128079732265L711.9357941249999,338.4625246683757L713.7827032499999,361.6764961242676L718.0962778124999,315.2700681050619L720.2680734375,235.19253438313808L720.5488177499999,194.533272043864L720.6883070625,173.28253453572597L720.7483404374999,282.85130844116213L721.4298958124999,249.28449020385744L721.8271755,325.9822434743246L722.8424458125,281.851911799113L723.5628463124999,274.78621190389003L724.521614625,354.9961219787598L724.7264343749999,272.5624087015788L725.3002828125,370.4067614237468L725.912976375,279.70311190287276L727.1913341249999,330.3022546132406L727.3378861875,323.5343268076579L728.0971318124999,239.07298431396487L728.7857499375,294.5135754903158L729.338410125,88.48487243652352L731.5861303125,359.9179524739584L732.3559700625,448.12781677246096L732.4054093125,145.11416142781582L733.4100854999999,283.8247079213461L736.0603824374999,296.3522023518881L738.6170979374999,261.6857340494792L739.332201375,370.78028386433925L739.989037125,163.19085464477547L741.0696378749999,296.79818814595546L741.5922813749999,200.98983154296877L743.0683961249999,275.90438868204757L743.576914125,323.06622848510744L743.8011564374999,193.175891494751L743.91239475,218.08221842447924L744.6398579999999,403.522513961792L748.3478017499999,428.19875106811526L749.3365867499999,302.9737093607585L750.1629284999999,245.7742757161459L750.50900325,447.4783359527588L750.8727348749999,342.4103580474854L751.388315625,286.16519953409835L751.8809424374999,204.9584327697754L753.0445305,351.9350308736166L753.8885291249999,91.27642974853524L754.1463194999999,277.21649831136074L754.1886959999999,299.4727582295736L754.4482520624999,251.28044471740725L754.6053982499999,257.93512051900234L755.583589125,325.9892656962077L756.1238894999999,270.07415161132815L757.9866898124999,327.383400853475L758.7777178125,207.36585960388186L758.9436924375,278.95875638326015L759.5758085625,362.67066345214846L759.9201176249999,330.27057991027834L760.3897904999999,244.95670979817714L762.1643064374999,207.83156738281252L763.1460286875,236.1977579752605L763.89997725,266.86962788899746L764.387307,186.00112304687508L764.7563356874999,435.6414098103841L766.001145375,326.0457422892253L766.0205679375,294.24389228820803L767.7403475625,372.83973719278976L767.93987025,337.2059951782227L768.97103175,269.31963628133144L769.4071565625,303.6209490458171L770.0516325,508.8893098195394L770.3200169999999,320.52523002624514L770.6466691874999,242.52731984456386L772.4882812499999,267.2026604970297L772.7478373125,364.2381130218506L772.859075625,168.63920237223314L773.3411083125,313.6693003336589L773.5423966875,209.5071890513103L774.2398432499999,289.1604012807211L774.8525368124999,384.2956704457601L775.4458078125,358.8129236857097L776.2244759999999,227.53203735351565L779.0601701249999,366.8505289713542L780.86470275,144.6756460825603L782.5403401874999,274.64412396748867L782.9199629999999,228.54039853413906L784.5991318125,364.6957527160645L785.5790883749999,443.03536122639974L786.038167125,398.1532035827637L786.8027098125,344.63192011515304L787.5690181874999,237.5711252848308L787.7773693125,168.81505673726406L789.01511625,296.0823697408041L790.1645788124999,306.93827654520675L790.6236575625,331.5507160186768L790.914996,261.2811345418295L791.3758404374998,249.01525522867846L791.3934973124999,240.6514901479086L793.2933770625,201.74374923706057L794.9107468124998,351.1594488779704L795.4475158125,321.43707300821944L795.6805865625,294.0533958435059L800.0524288124999,368.80151138305666L800.3720182499999,257.9382581075033L800.5786036874999,219.18784484863284L800.7145616249999,220.64637527465823L801.978793875,363.1507144927979L802.9975955624999,248.36442972819017L804.729735,408.1140012105306L804.8851155,301.3940082550049L807.833813625,398.41317520141604L808.5965906249999,327.1872268676758L809.6577688125,374.21429977416994L812.1632793749999,217.85272623697924L814.3032926249999,191.08043060302737L814.437484875,243.01558837890627L815.8835829374999,305.0382425944011L816.9535895624999,406.5759852091472L817.7711028749999,310.3159652709961L818.5921475624999,308.2015294392904L819.2154352499999,250.03482208251955L821.0747041875,293.38568712870284L821.2865866874998,207.9273385365805L822.1694304375,303.35141525268557L822.9975378749999,339.4782068888347L824.8638695624999,448.2126810709635L825.5736759375,90.3895380655925L825.9903781874999,425.3008145650228L826.8926445,457.82356287638345L828.4393867499999,323.41898307800295L829.6418199374999,307.7406027475993L830.8001109374999,290.67944234212246L832.518124875,307.4192240397136L832.5781582499999,224.03302853902187L833.8441561875,333.0134298960368L834.1796368124999,427.8941061655681L834.276749625,299.675356801351L834.2997035625,270.4497657775879L835.99652925,138.07251637776702L836.4997501874999,169.5885470072429L838.7580644999999,174.54025929768886L838.7668929375,298.4153909047445L839.7945230624998,272.996292368571L841.3483280625,383.0918823242188L841.4842859999999,500.00380859375L842.3335816874999,17.440605417887472L843.0928273124999,308.2711540222168L844.3040889374998,369.91968816121425L844.45770375,369.5170309702556L845.0138953124999,110.94686851501473L847.6659579374999,202.32166315714525L847.76307075,255.3557239532471L847.8760747499999,229.97591997782396L848.3934211874999,381.54400533040365L848.82248325,149.31285247802742L850.8406640624999,286.50286382039394L851.1902701875,237.7133626302084L851.4021526874999,280.879707590739L851.5398763124999,104.49763005574553L853.9076632499999,199.9741493225098L854.1972359999999,175.88553771972664L855.7757606249999,295.0400927225749L856.2012913125,245.65923080444338L856.2171824999999,408.4325411478679L857.2818920624999,324.00825208028164L857.470820625,315.4619092305502L857.5449795,247.80728365580248L858.4966850625,175.87074623107918L860.5907904374999,279.93051236470546L862.2010974374999,253.13281720479335L862.41121425,178.25038299560555L863.113957875,321.8847023010254L864.8337375,354.1443414052328L867.0938174999999,321.0542872111003L868.5240243749998,336.66722640991213L869.1614375624999,231.15580266316738L869.230299375,359.78378321329757L869.6664241875,312.5448483784994L869.8429929375,158.22270736694344L869.8747753124999,336.77988077799483L870.5810503125,355.86448694864913L871.8717678749999,265.902204767863L871.9671149999999,292.32787157694503L873.79636725,416.9869520823161L874.6368345,252.577762858073L874.7569012499999,322.00871175130214L875.7792343124999,455.1276273091634L878.4365939999999,202.34825795491545L880.0098215625,200.65067316691088L880.1175284999999,313.1052814483643L880.4441806874999,347.2510594685873L881.0745311249999,231.23678232828783L881.470045125,339.4701388041179L881.8408395,391.15847295125326L883.6082926874999,296.71974843343105L883.6665603749999,57.558559036254955L886.2462298124999,58.42677459716804L886.8218439374999,310.6829137166342L887.3444874374999,373.4947461446127L888.2714733749999,320.7775817871094L888.5310294374999,331.55833587646487L888.5557490625,369.03847401936855L889.1719739999999,455.47081972757974L889.9418137499999,315.30473098754885L890.6110093125,377.0172121683757L892.8657922499999,237.152630742391L895.9398541874999,340.18789952596035L896.8968568124999,316.2983006795248L897.7638093749999,424.9892968495687L897.8573908124998,283.2354389190674L899.6230783125,239.341621653239L900.468842625,324.73393147786464L901.1486323124999,456.36294072469076L902.2751409374998,297.4061332702637L902.8348638749999,367.37121925354006L903.438729,387.73730621337893L904.8636388124999,449.20744603474935L906.3556447499999,312.23557179768886L906.3874271249999,430.86704597473147L908.4885952499999,196.12388000488284L911.5732513124999,368.1973014831543L912.6609148125,254.2856568654379L912.7915756875,257.75538152058925L912.969910125,344.21178207397463L914.4160081874999,355.5550609588623L915.6502237499999,244.48517506917324L915.6873031874999,297.28302027384444L916.4288919374999,328.44017054239913L917.0874933749999,212.663154856364L918.0409646249999,433.90886332194015L919.1621761875,351.01287867228194L921.5741053124999,250.51293080647793L921.9731506874999,335.06003405253097L922.5593589375,413.9950373331706L922.8348061874999,329.76512934366866L923.0219690624999,178.8796936035157L923.217960375,461.62512486775717L927.836998875,326.8848230997722L929.327239125,314.72233479817714L929.5285274999999,520.953188196818L929.9240414999999,297.488905843099L930.3372123749999,333.12787717183437L930.7344920624998,162.24733695983895L930.7521489374999,464.7235682169596L931.4654866874998,292.76549046834316L933.1464211875,455.1250873565674L933.5860773749998,252.15792363484707L933.6302195625,198.13029314676928L934.1193149999999,285.721753692627L934.3364945625,402.584375L935.4541747499999,370.96420631408694L936.5330098124999,425.5255256652832L937.2887240624999,289.3788372039795L937.837852875,329.488573328654L938.0991746249999,464.86057624816897L938.1238942499999,335.7925862630209L938.261617875,285.76851870218917L944.0654326875,410.70848808288576L944.5386369374999,356.74913749694826L944.5898418749998,224.06455383300784L944.7840675,262.2896451314291L947.3390173124999,506.0308172861735L948.0011501249999,339.1862617492676L950.7061833749999,164.10628344217943L951.4212868124999,298.7659043629965L953.951517,458.00853118896487L954.2905289999999,374.7706988016765L954.3823447499999,265.6440260569255L955.4629454999999,233.1526536305746L957.4846576874999,291.0626763661703L957.8183726249999,304.15463790893557L960.8959659374999,192.05532417297366L961.0372209374999,311.84725786844893L961.8670940624999,356.16599426269534L963.90293175,386.4671805063884L964.8458088749999,281.931995010376L966.9805250624999,271.30393689473476L968.772697875,384.8658150990804L969.1558520624999,216.36834805806484L969.3977512499999,417.55351092020675L969.5725543125,94.49873313903817L971.1281249999998,273.8137088775635" style="fill: none;" fill="none"></path></g></g></g></g></g></g><g transform="translate(53, 376)" clip-path="url(#clip_1)"><clipPath id="clip_1"><rect width="1059" height="24"></rect></clipPath><g><g><line x1="0" y1="0" x2="0" y2="5" style="visibility: inherit;" fill="rgb(0, 0, 0)" stroke="rgb(204, 204, 204)" stroke-width="1px"></line><line x1="88.28437499999998" y1="0" x2="88.28437499999998" y2="5" style="visibility: inherit;" fill="rgb(0, 0, 0)" stroke="rgb(204, 204, 204)" stroke-width="1px"></line><line x1="176.56874999999997" y1="0" x2="176.56874999999997" y2="5" style="visibility: inherit;" fill="rgb(0, 0, 0)" stroke="rgb(204, 204, 204)" stroke-width="1px"></line><line x1="264.853125" y1="0" x2="264.853125" y2="5" style="visibility: inherit;" fill="rgb(0, 0, 0)" stroke="rgb(204, 204, 204)" stroke-width="1px"></line><line x1="353.13749999999993" y1="0" x2="353.13749999999993" y2="5" style="visibility: inherit;" fill="rgb(0, 0, 0)" stroke="rgb(204, 204, 204)" stroke-width="1px"></line><line x1="441.421875" y1="0" x2="441.421875" y2="5" style="visibility: inherit;" fill="rgb(0, 0, 0)" stroke="rgb(204, 204, 204)" stroke-width="1px"></line><line x1="529.70625" y1="0" x2="529.70625" y2="5" style="visibility: inherit;" fill="rgb(0, 0, 0)" stroke="rgb(204, 204, 204)" stroke-width="1px"></line><line x1="617.990625" y1="0" x2="617.990625" y2="5" style="visibility: inherit;" fill="rgb(0, 0, 0)" stroke="rgb(204, 204, 204)" stroke-width="1px"></line><line x1="706.2749999999999" y1="0" x2="706.2749999999999" y2="5" style="visibility: inherit;" fill="rgb(0, 0, 0)" stroke="rgb(204, 204, 204)" stroke-width="1px"></line><line x1="794.5593749999999" y1="0" x2="794.5593749999999" y2="5" style="visibility: inherit;" fill="rgb(0, 0, 0)" stroke="rgb(204, 204, 204)" stroke-width="1px"></line><line x1="882.84375" y1="0" x2="882.84375" y2="5" style="visibility: inherit;" fill="rgb(0, 0, 0)" stroke="rgb(204, 204, 204)" stroke-width="1px"></line><line x1="971.1281249999998" y1="0" x2="971.1281249999998" y2="5" style="visibility: inherit;" fill="rgb(0, 0, 0)" stroke="rgb(204, 204, 204)" stroke-width="1px"></line><line x1="1059.4125" y1="0" x2="1059.4125" y2="5" style="visibility: inherit;" fill="rgb(0, 0, 0)" stroke="rgb(204, 204, 204)" stroke-width="1px"></line></g><g transform="translate(0, 8)"><text x="0" y="0" dx="0em" dy="0.95em" style="text-anchor: middle; visibility: hidden; font-family: Roboto, sans-serif; font-size: 12px; font-weight: 200;" fill="rgb(33, 33, 33)" stroke="none" stroke-width="1px">-50k</text><text x="88.28437499999998" y="0" dx="0em" dy="0.95em" style="text-anchor: middle; visibility: inherit; font-family: Roboto, sans-serif; font-size: 12px; font-weight: 200;" fill="rgb(33, 33, 33)" stroke="none" stroke-width="1px">0</text><text x="176.56874999999997" y="0" dx="0em" dy="0.95em" style="text-anchor: middle; visibility: inherit; font-family: Roboto, sans-serif; font-size: 12px; font-weight: 200;" fill="rgb(33, 33, 33)" stroke="none" stroke-width="1px">50k</text><text x="264.853125" y="0" dx="0em" dy="0.95em" style="text-anchor: middle; visibility: inherit; font-family: Roboto, sans-serif; font-size: 12px; font-weight: 200;" fill="rgb(33, 33, 33)" stroke="none" stroke-width="1px">100k</text><text x="353.13749999999993" y="0" dx="0em" dy="0.95em" style="text-anchor: middle; visibility: inherit; font-family: Roboto, sans-serif; font-size: 12px; font-weight: 200;" fill="rgb(33, 33, 33)" stroke="none" stroke-width="1px">150k</text><text x="441.421875" y="0" dx="0em" dy="0.95em" style="text-anchor: middle; visibility: inherit; font-family: Roboto, sans-serif; font-size: 12px; font-weight: 200;" fill="rgb(33, 33, 33)" stroke="none" stroke-width="1px">200k</text><text x="529.70625" y="0" dx="0em" dy="0.95em" style="text-anchor: middle; visibility: inherit; font-family: Roboto, sans-serif; font-size: 12px; font-weight: 200;" fill="rgb(33, 33, 33)" stroke="none" stroke-width="1px">250k</text><text x="617.990625" y="0" dx="0em" dy="0.95em" style="text-anchor: middle; visibility: inherit; font-family: Roboto, sans-serif; font-size: 12px; font-weight: 200;" fill="rgb(33, 33, 33)" stroke="none" stroke-width="1px">300k</text><text x="706.2749999999999" y="0" dx="0em" dy="0.95em" style="text-anchor: middle; visibility: inherit; font-family: Roboto, sans-serif; font-size: 12px; font-weight: 200;" fill="rgb(33, 33, 33)" stroke="none" stroke-width="1px">350k</text><text x="794.5593749999999" y="0" dx="0em" dy="0.95em" style="text-anchor: middle; visibility: inherit; font-family: Roboto, sans-serif; font-size: 12px; font-weight: 200;" fill="rgb(33, 33, 33)" stroke="none" stroke-width="1px">400k</text><text x="882.84375" y="0" dx="0em" dy="0.95em" style="text-anchor: middle; visibility: inherit; font-family: Roboto, sans-serif; font-size: 12px; font-weight: 200;" fill="rgb(33, 33, 33)" stroke="none" stroke-width="1px">450k</text><text x="971.1281249999998" y="0" dx="0em" dy="0.95em" style="text-anchor: middle; visibility: inherit; font-family: Roboto, sans-serif; font-size: 12px; font-weight: 200;" fill="rgb(33, 33, 33)" stroke="none" stroke-width="1px">500k</text><text x="1059.4125" y="0" dx="0em" dy="0.95em" style="text-anchor: middle; visibility: hidden; font-family: Roboto, sans-serif; font-size: 12px; font-weight: 200;" fill="rgb(33, 33, 33)" stroke="none" stroke-width="1px">550k</text></g><line x1="0" y1="0" x2="1059.4125" y2="0" fill="rgb(0, 0, 0)" stroke="rgb(204, 204, 204)" stroke-width="1px"></line></g></g></g></g></svg>